<svg width="416" height="334" viewBox="0 0 416 334" fill="none" xmlns="http://www.w3.org/2000/svg">
<path d="M38.7999 93.7736L77.0207 78.7169H83.1012V234.206H108.871V251H11.5821V234.206H37.3521V110.568H11.5821V93.7736H38.7999ZM186.22 167.609C186.22 177.454 186.51 186.623 187.089 195.117C187.861 203.61 188.729 210.945 189.695 217.122C190.66 224.458 191.914 231.214 193.459 237.391C194.617 237.777 195.872 238.163 197.223 238.549C198.381 238.935 199.732 239.225 201.277 239.418C203.014 239.611 204.751 239.707 206.489 239.707C208.226 239.707 209.867 239.611 211.411 239.418C213.148 239.225 214.596 238.935 215.754 238.549C217.105 238.163 218.36 237.777 219.518 237.391C220.87 231.021 222.124 224.072 223.283 216.543C224.248 210.173 225.116 202.838 225.889 194.537C226.661 186.044 227.047 177.068 227.047 167.609C227.047 157.764 226.661 148.692 225.889 140.391C225.116 131.898 224.248 124.563 223.283 118.385C222.124 111.05 220.87 104.294 219.518 98.1169C218.36 97.7308 217.105 97.3447 215.754 96.9587C214.596 96.5726 213.148 96.283 211.411 96.09C209.867 95.897 208.226 95.8005 206.489 95.8005C204.751 95.8005 203.014 95.897 201.277 96.09C199.732 96.283 198.381 96.5726 197.223 96.9587C195.872 97.3447 194.617 97.7308 193.459 98.1169C191.914 104.487 190.66 111.436 189.695 118.965C188.729 125.335 187.861 132.767 187.089 141.26C186.51 149.561 186.22 158.344 186.22 167.609ZM133.522 167.899C133.522 152.263 134.873 139.04 137.575 128.23C140.278 117.227 144.621 108.251 150.605 101.302C156.589 94.3527 164.118 89.3338 173.19 86.2453C182.456 82.9637 193.652 81.3229 206.778 81.3229C219.711 81.3229 230.811 82.9637 240.077 86.2453C249.342 89.3338 256.871 94.3527 262.662 101.302C268.646 108.251 272.989 117.227 275.691 128.23C278.394 139.04 279.745 152.263 279.745 167.899C279.745 183.341 278.394 196.564 275.691 207.567C272.989 218.377 268.646 227.257 262.662 234.206C256.871 241.155 249.342 246.271 240.077 249.552C230.811 252.641 219.711 254.185 206.778 254.185C193.652 254.185 182.456 252.641 173.19 249.552C164.118 246.271 156.589 241.155 150.605 234.206C144.621 227.257 140.278 218.377 137.575 207.567C134.873 196.564 133.522 183.341 133.522 167.899Z" fill="#A07C38"/>
<rect x="8.17491" y="254.628" width="290.821" height="76.1977" rx="6.98479" stroke="#A07C38" stroke-width="6.34981"/>
<path d="M24.7431 291.225C24.7431 287.689 25.0885 284.682 25.7794 282.203C26.5109 279.724 27.6082 277.692 29.0711 276.107C30.5748 274.522 32.4645 273.384 34.7403 272.694C37.0567 271.962 39.7998 271.596 42.9696 271.596C43.376 271.596 43.7621 271.617 44.1278 271.657C44.4936 271.657 44.8593 271.657 45.2251 271.657H48.8826C50.3456 271.657 51.646 271.617 52.7839 271.535C53.9218 271.454 54.8768 271.271 55.6489 270.987C56.4211 270.662 57.0103 270.215 57.4167 269.646C57.8231 269.077 58.0263 268.284 58.0263 267.268H61.318C61.318 269.585 60.7491 271.251 59.6112 272.267C58.4733 273.242 56.7868 273.892 54.5517 274.218C56.8681 275.681 58.5546 277.794 59.6112 280.557C60.7084 283.321 61.2571 286.877 61.2571 291.225C61.2571 294.76 60.8913 297.788 60.1598 300.308C59.469 302.787 58.3717 304.819 56.8681 306.403C55.4051 307.988 53.5154 309.147 51.199 309.878C48.8826 310.569 46.1394 310.914 42.9696 310.914C39.7998 310.914 37.0567 310.569 34.7403 309.878C32.4645 309.147 30.5748 307.988 29.0711 306.403C27.6082 304.819 26.5109 302.787 25.7794 300.308C25.0885 297.788 24.7431 294.76 24.7431 291.225ZM36.1423 291.225C36.1423 293.541 36.2236 295.675 36.3861 297.625C36.5893 299.576 36.7925 301.263 36.9957 302.685C37.2395 304.351 37.5443 305.895 37.9101 307.318C38.3165 307.44 38.7635 307.541 39.2512 307.623C39.6982 307.704 40.2265 307.765 40.8361 307.806C41.4457 307.846 42.1568 307.866 42.9696 307.866C43.7824 307.866 44.5139 307.846 45.1641 307.806C45.8143 307.765 46.363 307.704 46.81 307.623C47.2976 307.541 47.7244 307.44 48.0901 307.318C48.4152 305.814 48.6997 304.209 48.9435 302.502C49.1467 301.039 49.3499 299.353 49.5531 297.443C49.7563 295.492 49.8579 293.419 49.8579 291.225C49.8579 288.949 49.7563 286.836 49.5531 284.885C49.3499 282.935 49.1467 281.248 48.9435 279.826C48.6997 278.16 48.4152 276.615 48.0901 275.193C47.6837 275.112 47.2367 275.03 46.749 274.949C46.302 274.868 45.7534 274.807 45.1032 274.766C44.4936 274.685 43.7824 274.644 42.9696 274.644C42.1568 274.644 41.4457 274.685 40.8361 274.766C40.2265 274.807 39.6982 274.868 39.2512 274.949C38.7635 275.03 38.3165 275.112 37.9101 275.193C37.5443 276.697 37.2395 278.302 36.9957 280.009C36.7925 281.472 36.5893 283.178 36.3861 285.129C36.2236 287.039 36.1423 289.071 36.1423 291.225ZM86.8247 280.191C85.1585 280.191 83.7972 279.907 82.7405 279.338C81.6839 278.769 80.8508 278.099 80.2413 277.326C79.6317 276.554 79.205 275.782 78.9611 275.01C78.7173 274.238 78.5751 273.628 78.5344 273.181H76.4618C76.3806 273.466 76.3196 273.831 76.279 274.279C76.1571 275.091 76.0961 276.31 76.0961 277.936C76.0961 279.358 76.4618 280.496 77.1933 281.35C77.9248 282.203 78.9408 282.63 80.2413 282.63H84.996V285.739H78.5344V306.891H82.131V310H65.3065V306.891H68.903V280.252C68.903 278.871 69.1062 277.57 69.5126 276.351C69.919 275.132 70.5286 274.075 71.3414 273.181C72.1948 272.287 73.2514 271.596 74.5112 271.109C75.8116 270.58 77.3153 270.316 79.0221 270.316C80.0381 270.316 81.2166 270.377 82.5577 270.499C83.9394 270.58 85.3617 270.682 86.8247 270.804V280.191ZM97.8763 310V306.464H103.302V276.046H97.8763V272.511H118.968V276.046H113.543V306.464H118.663C118.744 305.733 118.947 304.819 119.273 303.721C119.598 302.624 120.146 301.567 120.918 300.551C121.691 299.536 122.727 298.682 124.027 297.991C125.328 297.26 127.014 296.894 129.087 296.894V310H97.8763ZM146.91 282.203C149.145 282.203 150.994 282.427 152.457 282.874C153.92 283.28 155.099 283.951 155.993 284.885C156.887 285.82 157.517 287.059 157.882 288.604C158.248 290.107 158.431 291.977 158.431 294.212C158.431 294.903 158.411 295.512 158.37 296.041C158.329 296.528 158.289 296.935 158.248 297.26C158.208 297.666 158.167 297.971 158.126 298.174H143.07C143.11 299.556 143.192 300.816 143.313 301.954C143.435 303.051 143.557 304.006 143.679 304.819C143.842 305.794 144.004 306.647 144.167 307.379C144.289 307.46 144.472 307.521 144.715 307.562C144.919 307.602 145.203 307.643 145.569 307.684C145.975 307.684 146.483 307.684 147.093 307.684C148.109 307.684 149.064 307.623 149.958 307.501C150.893 307.338 151.705 307.094 152.396 306.769C153.087 306.444 153.615 305.997 153.981 305.428C154.388 304.819 154.591 304.087 154.591 303.234H157.882C157.882 304.94 157.496 306.282 156.724 307.257C155.993 308.232 155.058 308.984 153.92 309.512C152.823 310 151.624 310.305 150.324 310.427C149.023 310.549 147.804 310.61 146.666 310.61C144.187 310.61 142.074 310.366 140.326 309.878C138.62 309.35 137.218 308.537 136.12 307.44C135.064 306.302 134.292 304.839 133.804 303.051C133.316 301.222 133.072 299.007 133.072 296.406C133.072 293.805 133.276 291.611 133.682 289.823C134.129 287.994 134.881 286.531 135.938 285.434C136.994 284.296 138.396 283.483 140.144 282.996C141.932 282.467 144.187 282.203 146.91 282.203ZM144.167 285.312C143.964 286.206 143.781 287.181 143.618 288.238C143.496 289.173 143.374 290.27 143.252 291.53C143.131 292.749 143.07 294.09 143.07 295.553H148.983C148.901 293.846 148.8 292.363 148.678 291.103C148.556 289.803 148.414 288.726 148.251 287.872C148.089 286.856 147.906 286.003 147.702 285.312C147.581 285.271 147.438 285.21 147.276 285.129C147.113 285.088 146.91 285.048 146.666 285.007C146.463 284.967 146.219 284.946 145.935 284.946C145.65 284.946 145.406 284.967 145.203 285.007C145 285.048 144.817 285.088 144.655 285.129C144.492 285.21 144.329 285.271 144.167 285.312ZM183.566 316.949H186.004C187.345 316.949 188.178 316.807 188.503 316.523C188.869 316.279 189.052 315.832 189.052 315.181V314.267H173.386C171.435 314.267 169.789 314.105 168.448 313.779C167.107 313.495 166.03 313.028 165.217 312.377C164.445 311.768 163.876 310.975 163.511 310C163.185 308.984 163.023 307.785 163.023 306.403C163.023 305.347 163.165 304.432 163.45 303.66C163.734 302.888 164.08 302.238 164.486 301.71C164.933 301.181 165.4 300.755 165.888 300.43C166.416 300.104 166.904 299.861 167.351 299.698C166.051 298.967 165.116 297.971 164.547 296.711C164.019 295.411 163.754 293.785 163.754 291.834C163.754 290.087 163.978 288.604 164.425 287.385C164.913 286.125 165.685 285.129 166.741 284.398C167.798 283.625 169.18 283.077 170.887 282.752C172.593 282.386 174.686 282.203 177.165 282.203H184.48C185.496 282.203 186.289 282.122 186.858 281.959C187.467 281.797 187.914 281.553 188.199 281.228C188.483 280.862 188.646 280.435 188.686 279.948C188.768 279.419 188.808 278.789 188.808 278.058H192.1C192.1 280.252 191.755 281.837 191.064 282.813C190.373 283.788 189.377 284.459 188.077 284.824C189.743 286.328 190.576 288.665 190.576 291.834C190.576 293.623 190.332 295.126 189.845 296.345C189.398 297.565 188.646 298.56 187.589 299.332C186.532 300.064 185.151 300.612 183.444 300.978C181.737 301.303 179.644 301.466 177.165 301.466C174.524 301.466 172.329 301.283 170.582 300.917C170.094 301.039 169.586 301.222 169.058 301.466C168.57 301.669 168.103 301.954 167.656 302.319C167.209 302.644 166.843 303.03 166.559 303.477C166.274 303.925 166.132 304.432 166.132 305.001H183.81C187.183 305.001 189.56 305.631 190.942 306.891C192.364 308.11 193.075 310.02 193.075 312.621C193.075 313.922 192.974 315.039 192.771 315.974C192.567 316.909 192.202 317.681 191.673 318.29C191.186 318.9 190.474 319.347 189.54 319.631C188.605 319.957 187.406 320.119 185.943 320.119H183.566V316.949ZM173.752 291.834C173.752 292.81 173.792 293.704 173.873 294.517C173.955 295.329 174.056 296.02 174.178 296.589C174.3 297.28 174.442 297.91 174.605 298.479C174.808 298.52 175.032 298.56 175.276 298.601C175.479 298.641 175.723 298.682 176.007 298.723C176.332 298.723 176.698 298.723 177.104 298.723C177.511 298.723 177.876 298.723 178.202 298.723C178.527 298.682 178.791 298.641 178.994 298.601C179.238 298.56 179.461 298.52 179.665 298.479C179.786 297.91 179.929 297.28 180.091 296.589C180.173 296.02 180.254 295.329 180.335 294.517C180.457 293.704 180.518 292.81 180.518 291.834C180.518 290.9 180.457 290.026 180.335 289.213C180.254 288.36 180.173 287.649 180.091 287.08C179.929 286.389 179.786 285.759 179.665 285.19L178.933 285.068C178.73 285.027 178.466 285.007 178.141 285.007C177.815 284.967 177.47 284.946 177.104 284.946C176.698 284.946 176.332 284.967 176.007 285.007C175.723 285.007 175.479 285.027 175.276 285.068C175.032 285.109 174.808 285.149 174.605 285.19C174.442 285.759 174.3 286.389 174.178 287.08C174.056 287.649 173.955 288.36 173.873 289.213C173.792 290.026 173.752 290.9 173.752 291.834ZM220.695 306.952H221.487C221.853 306.952 222.219 306.932 222.584 306.891L223.925 306.769V309.695C223.194 309.817 222.483 309.919 221.792 310C221.223 310.081 220.613 310.142 219.963 310.183C219.313 310.224 218.785 310.244 218.378 310.244C216.387 310.244 214.883 309.878 213.867 309.147C212.851 308.415 212.12 307.623 211.673 306.769C210.779 307.907 209.742 308.821 208.564 309.512C207.426 310.163 206.105 310.488 204.602 310.488C201.838 310.488 199.786 309.98 198.445 308.964C197.104 307.907 196.433 306.099 196.433 303.538C196.433 302.644 196.433 301.791 196.433 300.978C196.474 300.165 196.535 299.454 196.616 298.845C196.697 298.113 196.779 297.463 196.86 296.894L211.002 293.419C210.962 292.241 210.921 291.164 210.88 290.189C210.84 289.173 210.799 288.319 210.758 287.628C210.677 286.816 210.616 286.084 210.576 285.434C210.454 285.393 210.271 285.353 210.027 285.312C209.824 285.271 209.519 285.231 209.113 285.19C208.706 285.149 208.219 285.129 207.65 285.129C207.284 285.129 206.938 285.149 206.613 285.19C206.288 285.19 205.963 285.21 205.638 285.251C205.516 285.82 205.313 286.511 205.028 287.324C204.744 288.096 204.297 288.848 203.687 289.579C203.078 290.27 202.265 290.879 201.249 291.408C200.274 291.895 199.014 292.139 197.47 292.139V282.935C198.77 282.813 200.091 282.691 201.432 282.569C202.61 282.488 203.87 282.406 205.211 282.325C206.552 282.244 207.853 282.203 209.113 282.203C211.754 282.203 213.827 282.427 215.33 282.874C216.875 283.321 218.033 284.093 218.805 285.19C219.618 286.287 220.126 287.75 220.329 289.579C220.573 291.408 220.695 293.684 220.695 296.406V306.952ZM206.552 307.196C207.365 306.993 208.137 306.485 208.869 305.672C209.641 304.819 210.372 303.803 211.063 302.624V296.162L206.43 297.443C206.349 298.093 206.288 298.763 206.248 299.454C206.207 300.104 206.187 300.755 206.187 301.405C206.187 302.218 206.187 302.969 206.187 303.66C206.227 304.351 206.288 304.961 206.369 305.489C206.41 306.099 206.471 306.668 206.552 307.196ZM249.566 292.017C247.859 292.017 246.477 291.733 245.421 291.164C244.405 290.554 243.592 289.863 242.982 289.091C242.373 288.319 241.946 287.547 241.702 286.775C241.458 285.962 241.316 285.353 241.276 284.946H239.813C239.528 284.946 239.284 284.967 239.081 285.007C238.878 285.048 238.695 285.088 238.533 285.129C238.37 285.21 238.207 285.271 238.045 285.312C237.842 286.287 237.659 287.344 237.496 288.482C237.334 289.457 237.191 290.636 237.07 292.017C236.988 293.358 236.948 294.821 236.948 296.406C236.948 297.991 236.988 299.454 237.07 300.795C237.191 302.136 237.334 303.295 237.496 304.27C237.659 305.408 237.842 306.444 238.045 307.379C238.207 307.46 238.431 307.521 238.715 307.562C238.919 307.602 239.203 307.643 239.569 307.684C239.935 307.684 240.382 307.684 240.91 307.684C241.804 307.684 242.657 307.602 243.47 307.44C244.283 307.277 244.974 306.993 245.543 306.586C246.152 306.139 246.62 305.55 246.945 304.819C247.31 304.087 247.493 303.152 247.493 302.014H250.419C250.419 303.965 250.094 305.509 249.444 306.647C248.794 307.785 247.961 308.659 246.945 309.269C245.969 309.837 244.892 310.203 243.714 310.366C242.576 310.528 241.519 310.61 240.544 310.61C238.065 310.61 235.952 310.366 234.204 309.878C232.498 309.35 231.096 308.537 229.998 307.44C228.942 306.302 228.17 304.839 227.682 303.051C227.194 301.222 226.95 299.007 226.95 296.406C226.95 293.805 227.154 291.611 227.56 289.823C228.007 287.994 228.759 286.531 229.815 285.434C230.872 284.296 232.274 283.483 234.022 282.996C235.81 282.467 238.065 282.203 240.788 282.203C241.763 282.203 242.759 282.223 243.775 282.264C244.832 282.305 245.787 282.366 246.64 282.447C247.656 282.528 248.631 282.589 249.566 282.63V292.017ZM251.048 282.63H263.788L270.798 300.369L277.138 285.739H272.261V282.63H284.941V285.739H280.674L268.482 314.267C268.116 315.161 267.71 315.954 267.263 316.644C266.856 317.376 266.369 317.986 265.8 318.473C265.272 319.001 264.621 319.388 263.849 319.631C263.118 319.916 262.224 320.058 261.167 320.058C260.029 320.058 259.115 319.855 258.424 319.449C257.774 319.083 257.266 318.615 256.9 318.046C256.534 317.518 256.29 316.949 256.168 316.34C256.087 315.771 256.047 315.263 256.047 314.816V312.987H259.277V314.877C259.277 315.364 259.399 315.832 259.643 316.279C259.928 316.726 260.436 316.949 261.167 316.949C262.264 316.949 263.097 316.563 263.666 315.791C264.276 315.019 264.804 314.105 265.251 313.048L265.922 311.463L254.096 285.739H251.048V282.63Z" fill="#A07C38"/>
<path d="M299.915 239.315V234.316C301.5 234.316 302.76 234.235 303.694 234.072C304.629 233.95 305.3 233.686 305.706 233.28C306.112 232.914 306.316 232.386 306.316 231.695C306.316 231.329 306.173 230.516 305.889 229.256C305.604 227.997 305.3 226.656 304.975 225.233L297.903 195.242H304.487L309.242 221.576L313.813 195.242H320.397L311.985 232.426C311.619 234.133 310.948 235.474 309.973 236.449C308.998 237.465 307.738 238.197 306.194 238.644C304.69 239.091 302.861 239.315 300.707 239.315H299.915ZM334.088 230.963C331.325 230.963 329.191 230.435 327.688 229.378C326.184 228.281 325.127 226.696 324.518 224.624C323.949 222.51 323.664 219.93 323.664 216.882V208.835C323.664 205.706 323.969 203.105 324.579 201.033C325.188 198.96 326.245 197.396 327.749 196.339C329.293 195.282 331.406 194.754 334.088 194.754C337.055 194.754 339.229 195.364 340.611 196.583C342.033 197.802 342.968 199.57 343.415 201.886C343.862 204.162 344.085 206.905 344.085 210.116V212.981H330.187V220.052C330.187 221.474 330.309 222.632 330.553 223.526C330.837 224.42 331.264 225.091 331.833 225.538C332.442 225.944 333.215 226.148 334.149 226.148C335.125 226.148 335.856 225.924 336.344 225.477C336.872 224.989 337.217 224.319 337.38 223.465C337.583 222.571 337.685 221.535 337.685 220.357V218.223H344.024V219.564C344.024 223.1 343.273 225.883 341.769 227.915C340.265 229.947 337.705 230.963 334.088 230.963ZM330.187 209.445H337.685V206.275C337.685 204.812 337.603 203.593 337.441 202.618C337.278 201.602 336.933 200.85 336.405 200.362C335.917 199.834 335.125 199.57 334.027 199.57C332.971 199.57 332.158 199.814 331.589 200.301C331.061 200.789 330.695 201.622 330.492 202.801C330.289 203.938 330.187 205.523 330.187 207.555V209.445ZM356.332 230.963C354.95 230.963 353.731 230.577 352.674 229.805C351.618 228.992 350.785 227.976 350.175 226.757C349.565 225.497 349.261 224.177 349.261 222.795C349.261 220.6 349.626 218.751 350.358 217.248C351.089 215.744 352.085 214.484 353.345 213.468C354.645 212.412 356.129 211.497 357.795 210.725C359.502 209.953 361.29 209.201 363.159 208.47V205.97C363.159 204.548 363.078 203.37 362.915 202.435C362.753 201.5 362.407 200.809 361.879 200.362C361.391 199.875 360.639 199.631 359.624 199.631C358.729 199.631 357.998 199.834 357.429 200.24C356.901 200.647 356.515 201.236 356.271 202.008C356.027 202.74 355.905 203.613 355.905 204.629V206.397L349.444 206.153C349.525 202.252 350.419 199.387 352.126 197.558C353.833 195.689 356.474 194.754 360.05 194.754C363.545 194.754 366.024 195.709 367.487 197.619C368.95 199.529 369.682 202.293 369.682 205.909V222.002C369.682 223.1 369.702 224.156 369.743 225.172C369.824 226.188 369.905 227.143 369.986 228.037C370.108 228.891 370.21 229.703 370.291 230.476H364.317C364.195 229.825 364.033 229.013 363.83 228.037C363.667 227.021 363.545 226.107 363.464 225.294C363.058 226.676 362.265 227.976 361.087 229.195C359.949 230.374 358.364 230.963 356.332 230.963ZM358.892 225.355C359.542 225.355 360.152 225.172 360.721 224.806C361.29 224.441 361.798 224.034 362.245 223.587C362.692 223.1 362.997 222.714 363.159 222.429V212.432C362.143 213.001 361.188 213.57 360.294 214.139C359.4 214.708 358.608 215.317 357.917 215.968C357.266 216.577 356.738 217.288 356.332 218.101C355.966 218.873 355.783 219.767 355.783 220.783C355.783 222.206 356.047 223.323 356.576 224.136C357.104 224.949 357.876 225.355 358.892 225.355ZM376.13 230.476V195.242H382.652V200.24C383.953 198.086 385.253 196.644 386.554 195.912C387.854 195.181 389.155 194.815 390.455 194.815C390.618 194.815 390.76 194.815 390.882 194.815C391.044 194.815 391.247 194.835 391.491 194.876V202.069C391.004 201.866 390.435 201.703 389.784 201.581C389.175 201.419 388.545 201.338 387.895 201.338C386.879 201.338 385.944 201.581 385.091 202.069C384.278 202.516 383.465 203.41 382.652 204.751V230.476H376.13ZM403.701 230.963C400.815 230.963 398.499 230.069 396.751 228.281C395.004 226.452 394.008 224.055 393.764 221.088L399.19 219.442C399.515 221.677 400.063 223.364 400.836 224.502C401.608 225.599 402.746 226.148 404.249 226.148C405.428 226.148 406.322 225.822 406.931 225.172C407.541 224.481 407.846 223.567 407.846 222.429C407.846 221.413 407.622 220.499 407.175 219.686C406.728 218.873 405.997 218.04 404.981 217.187L398.946 212.005C397.727 210.949 396.69 209.77 395.837 208.47C395.024 207.169 394.618 205.483 394.618 203.41C394.618 201.541 394.984 199.976 395.715 198.716C396.487 197.416 397.544 196.441 398.885 195.79C400.267 195.1 401.872 194.754 403.701 194.754C406.505 194.754 408.638 195.668 410.101 197.497C411.605 199.285 412.458 201.459 412.661 204.02L408.272 205.666C408.11 204.446 407.866 203.39 407.541 202.496C407.216 201.561 406.769 200.85 406.2 200.362C405.631 199.834 404.879 199.57 403.944 199.57C402.888 199.57 402.034 199.936 401.384 200.667C400.775 201.358 400.47 202.191 400.47 203.166C400.47 203.776 400.592 204.385 400.836 204.995C401.12 205.564 401.587 206.133 402.238 206.702L408.455 212.432C409.309 213.204 410.101 214.037 410.833 214.931C411.605 215.825 412.235 216.841 412.722 217.979C413.21 219.117 413.454 220.438 413.454 221.941C413.454 223.933 413.047 225.599 412.235 226.94C411.422 228.281 410.284 229.297 408.821 229.988C407.358 230.638 405.651 230.963 403.701 230.963Z" fill="#A07C38"/>
<path d="M322.685 143.645H303.395V136.427H322.685V116.887H330.402V136.427H349.692V143.645H330.402V163.185H322.685V143.645Z" fill="#A07C38"/>
</svg>
