<svg width="628" height="628" viewBox="0 0 628 628" fill="none" xmlns="http://www.w3.org/2000/svg">
<path d="M377.586 588.094C372.784 586.801 370.372 585.411 362.67 579.505C358.871 576.591 353.926 573.143 351.681 571.842C345.705 568.379 343.729 566.728 341.972 563.731C339.099 558.827 334.1 545.216 332.191 537.1C329.195 524.358 327.796 519.239 326.5 516.276C325.834 514.755 325.428 513.371 325.598 513.202C326.183 512.617 331.414 524.62 337.858 541.336C341.811 551.589 345.547 558.296 349.98 563.097C351.615 564.868 352.015 565.015 353.785 564.498C354.873 564.18 358.136 563.907 361.038 563.89C365.795 563.865 366.718 564.066 370.435 565.944C372.703 567.089 374.639 568.309 374.738 568.654C374.847 569.034 373.491 569.218 371.307 569.119L367.695 568.957L372.501 570.54C375.144 571.41 377.97 572.675 378.781 573.35L380.255 574.578L378.371 574.612C376.556 574.646 376.589 574.693 379.26 575.905C380.785 576.597 383.225 578.262 384.683 579.606C387.784 582.464 390.738 584.121 393.627 584.622C396.538 585.127 396.399 586.013 393.153 587.65C389.823 589.329 382.908 589.527 377.586 588.094ZM323.403 571.284C319.24 569.467 315.761 567.36 311.907 564.322C311.273 563.823 310.264 561.827 309.664 559.887L308.572 556.36L307.733 558.111L306.893 559.862L306.099 557.35C305.662 555.968 305.283 553.338 305.257 551.504C305.201 547.628 304.313 547.641 303.681 551.529C303.288 553.944 303.162 554.1 302.41 553.085C301.24 551.505 300.724 547.116 301.381 544.326C301.685 543.033 301.704 542.117 301.423 542.292C301.141 542.466 300.725 543.453 300.498 544.485C300.271 545.518 299.878 546.362 299.623 546.362C299.117 546.362 297.355 539.002 296.741 534.324C296.436 532.003 295.937 531.072 294.346 529.856C290.19 526.681 282.169 518.16 278.944 513.493C267.322 496.678 264.146 477.452 269.777 458.019C271.399 452.421 276.719 440.418 277.314 441.013C277.51 441.209 277.181 442.314 276.582 443.469C274.529 447.427 272.535 456.133 272.144 462.838C270.915 483.911 279.353 503.926 297.197 522.263C303.692 528.937 304.924 529.928 307.172 530.288C309.92 530.727 312.771 532.009 315.186 533.891L316.683 535.058L314.872 535.131C313.588 535.183 313.416 535.294 314.282 535.514C316.13 535.985 320.282 538.751 320.282 539.512C320.282 539.932 319.522 540.031 318.241 539.776L316.2 539.371L318.789 540.97C321.563 542.684 323.422 545.015 323.422 546.779C323.422 547.627 323.254 547.702 322.668 547.116C322.254 546.701 321.494 546.362 320.981 546.362C320.329 546.362 320.546 546.883 321.701 548.089C324.498 551.009 326.43 556.802 324.34 556C323.56 555.701 323.609 556.038 324.595 557.747C325.266 558.911 326.016 561.136 326.261 562.69C326.647 565.135 327.562 567.95 329.375 572.267C330.044 573.86 328.849 573.663 323.403 571.284ZM367.869 555.262C364.534 551.571 362.602 548.305 359.197 540.601C354.38 529.705 350.345 524.86 335.981 512.726C324.117 502.705 319.255 496.946 314.904 487.762C311.014 479.552 309.975 474.45 309.952 463.464C309.94 456.502 310.165 453.372 310.75 452.474C311.472 451.365 311.527 451.526 311.214 453.841C310.72 457.504 311.886 467.896 313.419 473.501C316.122 483.378 322.592 494.356 328.662 499.363C333.069 502.997 334.688 503.968 345.401 509.396C355.692 514.61 355.745 514.648 353.251 514.967L350.739 515.289L354.821 516.173C358.53 516.977 362.985 519.404 362.985 520.621C362.985 520.889 361.996 520.885 360.787 520.612C359.578 520.34 358.589 520.344 358.589 520.625C358.589 520.903 359.711 521.321 361.082 521.553C364.037 522.052 366.404 523.77 367.766 526.404L368.755 528.316L367.126 527.907C365.009 527.375 365.051 528.208 367.223 529.836C368.173 530.548 369.487 532.058 370.143 533.192L371.335 535.253L369.995 534.903C368.679 534.559 368.683 534.6 370.216 537.215C371.678 539.709 371.755 540.278 371.437 546.216C371.25 549.701 370.895 553.743 370.647 555.197L370.196 557.84L367.869 555.262ZM402.434 549.788C400.125 548.289 397.964 546.551 397.631 545.926C397.298 545.301 396.823 542.882 396.574 540.551C396.326 538.22 395.884 536.312 395.592 536.312C395.3 536.312 394.752 537.513 394.375 538.981C393.998 540.449 393.61 541.932 393.514 542.276C393.418 542.621 392.939 542.197 392.451 541.334C391.86 540.291 391.566 537.822 391.572 533.957C391.576 530.762 391.429 528.148 391.242 528.148C390.733 528.148 388.948 531.928 388.277 534.428L387.687 536.626L386.742 534.428C385.937 532.556 384.973 528.878 383.284 521.24C382.959 519.769 382.904 519.749 382.425 520.926C382.143 521.617 381.88 523.454 381.841 525.008L381.769 527.834L380.43 525.322C379.394 523.38 379.08 521.65 379.045 517.695C378.997 512.387 378.581 511.8 377.223 515.127L376.426 517.081L375.025 512.362C373.633 507.673 372.239 498.153 372.809 497.231C372.973 496.965 372.846 496.748 372.531 496.748C372.214 496.748 370.367 494.754 368.425 492.317C364.445 487.321 359.702 478.277 359.599 475.486C359.561 474.468 359.351 473.746 359.131 473.881C358.37 474.348 357.906 470.638 357.554 461.266C357.262 453.501 357.5 449.144 358.906 436.46C361.98 408.738 360.545 396.75 351.308 372.97C349.752 368.964 347.087 362.904 345.387 359.503C343.687 356.102 342.383 353.232 342.491 353.124C342.957 352.659 350.314 363.836 353.322 369.578C357.842 378.209 360.234 384.502 362.376 393.403C366.054 408.685 366.445 421.045 363.87 440.691C361.807 456.441 361.689 467.369 363.509 474.23C366.471 485.391 373.84 495.388 386.53 505.456C393.382 510.892 396.983 514.294 399.886 518.072C404.478 524.05 407.201 535.179 406.83 546.453L406.63 552.513L402.434 549.788ZM446.976 540.551C445.784 538.738 443.433 534.575 441.752 531.3C437.964 523.92 433.205 517.574 425.999 510.291C419.197 503.418 413.5 498.846 402.863 491.724C388.006 481.778 382.125 476.152 376.73 466.722C373.785 461.575 370.85 453.432 370.236 448.701L369.829 445.566L371.588 449.656C380.101 469.452 394.409 483.005 423.273 498.612C433.019 503.882 437.433 506.687 439.587 508.979L441.106 510.596L438.39 509.638C434.469 508.255 434.46 508.447 438.345 510.661C442.729 513.161 445.336 515.312 446.419 517.325C447.219 518.812 447.189 518.888 445.931 518.559C444.748 518.25 444.819 518.47 446.533 520.422C447.602 521.639 448.779 523.381 449.149 524.293C450.072 526.566 450.637 543.848 449.789 543.848C449.433 543.848 448.167 542.364 446.976 540.551ZM317.083 530.079C315.857 529.069 313.686 526.729 312.259 524.879C310.139 522.131 309.557 520.77 309.084 517.452C308.765 515.218 308.469 514.167 308.426 515.117C308.383 516.067 308.111 516.844 307.82 516.844C306.912 516.844 305.839 512.166 305.786 507.979C305.739 504.264 305.678 504.098 304.963 505.712C304.539 506.67 303.997 507.259 303.758 507.02C303.129 506.391 303.227 501.163 303.912 498.773C304.277 497.501 304.277 496.862 303.912 497.087C303.589 497.287 303.325 497.841 303.325 498.318C303.325 498.795 303.002 499.386 302.606 499.63C301.785 500.138 302.288 475.081 303.188 470.686L303.703 468.174L304.091 471.628C304.726 477.279 307.513 485.091 313.052 496.748C319.213 509.713 320.901 514.759 321.35 521.554C321.666 526.336 320.816 531.916 319.772 531.916C319.518 531.916 318.308 531.09 317.083 530.079ZM214.55 527.633C204.327 514.348 202.284 499.674 209.992 494.91C211.242 494.138 212.265 493.425 212.265 493.327C212.265 493.229 211.064 493.369 209.596 493.638C208.128 493.907 206.829 494.03 206.71 493.912C206.591 493.794 206.693 492.782 206.94 491.663C207.217 490.401 208.61 488.451 210.611 486.527L213.835 483.425L211.443 484.418C209.066 485.404 209.054 485.401 209.481 484.014C210.684 480.113 212.976 477.485 217.76 474.521C219.228 473.612 220.429 472.745 220.429 472.594C220.429 472.197 216.486 473.585 215.562 474.307C215.032 474.722 214.777 474.684 214.777 474.189C214.777 473.787 217.179 471.023 220.115 468.047L225.453 462.636V459.068C225.453 450.298 229.738 439.978 236.296 432.957C241.232 427.671 245.745 424.652 255.8 419.909C268.578 413.882 278.697 406.349 286.431 397.107C291.923 390.544 294.219 387.11 298.123 379.626C299.925 376.172 301.408 373.628 301.419 373.973C301.452 375.035 296.112 388.145 293.616 393.127C287.386 405.563 278.126 416.245 267.843 422.857C251.046 433.658 246.747 436.674 242.969 440.313C238.02 445.078 234.801 449.92 232.974 455.344C231.326 460.236 231.553 463.804 233.931 470.371C235.166 473.783 235.729 476.769 235.974 481.204C236.163 484.644 236.065 487.325 235.749 487.323C235.44 487.32 234.528 486.165 233.724 484.756C231.9 481.563 231.417 481.878 232.674 485.441C233.199 486.928 233.808 489.728 234.028 491.662L234.428 495.177L231.888 492.351L229.349 489.525L229.676 492.469C229.856 494.088 229.804 497.008 229.56 498.957C229.13 502.401 229.084 502.47 227.913 501.411C226.744 500.353 226.709 500.398 226.709 502.955C226.709 505.637 225.035 509.714 223.365 511.1C222.857 511.521 221.365 514.328 220.049 517.338C218.073 521.854 217.651 523.55 217.629 527.048C217.612 529.38 217.548 531.287 217.482 531.287C217.416 531.287 216.096 529.643 214.55 527.633ZM254.197 503.813C249.528 498.502 245.54 482.384 245.558 468.897C245.57 460.533 246.668 455.367 249.641 449.713C254.22 441.005 259.231 436.192 280.283 420.286C296.027 408.391 304.503 399.794 309.594 390.558C312.298 385.653 311.916 387.915 309.022 393.95C304.238 403.927 297.471 412.039 283.915 424.045C279.22 428.204 271.954 434.949 267.768 439.035C260.299 446.325 260.181 446.484 261.398 447.584C263.164 449.181 264.97 452.966 265.615 456.418C265.92 458.047 266.058 459.492 265.923 459.627C265.788 459.762 264.515 458.821 263.093 457.537C259.994 454.738 259.164 455.037 261.507 458.109C263.801 461.117 265.017 464.211 265.017 467.044V469.408L263.391 467.015C261.406 464.095 261.018 464.275 262.191 467.57C263.176 470.336 263.338 472.246 262.722 473.851C262.352 474.815 262.212 474.79 261.309 473.593C260.346 472.317 260.305 472.385 260.262 475.329C260.224 478.003 259.804 478.951 256.965 482.78L253.713 487.168V492.763C253.713 495.84 254.095 499.833 254.563 501.635C255.03 503.437 255.356 504.912 255.288 504.912C255.219 504.912 254.729 504.418 254.197 503.813ZM297.439 500.857C293.125 490.082 292.42 477.95 295.737 471.586C297.19 468.798 296.873 468.468 294.701 470.509L293.218 471.902L293.59 469.096C294.322 463.582 295.959 458.394 297.743 455.93C299.886 452.971 299.988 452.513 298.3 453.416C296.441 454.411 296.755 453.408 299.556 449.41C302.369 445.395 302.475 445.135 301.089 445.667C299.814 446.156 304.626 438.006 310.347 429.983C324.257 410.479 327.648 402.953 330.065 386.22C330.782 381.258 331.004 376.836 330.775 372.09C330.553 367.486 330.617 366.125 330.967 368.008C331.687 371.888 331.714 387.873 331.005 391.629C330.687 393.317 330.244 395.931 330.022 397.438C328.695 406.418 323.43 418.903 315.156 432.692C307.7 445.118 305.329 449.84 301.125 460.638C300.856 461.329 300.567 462.318 300.481 462.836C300.396 463.354 299.831 466.604 299.225 470.058C297.927 477.459 297.692 494.286 298.8 500.479C299.198 502.704 299.424 504.624 299.303 504.745C299.181 504.867 298.344 503.117 297.439 500.857ZM313.66 432.735C313.859 432.414 313.781 432.002 313.488 431.821C313.194 431.64 312.954 431.903 312.954 432.406C312.954 433.465 313.152 433.557 313.66 432.735ZM350.024 494.242C349.285 493.945 345.046 492.947 340.604 492.027C330.991 490.035 326.045 487.986 323.172 484.805C313.829 474.464 313.376 458.998 321.837 439.271C330.959 418.004 333.722 410.25 336.069 399.332C337.216 393.993 337.465 390.882 337.445 382.138C337.424 372.739 337.229 370.742 335.821 365.44C334.94 362.128 333.481 357.96 332.578 356.177C331.675 354.395 331.077 352.936 331.251 352.936C332.077 352.936 335.654 361.328 337.12 366.703C338.645 372.299 338.761 373.66 338.783 386.22C338.804 398.011 338.615 400.697 337.291 407.415C336.457 411.646 335.609 415.109 335.407 415.109C335.204 415.11 334.976 416.002 334.899 417.093C334.822 418.183 334.359 420.372 333.869 421.958C333.379 423.544 332.495 426.538 331.905 428.61C331.314 430.682 329.877 435.487 328.711 439.286C324.767 452.139 323.249 459.572 323.58 464.406C323.969 470.076 324.894 472.033 327.421 472.535C328.502 472.751 330.517 473.472 331.899 474.14L334.411 475.353L331.271 475.415C327.673 475.485 328.764 476.202 333.538 476.905C335.13 477.139 337.375 478.026 338.527 478.876C340.544 480.363 340.564 480.421 339.086 480.429C336.899 480.441 334.725 481.1 334.725 481.749C334.725 482.055 335.239 482.304 335.869 482.304C337.978 482.304 342.75 484.25 343.924 485.588C344.867 486.663 344.898 486.845 344.088 486.551C343.538 486.352 342.723 486.414 342.277 486.69C341.729 487.028 342.137 487.339 343.531 487.645C344.821 487.929 346.858 489.37 348.953 491.482C352.338 494.894 352.468 495.229 350.024 494.242ZM441.171 493.333C434.202 491.522 429.692 489.548 423.764 485.713C417.413 481.605 411.336 476.502 405.017 469.969C391.211 455.696 387.803 446.915 384.946 418.248C381.7 385.682 377.786 371.35 368.193 356.907C366.857 354.896 365.54 352.826 365.266 352.308C364.283 350.448 370.675 357.713 372.726 360.786C375.604 365.098 379.396 373.165 379.013 374.162C378.84 374.613 378.927 374.84 379.207 374.667C379.895 374.242 382.136 381.388 383.716 389.046C384.428 392.5 385.996 402.183 387.2 410.564C390.375 432.674 392.907 442.472 398.007 452.393C401.526 459.24 406.921 465.097 409.043 464.376C409.789 464.123 412.017 463.789 413.996 463.635C418.446 463.287 422.621 464.582 426.809 467.609C429.779 469.755 429.812 469.814 427.983 469.686C424.323 469.431 421.389 469.752 421.389 470.409C421.389 470.775 421.645 470.916 421.958 470.722C422.814 470.193 429.747 472.51 432.984 474.408C434.551 475.326 435.833 476.136 435.833 476.207C435.833 476.279 434.42 476.241 432.693 476.12C428.98 475.863 428.375 477.022 431.908 477.625C436.332 478.38 438.266 479.388 440.56 482.133L442.854 484.877L440.285 484.567C437.34 484.212 436.784 485.139 439.574 485.752C442.013 486.288 445.765 488.124 450.143 490.924C452.093 492.172 454.829 493.55 456.222 493.986C458.655 494.749 458.52 494.78 452.789 494.791C448.534 494.799 445.202 494.381 441.171 493.333ZM474.554 490.75C458.672 487.788 445.132 479.992 437.092 469.18C434.557 465.77 433.431 464.763 431.817 464.46C428.396 463.818 420.054 459.449 415.941 456.145C410.982 452.161 407.218 447.955 403.662 442.426C398.829 434.911 396.064 428.203 400.457 434.652C406.379 443.343 418.906 454.633 427.47 458.997C429.99 460.281 433.48 459.838 435.205 458.014C437.662 455.416 441.858 453.865 447.304 453.542C451.794 453.276 452.495 453.408 456.141 455.203C458.32 456.276 460.611 457.716 461.233 458.403C462.348 459.635 462.333 459.644 460.25 459.047C457.49 458.255 453.417 458.268 453.417 459.068C453.417 459.413 453.855 459.696 454.392 459.696C457.165 459.696 464.351 461.862 465.848 463.15L467.54 464.605L465.181 465.047C461.986 465.647 461.737 466.375 464.547 466.903C468.138 467.576 472.885 470.299 472.885 471.685C472.885 471.955 471.966 472.265 470.844 472.373L468.803 472.569L472.257 474.371C474.375 475.477 477.355 477.949 479.962 480.765C484.874 486.069 487.426 487.819 491.212 488.479L493.923 488.951L492.068 490.18C489.666 491.772 481.466 492.039 474.554 490.75ZM287.221 489.055C285.939 487.932 283.81 485.345 282.489 483.306C280.403 480.083 280.082 479.096 280.039 475.77C280.014 473.664 279.847 472.295 279.673 472.727C278.957 474.501 278.28 473.281 277.873 469.486C277.403 465.096 278.123 461.896 280.27 458.839L281.533 457.04L280.183 457.468C278.563 457.982 278.559 457.927 279.86 453.291C280.799 449.945 283.745 445.88 285.232 445.88C285.511 445.88 285.74 445.578 285.74 445.21C285.74 444.825 285.205 444.709 284.484 444.938C282.755 445.487 282.9 444.798 285.277 441.163C286.645 439.072 288.368 437.461 290.458 436.318C293.36 434.731 293.305 434.138 290.294 434.529C289.862 434.585 289.509 434.452 289.509 434.232C289.509 433.407 293.808 428.938 300.064 423.262C307.92 416.134 311.788 411.132 315.839 402.862C321.88 390.531 323.98 380.599 324.137 363.612C324.21 355.76 324.346 354.163 324.701 357.018C324.958 359.09 325.199 366.336 325.236 373.12C325.367 396.719 322.283 405.314 306.641 424.942C302.987 429.527 299.761 433.132 299.47 432.953C299.181 432.773 299.1 433.036 299.292 433.536C299.484 434.036 299.095 434.828 298.427 435.296C297.759 435.763 297.178 436.429 297.134 436.774C297.09 437.119 296.609 437.923 296.063 438.56C290.881 444.612 285.74 460.767 285.74 471C285.74 475.87 287.326 484.644 288.848 488.195C289.532 489.791 289.97 491.096 289.822 491.096C289.674 491.096 288.503 490.178 287.221 489.055ZM354.334 486.616C346.646 479.604 341.39 473.488 338.878 468.627L337.813 466.567L339.566 466.958C340.53 467.173 341.884 467.469 342.575 467.617C343.999 467.921 344.326 468.186 338.606 464.406C336.277 462.867 335.548 461.904 334.623 459.145C334 457.287 333.323 454.32 333.117 452.551L332.744 449.334L336.839 453.73L340.935 458.126L339.969 454.986C339.438 453.259 338.866 448.596 338.698 444.624C338.378 437.061 338.833 433.083 342.004 415.736C343.405 408.076 343.682 404.685 343.75 394.384C343.803 386.353 343.533 380.517 342.967 377.428C341.408 368.931 338.469 359.663 335.318 353.311C333.615 349.877 332.304 346.984 332.405 346.883C332.686 346.601 340.115 357.941 341.513 360.786C342.955 363.72 345.076 370.379 346.415 376.172C348.43 384.891 348.218 408.53 345.952 427.668C345.103 434.838 345.135 450.808 346.01 456.242C347.403 464.899 350.652 475.555 353.502 480.817C354.556 482.764 355.268 484.601 355.083 484.9C354.898 485.199 354.996 485.444 355.3 485.444C355.605 485.444 356.594 486.574 357.498 487.956C358.403 489.338 359.011 490.468 358.85 490.468C358.689 490.468 356.657 488.735 354.334 486.616ZM380.508 438.278C377.001 434.48 373.283 426.826 371.48 419.693C370.607 416.239 368.92 407.223 367.732 399.659C362.973 369.353 359.237 357.955 351.134 349.018C350.276 348.071 349.745 347.126 349.954 346.917C350.163 346.708 351.697 348.281 353.362 350.411C357.16 355.268 362.99 364.654 362.509 365.135C362.31 365.333 362.439 365.496 362.796 365.496C363.714 365.496 366.891 372.863 369.161 380.254C371.241 387.03 372.593 393.218 373.619 400.664C375.655 415.44 376.949 422.773 378.466 428.131C378.978 429.94 379.193 431.75 378.944 432.153C378.683 432.575 378.762 432.719 379.13 432.492C379.489 432.27 380.615 434.014 381.703 436.477C382.767 438.885 383.469 440.856 383.263 440.856C383.057 440.856 381.817 439.696 380.508 438.278ZM373.462 414.362C373.261 413.861 373.112 414.01 373.082 414.742C373.057 415.404 373.203 415.775 373.412 415.566C373.621 415.357 373.643 414.816 373.462 414.362ZM372.84 410.881C372.681 410.27 372.54 410.618 372.527 411.654C372.515 412.69 372.645 413.19 372.817 412.765C372.989 412.34 372.997 411.492 372.84 410.881ZM372.193 407.415C372.018 406.983 371.876 407.336 371.876 408.2C371.876 409.064 372.018 409.417 372.193 408.985C372.367 408.553 372.367 407.847 372.193 407.415ZM371.578 401.174C371.377 400.673 371.228 400.822 371.198 401.554C371.173 402.216 371.319 402.587 371.528 402.378C371.737 402.169 371.759 401.628 371.578 401.174ZM370.95 395.522C370.749 395.021 370.6 395.17 370.57 395.902C370.545 396.564 370.691 396.935 370.9 396.726C371.109 396.517 371.131 395.976 370.95 395.522ZM368.438 381.078C368.237 380.577 368.088 380.726 368.058 381.458C368.033 382.12 368.179 382.491 368.388 382.282C368.597 382.073 368.619 381.532 368.438 381.078ZM299.807 391.023C304.978 385.727 308.899 379.002 312.861 368.636C313.191 367.773 313.477 366.925 313.497 366.752C313.518 366.579 313.979 365.025 314.523 363.298C316.094 358.315 315.891 344.865 314.177 340.272C313.446 338.315 313.037 336.503 313.267 336.246C313.498 335.989 313.333 335.982 312.901 336.229C312.47 336.478 312.116 336.436 312.116 336.136C312.116 335.836 311.711 335.042 311.217 334.372C310.417 333.289 310.357 333.693 310.677 337.994C310.903 341.025 310.748 343.871 310.263 345.603C309.515 348.275 304.186 355.89 303.526 355.23C303.348 355.052 303.785 353.347 304.498 351.443C309.458 338.185 308.51 324.587 302.132 317.528C298.598 313.616 303.059 317.072 307.431 321.634C315 329.531 318.237 336.124 319.641 346.503C321.074 357.1 318.52 367.803 311.89 378.984C309.091 383.704 302.578 390.681 298.783 393.024C296.582 394.383 296.645 394.262 299.807 391.023ZM244.442 382.293C240.918 378.531 241.404 374.724 246.038 369.77C249.176 366.415 248.966 365.628 245.761 368.734C244.134 370.312 243.536 370.567 242.832 369.983C241.524 368.897 240.239 370.757 240.239 373.736C240.239 376.097 240.206 376.133 239.082 375.008C238.329 374.255 237.885 372.811 237.812 370.875C237.716 368.343 237.953 367.681 239.404 366.433C240.388 365.586 242.645 364.674 244.742 364.275C250.607 363.16 253.132 362.341 255.534 360.777C256.778 359.967 259.394 359.016 261.349 358.664C265.838 357.855 270.953 355.707 277.872 351.726L283.302 348.602L285.131 350.612C287.396 353.101 287.477 354.192 285.396 354.192C281.928 354.192 278.244 357.405 279.114 359.671C279.433 360.503 280.308 360.592 284.768 360.249C289.937 359.852 290.072 359.878 291.347 361.499C292.908 363.483 293.067 367.25 291.664 368.987C290.718 370.158 290.693 370.141 291.029 368.555C291.266 367.434 290.963 366.375 290.084 365.258C288.452 363.183 287.625 363.165 287.625 365.202C287.625 367.421 286.165 367.76 281.732 366.573C278.722 365.766 277.726 365.712 276.967 366.315C276.439 366.734 275.018 367.58 273.809 368.195C272.59 368.814 270.703 370.695 269.573 372.415C267.33 375.833 265.279 376.78 262.683 375.597L261.069 374.861L261.416 378.687C261.717 382.01 261.641 382.411 260.836 381.743C259.338 380.499 258.108 377.646 258.111 375.418C258.115 371.995 260.168 369.425 264.348 367.612C268.987 365.6 269.77 364.24 266.29 364.24C264.939 364.24 263.677 364.495 263.485 364.805C263.293 365.116 261.652 365.716 259.837 366.139C255.739 367.094 254.031 368.609 252.77 372.404C251.527 376.149 249.318 378.323 247.172 377.913C245.293 377.554 244.959 378.254 245.617 381.179C246.231 383.909 246.085 384.047 244.442 382.293ZM417.621 364.395C417.621 364.005 417.903 363.512 418.249 363.298C418.594 363.085 418.877 361.938 418.877 360.749C418.877 358.717 418.751 358.588 416.776 358.588C414.175 358.588 413.078 357.422 411.365 352.836C409.769 348.565 409.06 347.91 405.259 347.2C403.648 346.899 401.863 346.23 401.291 345.713C400 344.544 395.427 344.415 395.777 345.557C395.909 345.989 397.699 347.209 399.754 348.268C403.713 350.308 406.317 353.326 406.317 355.875C406.317 357.883 404.883 361.202 403.531 362.323C402.506 363.173 402.463 363.043 402.87 360.327C403.413 356.708 403.003 355.935 400.954 356.714C398.7 357.57 396.591 356.371 394.411 352.993C393.096 350.956 391.522 349.577 389.044 348.292C385.863 346.642 385.316 346.54 383.138 347.193C379.712 348.219 377.009 348.104 376.552 346.913C376.341 346.364 376.327 345.658 376.522 345.343C377.207 344.235 375.097 344.788 373.995 346.006C373.302 346.772 372.993 347.837 373.179 348.813C373.551 350.758 372.547 350.25 371.72 348.075C370.941 346.027 372.045 342.498 373.748 341.586C374.431 341.22 377.224 340.997 379.955 341.09C382.685 341.184 385.109 341.069 385.341 340.838C385.573 340.606 385.417 339.584 384.996 338.566C384.44 337.224 383.299 336.313 380.84 335.249C378.976 334.442 377.446 333.582 377.44 333.337C377.436 333.091 379.293 332.315 381.571 331.612L385.712 330.332L388.193 332.456C391.465 335.257 397.601 338.492 399.64 338.492C400.534 338.492 403.321 337.542 405.832 336.38C411.539 333.74 413.342 333.305 415.379 334.08C417.422 334.856 419.511 338.236 419.466 340.69C419.437 342.406 419.364 342.467 418.683 341.373C416.415 337.733 413.97 336.846 412.903 339.277C412.488 340.225 411.576 340.794 410.137 341.004L407.991 341.318L409.756 342.257C412.409 343.669 420.119 352.247 421.521 355.346C422.543 357.606 422.628 358.368 422.025 359.825C421.216 361.778 417.621 365.508 417.621 364.395ZM329.8 362.984C329.8 362.12 329.942 361.767 330.117 362.199C330.291 362.631 330.291 363.337 330.117 363.769C329.942 364.201 329.8 363.848 329.8 362.984ZM291.034 354.397C291.224 353.9 290.959 352.486 290.444 351.254C289.93 350.022 289.504 348.555 289.499 347.992C289.478 345.89 288.587 345.274 286.766 346.104C284.746 347.025 283.159 346.056 284.345 344.627C284.737 344.154 285.037 341.119 285.046 337.535C285.054 333.191 285.469 329.731 286.391 326.25C287.123 323.488 287.804 321.147 287.904 321.048C288.004 320.948 288.272 322.277 288.501 324.001C288.966 327.507 290.137 328.942 290.137 326.006C290.137 324.97 290.419 323.948 290.765 323.734C291.11 323.521 291.393 323.792 291.393 324.337C291.393 324.883 292.038 326.383 292.828 327.672C294.983 331.188 295.786 333.31 295.809 335.539C295.83 337.443 295.878 337.485 296.751 336.331C297.258 335.661 297.673 334.544 297.673 333.85C297.673 331.81 298.711 333.428 300.135 337.687C301.593 342.047 301.835 348.051 300.646 350.363C299.494 352.605 297.102 354.115 293.709 354.742C291.186 355.208 290.744 355.151 291.034 354.397ZM330.055 351.236C329.714 350.341 329.786 350.269 330.407 350.884C330.836 351.31 331.029 351.817 330.835 352.01C330.642 352.204 330.291 351.856 330.055 351.236ZM347.285 341.691C347.285 341.378 346.711 341.272 346.01 341.455C342.578 342.352 330.836 338.705 323.828 334.565L319.339 331.912L323.107 331.535C325.179 331.328 327.525 330.948 328.32 330.691C329.43 330.331 330.67 330.81 333.658 332.75C340.208 337.002 346.537 339.367 355.763 341.01L362.043 342.129L354.664 342.194C350.605 342.232 347.285 342.004 347.285 341.691ZM302.503 335.384C301.984 331.001 299.207 325.523 295.754 322.069C292.288 318.603 286.276 315.391 282.212 314.834C277.532 314.193 280.661 313.171 286.304 313.498C294.278 313.959 300.323 317.54 303.443 323.65C305.256 327.201 305.711 333.814 304.327 336.492C303.758 337.592 303.198 338.492 303.082 338.492C302.966 338.492 302.706 337.093 302.503 335.384ZM354.896 337.156C351.317 336.562 345.705 333.842 342.575 331.184L340.691 329.585L343.203 330.029C344.584 330.274 347.128 330.664 348.855 330.896C351.781 331.289 351.869 331.351 350.156 331.805L348.318 332.292L350.156 333.505C351.167 334.171 353.408 335.177 355.135 335.74C356.862 336.302 358.543 337.01 358.871 337.313C359.549 337.939 359.63 337.942 354.896 337.156ZM228.158 329.958C225.883 325.676 224.767 320.494 225.459 317.424C226.115 314.516 228.58 310.452 231.985 306.665C234.465 303.907 235.302 303.404 238.579 302.709C242.872 301.798 244.809 302.117 247.116 304.114L248.744 305.522L246.893 308.431C245.442 310.712 244.183 311.746 241.056 313.224C233.976 316.572 231.882 319.612 230.828 328.074L230.131 333.67L228.158 329.958ZM241.247 330.956C240.367 328.431 239.625 317.768 240.417 319.024C240.744 319.542 241.209 321.166 241.451 322.632C241.692 324.098 242.13 325.446 242.424 325.628C243.31 326.175 246.916 320.345 248.156 316.361C248.794 314.31 249.317 311.301 249.317 309.674V306.716L251.443 306.965C252.613 307.101 254.167 306.893 254.897 306.502C256.588 305.597 256.618 306.338 255.026 309.634C253.755 312.264 253.927 312.481 256.504 311.501C258.111 310.89 258.114 310.895 257.091 312.458C256.524 313.322 255.603 314.3 255.044 314.631C254.271 315.088 254.213 315.357 254.803 315.747C255.352 316.111 254.794 316.919 252.891 318.508C251.412 319.744 249.461 322.183 248.556 323.928C246.77 327.371 242.973 332.776 242.313 332.816C242.088 332.828 241.608 331.992 241.247 330.956ZM365.251 329.642C363.217 328.942 360.537 327.68 359.297 326.837L357.041 325.304H360.218C363.362 325.304 363.392 325.283 363.129 323.494C362.798 321.236 363.771 320.573 365.636 321.786C366.423 322.298 368.505 322.906 370.264 323.136L373.461 323.555L373.178 320.137C372.984 317.803 373.203 316.122 373.864 314.842C374.943 312.755 376.801 310.952 376.801 311.991C376.801 312.352 377.517 313.499 378.393 314.54C379.575 315.945 380.908 316.631 383.574 317.204C387.209 317.987 391.502 319.8 392.132 320.82C392.321 321.127 391.081 321.563 389.374 321.789C385.262 322.335 384.912 323.167 388.587 323.658C390.355 323.894 392.703 324.835 394.385 325.981L397.211 327.908L395.013 327.445C391.289 326.66 388.929 327.029 380.525 329.714C375.558 331.301 369.999 331.274 365.251 329.642ZM331.899 326.529C327.805 325.894 312.565 321.507 312.987 321.085C313.129 320.942 314.334 321.114 315.664 321.467C324.353 323.771 336.563 323.494 345.315 320.793C354.001 318.113 358.915 314.946 371.172 304.129C378.072 298.04 383.211 295.18 391.292 292.932C401.624 290.058 407.159 288.152 410.713 286.247L414.167 284.395L411.027 287.303C408.762 289.401 404.486 291.888 395.685 296.226L383.483 302.241L375.579 310.004C366.903 318.524 364.716 320.209 358.986 322.786C351.341 326.223 340.019 327.788 331.899 326.529ZM242.823 319.229C242.184 318.59 242.333 314 242.992 314C243.312 314 243.957 313.647 244.424 313.215C247.368 310.494 248.061 310.057 248.06 310.92C248.06 312.194 243.315 319.721 242.823 319.229ZM323.735 314.845C319.766 314.231 307.363 311.338 306.465 310.817C305.839 310.453 306.595 310.264 308.719 310.251C313.335 310.222 320.922 308.112 326.009 305.438C331.004 302.814 338.784 295.876 341.431 291.687C342.405 290.144 343.376 288.882 343.588 288.881C343.8 288.881 343.717 290.364 343.404 292.177C342.62 296.716 339.503 302.903 336.332 306.212C334.876 307.732 334.068 308.976 334.538 308.976C336.454 308.976 339.826 307.007 346.097 302.226C356.072 294.622 356.669 294.385 367.067 293.928C371.902 293.715 375.96 293.606 376.085 293.687C376.209 293.767 375.028 294.436 373.46 295.173C371.891 295.91 367.746 298.964 364.247 301.959C352.038 312.412 346.66 314.709 333.783 314.97C329.292 315.062 324.771 315.004 323.735 314.845ZM260.621 313.468C260.621 313.175 262.27 311.362 264.286 309.439C267.283 306.581 270.084 304.901 279.642 300.232C289.094 295.615 292.08 293.831 295.235 290.916C298.959 287.474 299.116 287.396 298.682 289.194C297.757 293.025 295.45 296.778 291.737 300.491L287.925 304.303L294.212 303.193C308.66 300.642 311.999 298.419 321.198 285.227C325.119 279.604 329.331 275.013 332.833 272.542L335.024 270.998L333.07 273.502C330.814 276.393 330.277 277.378 325.943 286.568C323.756 291.206 321.853 294.248 319.946 296.155C317.32 298.781 317.256 298.925 318.874 298.549C321.771 297.875 326.149 295.801 327.75 294.344L329.269 292.962L328.072 295.059C323.321 303.378 310.734 308.334 294.293 308.358C279.971 308.379 269.569 309.866 263.613 312.744C260.642 314.179 260.621 314.184 260.621 313.468ZM262.015 305.114C262.802 303.68 265.211 300.681 267.366 298.449L271.286 294.391L268.308 294.835C266.671 295.08 264.363 295.683 263.18 296.176C261.072 297.054 261.051 297.048 262.126 295.86C264.476 293.262 272.794 289.969 283.835 287.264C289.882 285.783 294.926 284.668 295.045 284.787C295.756 285.498 287.162 291.269 272.975 299.605C269.235 301.803 265.092 304.528 263.769 305.66C262.446 306.793 261.187 307.72 260.973 307.72C260.759 307.72 261.227 306.547 262.015 305.114ZM231.755 299.897C231.149 299.167 231.341 298.124 232.708 294.717C233.65 292.37 235.197 288.189 236.147 285.426C240.777 271.951 241.998 270.45 264.075 251.085C274.876 241.611 281.701 233.485 285.604 225.452L287.893 220.742L288.349 223.254C288.601 224.636 288.65 226.684 288.459 227.807C288.022 230.384 288.606 230.375 292.423 227.747C297.539 224.226 304.061 213.862 312.049 196.564C313.613 193.176 312.152 203.548 310.313 208.882C306.431 220.147 300.303 228.155 284.149 243.074C278.001 248.752 271.252 255.02 269.151 257.002L265.331 260.605L268.157 260.247C269.711 260.049 272.586 259.122 274.546 258.187C277.448 256.801 278 256.688 277.525 257.577C276.633 259.243 270.288 263.912 264.693 267.018C252.265 273.92 249.472 276.797 242.255 290.136C238.08 297.853 235.793 300.812 234.004 300.812C233.185 300.812 232.173 300.401 231.755 299.897ZM251.396 300.398C252.275 298.931 251.13 297.554 249.393 297.989C247.996 298.34 248.261 297.895 251.206 294.945C253.103 293.045 254.747 291.745 254.86 292.057C255.252 293.138 253.091 299.397 252.028 300.259C251.441 300.736 251.156 300.798 251.396 300.398ZM241.812 294.689C248.818 281.852 256.07 274.12 267.239 267.579C279.549 260.37 283.802 257.384 287.705 253.212C290.407 250.324 291.41 249.558 291.093 250.626C288.376 259.787 282.341 265.837 266.716 275.064L255.548 281.658L258.372 281.998C262.091 282.446 262.461 282.953 259.903 284.099C257.216 285.303 256.106 286.318 251.588 291.706C247.302 296.817 243.609 299.556 241.001 299.556H239.155L241.812 294.689ZM264.703 288.497C268.005 285.544 278.812 280.356 290.137 276.286C313.668 267.83 321.486 261.055 327.338 244.047L329.738 237.07L329.331 241.78C328.611 250.107 324.942 259.297 320.165 264.738C319.121 265.927 318.523 266.9 318.837 266.9C319.738 266.9 325.323 263.219 328.698 260.401C332.62 257.126 331.68 259.089 326.805 264.354C319.917 271.794 311.47 275.852 293.591 280.311C276.561 284.557 273.768 285.408 267.737 288.188L262.191 290.744L264.703 288.497ZM350.425 289.551C350.425 288.837 353.511 284.87 354.995 283.677C356.866 282.173 361.17 279.952 366.079 277.958L370.113 276.318L368.596 278.046C367.762 278.997 366.688 280.113 366.211 280.528C365.497 281.147 365.663 281.368 367.146 281.767C369.595 282.425 388.432 282.416 391.559 281.754L394.071 281.223L390.739 283.521C385.032 287.458 383.735 287.695 368.959 287.491C356.561 287.321 355.601 287.39 353.094 288.644C351.626 289.378 350.425 289.786 350.425 289.551ZM331.585 285.173C331.585 284.879 332.013 284.282 332.537 283.847C333.061 283.412 335.464 279.875 337.877 275.987C343.176 267.446 346.782 263.313 350.834 261.133C354.961 258.914 357.622 258.565 371.149 258.471C380.149 258.409 383.333 258.165 385.279 257.392C386.66 256.843 388.356 256.171 389.047 255.9C390.891 255.177 386.374 259.855 384.059 261.066C380.89 262.725 378.656 263.173 369.031 264.085C363.895 264.571 358.667 265.303 357.413 265.711C354.365 266.704 350.245 269.577 348.879 271.66L347.771 273.352L349.909 271.721C351.085 270.824 353.731 269.302 355.789 268.338C359.087 266.794 360.237 266.59 365.497 266.622C369.59 266.647 372.153 266.975 373.661 267.67L375.859 268.682L373.932 268.733C370.827 268.815 366.07 270.464 362.357 272.745C352.54 278.775 350.434 279.973 346.929 281.517C341.592 283.867 331.585 286.252 331.585 285.173ZM234.879 279.303C234.905 276.212 239.29 266.157 243.062 260.534C247.235 254.313 250.548 250.556 263.471 237.384C279.281 221.27 284.181 214.959 287.364 206.612C288.837 202.749 289.53 202.151 289.123 205.096C287.98 213.355 283.61 222.125 275.85 231.733C271.135 237.571 270.588 238.64 272.316 238.64C273.87 238.64 272.726 239.765 264.159 246.662C248.881 258.961 238.803 270.05 236.345 277.264C235.387 280.075 234.866 280.799 234.879 279.303ZM400.665 277.2C399.801 277.042 396.45 276.458 393.217 275.902C389.984 275.346 386.171 274.546 384.742 274.124L382.144 273.357L387.846 272.018C390.982 271.282 398.47 270.099 404.485 269.388C422.513 267.26 430.642 264.998 437.205 260.283C440.689 257.78 440.764 257.891 438.073 261.562C433.847 267.325 425.159 273.362 417.745 275.686C413.897 276.893 403.855 277.783 400.665 277.2ZM203.473 274.51C201.573 273.897 199.171 272.952 198.135 272.409C195.094 270.817 188.445 265.269 183.377 260.092C175.823 252.378 170.368 247.56 167.025 245.651C165.312 244.672 164.051 243.731 164.223 243.559C164.396 243.386 164.181 243.219 163.752 243.186C163.32 243.152 161.695 242.677 160.141 242.128L157.315 241.129L162.967 241.418C171.5 241.855 176.896 243.997 185.967 250.548C194.377 256.622 196.975 257.647 204.729 257.948C211.229 258.2 213.93 257.745 224.814 254.572C225.982 254.231 225.516 254.879 222.956 257.152C217.41 262.078 212.322 265.58 209.677 266.293C208.316 266.659 207.347 267.192 207.523 267.476C208.04 268.314 215.354 272.516 217.024 272.935C219.54 273.566 219.324 274.249 216.375 274.992C212.418 275.988 207.482 275.804 203.473 274.51ZM299.243 266.192C303.609 262.541 307.103 258.58 310.527 253.398C314.849 246.856 316.197 244.115 321.863 230.343C330.141 210.221 334.57 202.532 342.343 194.785L346.334 190.808L346.815 192.901C347.435 195.602 346.781 202.557 345.652 205.276C345.168 206.44 344.773 207.478 344.773 207.581C344.773 207.685 347.104 206.834 349.954 205.69C356.204 203.181 363.801 201.424 367.135 201.715L369.579 201.929L365.944 205.495C362.061 209.305 355.802 212.831 350.521 214.184L347.348 214.997L350.299 217.835L353.251 220.674L348.644 221.119C338.535 222.097 331.888 227.518 321.352 243.376C313.004 255.941 306.778 262.464 298.615 267.199C297.167 268.038 297.313 267.805 299.243 266.192ZM390.931 266.459C393.399 265.879 404.77 262.409 406.003 261.859C406.693 261.551 409.644 260.399 412.559 259.298C418.245 257.151 422.017 255.166 422.017 254.321C422.017 253.341 412.3 251.613 406.51 251.564C403.335 251.538 400.949 251.3 401.208 251.038C402.84 249.39 409.688 247.933 418.398 247.382C423.545 247.056 429.078 246.501 430.695 246.149C445.344 242.955 460.316 233.86 468.271 223.323C473 217.059 470.06 224.288 464.851 231.732C461.251 236.878 457.444 241.029 451.847 245.912C447.631 249.591 439.129 254.897 435.833 255.907C434.969 256.172 433.132 256.897 431.751 257.519C425.276 260.436 412.546 263.646 399.409 265.674C392.248 266.78 387.82 267.19 390.931 266.459ZM299.461 259.364C300.781 256.774 303.48 249.649 305.46 243.531C309.502 231.041 312.289 225.806 320.257 215.733C322.834 212.475 325.002 209.869 325.075 209.941C325.147 210.013 324.227 212.103 323.029 214.585C321.832 217.067 319.306 223.654 317.416 229.222C312.345 244.162 308.145 251.814 300.185 260.62L297.063 264.074L299.461 259.364ZM337.586 261.306C337.393 260.993 337.496 260.074 337.817 259.265C338.346 257.929 338.389 257.981 338.289 259.834C338.169 262.048 338.115 262.161 337.586 261.306ZM339.801 261.07C339.945 260.972 340.628 260.478 341.319 259.971C342.48 259.119 342.51 259.132 341.713 260.149C341.239 260.754 340.556 261.248 340.195 261.248C339.835 261.248 339.657 261.168 339.801 261.07ZM342.261 251.309C342.779 250.99 346.453 249.381 350.425 247.734C357.36 244.858 359.633 243.664 358.172 243.664C357.351 243.664 353.871 238.752 354.351 238.272C354.541 238.082 357.621 237.66 361.196 237.333C375.472 236.028 385.612 232.917 401.996 224.817C405.408 223.13 408.201 221.996 408.201 222.298C408.201 223.176 399.403 231.471 394.978 234.765C388.554 239.549 383.939 242.193 376.637 245.275C366.396 249.598 359.198 251.277 349.483 251.611C344.334 251.787 341.667 251.676 342.261 251.309ZM297.801 249.973C298.222 249.298 298.655 248.833 298.763 248.941C299.135 249.313 298.164 251.2 297.6 251.2C297.289 251.2 297.379 250.648 297.801 249.973ZM383.822 248.185C383.256 247.798 383.997 247.498 386.149 247.244C390.743 246.699 395.574 244.071 401.783 238.738C410.821 230.974 417.446 227.336 422.549 227.336C423.877 227.336 423.585 227.703 420.583 229.806C418.644 231.164 414.005 234.849 410.274 237.996C401.364 245.509 396.08 248.184 389.498 248.511C386.832 248.643 384.278 248.498 383.822 248.185ZM197.821 247.38C194.55 246.854 189.862 245.357 186.052 243.621C184.588 242.954 183.21 242.408 182.989 242.408C182.768 242.408 179.685 240.586 176.137 238.359C167.258 232.785 160.692 229.848 157.11 229.848C155.817 229.848 155.65 229.691 156.278 229.063C156.826 228.516 159.481 228.282 165.039 228.291C172.449 228.304 173.349 228.439 177.725 230.208C180.315 231.255 185.543 234.066 189.343 236.454C198.76 242.375 204.504 245.267 208.717 246.21C210.668 246.647 212.265 247.256 212.265 247.563C212.265 248.198 202.105 248.069 197.821 247.38ZM295.789 243.036C295.789 242.691 296.229 242.408 296.768 242.408C297.306 242.408 297.572 242.691 297.359 243.036C297.145 243.381 296.705 243.664 296.38 243.664C296.055 243.664 295.789 243.381 295.789 243.036ZM420.51 241.411C426.293 238.356 432.383 233.192 441.173 223.887C446.18 218.586 451.558 213.543 453.671 212.167C455.711 210.839 457.042 209.752 456.629 209.752C455.241 209.752 451.179 212.141 445.853 216.09C437.329 222.41 435.269 223.271 428.947 223.157C425.587 223.097 422.063 222.587 419.505 221.792L415.423 220.524L418.877 220.465C420.776 220.432 424.241 220.002 426.576 219.507C435.908 217.529 439.523 215.594 455.301 204.13C463.63 198.077 470.15 194.849 485.11 189.369C496.242 185.291 503.241 182.056 508.053 178.766C511.964 176.092 516.597 171.679 518.177 169.123C518.904 167.945 519.627 167.11 519.783 167.266C520.218 167.7 516.181 174.584 515.492 174.584C515.159 174.584 515.03 174.816 515.205 175.1C515.687 175.88 508.534 183.531 503.448 187.676C498.238 191.921 496.509 193.044 484.188 200.195C468.811 209.119 470.292 207.99 448.011 227.767C440.877 234.099 433.47 238.971 428.61 240.528C427.229 240.97 425.033 241.716 423.731 242.184C422.429 242.653 420.479 243.036 419.398 243.036C417.484 243.036 417.512 242.994 420.51 241.411ZM439.681 230.633C440.462 229.637 440.44 229.615 439.444 230.396C438.839 230.87 438.345 231.365 438.345 231.495C438.345 232.012 438.86 231.679 439.681 230.633ZM217.853 241.499C212.762 240.095 208.412 237.74 198.135 230.824C187.091 223.393 184.384 221.878 178.339 219.745C174.472 218.38 173.371 218.307 156.059 218.269L137.847 218.232L133.765 216.499C128.42 214.23 123.892 210.761 121.362 206.996C118.867 203.285 118.725 202.044 121.048 204.253C123.567 206.648 128.76 209.062 133.607 210.09C138.469 211.121 143.307 210.827 151.349 209.011C169.112 205 171.685 204.594 177.097 204.942C186.294 205.533 192.467 208.345 206.299 218.244C215.176 224.597 223.174 229.85 223.971 229.85C224.209 229.85 223.068 228.533 221.435 226.923C215.741 221.309 212.125 214.248 211.312 207.151L210.927 203.788L212.32 205.672C213.086 206.708 216.012 209.83 218.822 212.61C227.016 220.717 238.316 225.859 250.596 227.069C254.779 227.481 255.069 227.599 253.971 228.437C251.405 230.397 241.545 234.832 238.86 235.235C236.193 235.635 236.056 235.752 236.443 237.296C236.669 238.196 236.903 239.198 236.962 239.524C237.022 239.849 235.799 240.616 234.245 241.228C230.86 242.562 222.221 242.703 217.853 241.499ZM128.02 236.511C123.631 234.943 120.753 231.934 118.729 226.801L117.455 223.569L121.048 226.495C127.269 231.562 132.901 233.188 139.402 231.794C141.238 231.4 142.89 231.228 143.073 231.412C143.644 231.982 139.835 235.61 137.71 236.519C135.201 237.593 131.039 237.589 128.02 236.511ZM346.343 236.901C345.306 236.805 342.381 236.283 339.843 235.742C337.304 235.201 334.69 234.899 334.034 235.071C332.185 235.554 332.609 234.6 335.339 232.134C338.531 229.249 340.986 228.236 349.424 226.319C353.192 225.463 356.819 224.471 357.485 224.115C358.151 223.758 358.835 223.605 359.004 223.775C359.702 224.472 352.089 229.418 348.258 230.757C345.285 231.796 344.355 232.37 344.924 232.816C346.406 233.975 349.979 234.872 353.187 234.891C355.699 234.908 356.15 235.051 355.275 235.56C353.874 236.375 348.832 237.132 346.343 236.901ZM371.357 226.699C369.918 226.405 367.657 225.607 366.333 224.928L363.927 223.693L367.067 223.282C368.794 223.057 372.326 222.414 374.917 221.855L379.627 220.838L377.016 220.362C375.581 220.1 373.179 219.25 371.678 218.474L368.951 217.062L374.121 216.244C380.744 215.195 385.217 213.692 395.368 209.106C404.81 204.841 413.06 200.396 416.679 197.626C420.9 194.395 421.216 194.21 420.084 195.633C409.712 208.678 400.861 216.903 391.873 221.853C384.392 225.972 376.692 227.791 371.357 226.699ZM255.911 216.614C250.03 213.03 239.685 208.693 226.128 204.129C214.542 200.228 209.987 198.026 207.393 195.071L205.455 192.865L204.775 194.816C204.402 195.888 203.356 197.735 202.453 198.92L200.81 201.074L199.727 198.662C196.263 190.953 187.336 180.952 179.295 175.769C176.877 174.211 170.518 170.587 165.165 167.714C154.405 161.941 151.378 160.027 146.436 155.869C140.417 150.805 135.583 143.178 134.384 136.856C134.04 135.044 133.867 133.452 133.999 133.32C134.131 133.188 134.975 134.333 135.873 135.866C138.215 139.863 142.091 142.108 152.351 145.412C166.783 150.059 174.496 154.215 180.657 160.66L183.904 164.056L183.295 161.346C182.363 157.195 178.707 150.79 175.052 146.902C173.241 144.976 168.509 140.651 164.536 137.291C153.638 128.075 148.59 121.683 144.89 112.412C143.106 107.94 141.406 100.005 140.989 94.2L140.605 88.862L142.211 93.4321C145.695 103.342 149.116 107.135 162.533 115.968C168.543 119.924 174.878 124.486 176.612 126.107C183.111 132.181 187.091 139.148 193.808 156.205C198.342 167.717 201.813 175.016 205.141 180.03C209.887 187.18 219.018 194 227.65 196.841C242.504 201.73 252.825 207.208 257.077 212.459C259.191 215.07 261.528 219.111 261.138 219.482C261.026 219.589 258.674 218.298 255.911 216.614ZM418.663 212.362C425.099 207.252 429.058 201.84 431.14 195.308C433.962 186.454 440.537 176.436 447.34 170.624C450.364 168.041 458.479 162.652 459.346 162.652C459.511 162.652 458.312 164.418 456.681 166.577C455.049 168.736 452.834 172.622 451.758 175.212C448.542 182.954 448.543 183.192 451.783 179.951C459.534 172.2 470.268 167.837 497.376 161.417C511.142 158.157 518.202 155.004 528.338 147.592C530.836 145.765 524.717 153.576 519.696 158.622C513.905 164.443 507.539 168.911 498.784 173.299C492.461 176.468 488.219 178.192 471.628 184.336C452.439 191.441 443.546 196.157 432.026 205.336C425.312 210.686 418.593 214.776 416.521 214.776C416.027 214.776 416.991 213.69 418.663 212.362ZM372.719 209.124C372.932 208.779 373.467 208.496 373.908 208.496C374.348 208.496 377.511 207.09 380.936 205.371L387.163 202.246L382.649 202.622C378.013 203.009 371.147 202.458 371.151 201.7C371.155 201.021 376.106 199.181 380.883 198.084C394.316 194.998 398.067 193.875 403.444 191.328C406.701 189.785 410.658 187.634 412.238 186.547C415.279 184.455 415.78 184.625 414.049 187.161C408.135 195.825 395.218 205.548 385.683 208.512C381.418 209.837 372.003 210.282 372.719 209.124ZM191.795 200.893C191.137 200.166 189.482 199 188.117 198.304C180.161 194.244 172.006 193.213 162.258 195.035C158.848 195.673 153.634 196.18 150.67 196.162C145.95 196.133 144.868 195.905 141.946 194.315C138.553 192.468 136.118 189.519 135.4 186.388L135.011 184.689L137.685 185.903C141.257 187.524 152.001 187.576 151.969 185.972C151.965 185.753 150.377 184.585 148.44 183.376C140.769 178.587 137.394 172.002 139.185 165.321C139.687 163.445 140.304 163.539 141.252 165.635C142.669 168.767 147.031 173.889 149.9 175.79C151.452 176.818 156.722 178.984 161.612 180.605C173.824 184.652 178.26 186.976 185.669 193.206C189.23 196.2 194.512 202.216 193.581 202.216C193.257 202.216 192.453 201.621 191.795 200.893ZM374.297 195.762C375.51 194.649 378.265 192.207 380.419 190.335C382.572 188.463 384.2 186.798 384.036 186.634C383.597 186.196 376.487 188.876 371.62 191.316C369.288 192.484 367.381 193.187 367.381 192.877C367.381 192.002 372.131 187.921 376.245 185.263C381.005 182.186 388.152 179.614 400.721 176.454C416.14 172.577 422.393 169.878 428.59 164.423C431.233 162.097 431.541 161.961 431.113 163.311C429.126 169.577 417.982 179.165 406.722 184.296C404.161 185.463 398.006 187.83 393.044 189.556C383.039 193.035 374.928 196.301 374.01 197.22C373.68 197.55 373.113 197.812 372.75 197.803C372.387 197.795 373.084 196.875 374.297 195.762ZM228.549 186.673C224.532 182.291 221.275 175.537 220.484 169.948C219.801 165.124 220.542 161.203 223.566 153.653C224.649 150.948 226.042 146.74 226.661 144.302L227.787 139.868L228.818 142.894C230.125 146.732 230.165 156.371 228.907 164.536C227.238 175.362 227.946 182.975 231.095 188.07C231.847 189.288 232.327 190.284 232.161 190.284C231.995 190.284 230.369 188.659 228.549 186.673ZM351.764 189.163C352.455 187.31 377.221 167.741 394.071 155.736C436.758 125.32 456.828 106.13 470.853 82.3207C477.275 71.4191 483.243 56.5077 487.026 41.9112C487.99 38.1939 488.864 35.2377 488.968 35.342C489.072 35.4462 488.891 39.7393 488.565 44.882C486.684 74.5608 477.17 102.717 460.654 127.484C455.81 134.748 447.699 145.14 446.542 145.564C446.269 145.664 446.135 145.099 446.246 144.308C446.356 143.517 446.581 141.246 446.746 139.26L447.046 135.65L444.684 138.632C441.044 143.227 432.889 150.619 426.685 154.948C411.892 165.27 407.573 168.201 407.573 167.918C407.573 167.75 410.345 163.458 413.733 158.381C417.122 153.304 420.133 148.752 420.426 148.265C420.719 147.779 418.724 149.217 415.992 151.462C408.237 157.836 397.275 165.135 386.221 171.285C384.321 172.342 381.638 173.833 380.258 174.599C378.878 175.365 372.52 178.679 366.128 181.963C359.736 185.248 353.838 188.351 353.021 188.858C352.203 189.366 351.638 189.503 351.764 189.163ZM216.429 179.377C212.626 172.889 210.402 163.945 208.478 147.413C207.165 136.125 205.763 127.46 204.646 123.716C203.361 119.409 202.039 116.18 201.559 116.18C200.691 116.18 198.504 121.451 198.342 123.935L198.184 126.352L196.989 124.877C195.007 122.429 191.788 115.552 190.06 110.07C186.697 99.4092 186.448 88.2048 189.325 77.0155C190.605 72.0365 193.103 65.312 193.673 65.312C193.777 65.312 193.608 66.9327 193.298 68.9136C192.041 76.9284 194.889 84.9925 203.893 98.91C210.561 109.217 211.316 110.622 213.253 116.316C215.811 123.838 216.26 129.394 215.802 147.89C215.379 164.955 215.772 171.859 217.574 178.823C218.042 180.636 218.338 182.12 218.231 182.12C218.124 182.12 217.313 180.886 216.429 179.377ZM442.113 162.691C445.892 159.538 452.644 155.54 463.433 150.065C484.612 139.317 489.996 134.806 504.395 115.743C518.944 96.4829 525.625 89.8746 534.871 85.6027C539.721 83.3618 541.438 83.1244 538.373 85.1183C532.116 89.1893 524.29 98.5897 512.993 115.604C503.052 130.574 499.302 135.643 494.328 140.829C492.092 143.16 490.444 145.068 490.667 145.068C490.889 145.068 493.832 143.976 497.207 142.641C500.582 141.307 504.897 139.712 506.797 139.098C512.777 137.164 518.146 134.327 520.998 131.594C522.513 130.143 523.753 129.348 523.753 129.829C523.753 131.778 520.329 137.741 517.318 141.036C509.006 150.13 498.916 153.986 478.851 155.734C460.237 157.355 451.637 158.93 445.359 161.866C440.49 164.142 440.321 164.185 442.113 162.691ZM200.119 152.356C197.812 147.062 193.029 140.497 180.808 125.851C168.364 110.938 163.237 98.0895 165.167 86.6511C165.664 83.7049 166.888 80.2217 168.664 76.6984C171.413 71.2444 176.288 63.9151 175.611 66.254C173.478 73.6206 173.186 75.9687 173.5 83.21C174.033 95.5202 177.202 104.397 188.097 124.097C194.943 136.475 198.17 143.239 200.597 150.3C202.729 156.503 202.449 157.706 200.119 152.356ZM127.276 151.287C119.178 145.924 111.789 133.506 111.803 125.286C111.806 123.462 111.863 123.499 113.597 126.445C114.583 128.118 117.757 132.205 120.652 135.525C128.779 144.85 131.253 148.608 131.253 151.631C131.253 153.682 130.837 153.646 127.276 151.287ZM465.349 135.977C465.349 135.176 473.365 120.215 477.134 113.982C483.083 104.145 486.606 99.886 500.51 85.722C515.329 70.6268 519.334 65.6611 523.109 57.6969C525.841 51.9342 526.108 52.398 524.701 60.4646C522.946 70.5277 518.301 81.009 511.57 90.0951C506.703 96.6653 496.459 106.794 487.012 114.376C480.179 119.861 474.575 125.447 468.159 133.171C465.23 136.697 465.349 136.578 465.349 135.977Z" fill="#FFAF61"/>
</svg>
