<?xml version="1.0" encoding="UTF-8" standalone="no"?>
<!-- Created with Inkscape (http://www.inkscape.org/) -->

<svg
   width="1024"
   height="1024"
   viewBox="0 0 1024 1024"
   version="1.1"
   id="svg5"
   xml:space="preserve"
   xmlns:xlink="http://www.w3.org/1999/xlink"
   xmlns="http://www.w3.org/2000/svg"
   xmlns:svg="http://www.w3.org/2000/svg"><defs
     id="defs2"><linearGradient
       id="linearGradient1516"><stop
         style="stop-color:#794020;stop-opacity:1;"
         offset="0"
         id="stop1510" /><stop
         style="stop-color:#5b0b13;stop-opacity:1;"
         offset="0.49533564"
         id="stop1512" /><stop
         style="stop-color:#794020;stop-opacity:1;"
         offset="1"
         id="stop1514" /></linearGradient><linearGradient
       id="linearGradient1216"><stop
         style="stop-color:#f9e37d;stop-opacity:1"
         offset="0"
         id="stop1208" /><stop
         style="stop-color:#e2b359;stop-opacity:1"
         offset="0.3899956"
         id="stop1210" /><stop
         style="stop-color:#a8833d;stop-opacity:1;"
         offset="0.65678871"
         id="stop1212" /><stop
         style="stop-color:#866427;stop-opacity:1;"
         offset="1"
         id="stop1214" /></linearGradient><linearGradient
       id="linearGradient62877"><stop
         style="stop-color:#7a5d1f;stop-opacity:1;"
         offset="0"
         id="stop62873" /><stop
         style="stop-color:#a5803b;stop-opacity:1;"
         offset="0.47"
         id="stop62881" /><stop
         style="stop-color:#7a5d1f;stop-opacity:1;"
         offset="1"
         id="stop62875" /></linearGradient><linearGradient
       id="linearGradient61298"><stop
         style="stop-color:#721119;stop-opacity:1;"
         offset="0"
         id="stop61290" /><stop
         style="stop-color:#901820;stop-opacity:1;"
         offset="0.3899956"
         id="stop61292" /><stop
         style="stop-color:#84151d;stop-opacity:1;"
         offset="0.65678871"
         id="stop61294" /><stop
         style="stop-color:#84151d;stop-opacity:1;"
         offset="1"
         id="stop61296" /></linearGradient><linearGradient
       id="linearGradient32200"><stop
         style="stop-color:#fef59f;stop-opacity:1;"
         offset="0"
         id="stop32196" /><stop
         style="stop-color:#c69c33;stop-opacity:1;"
         offset="0.34375298"
         id="stop32204" /><stop
         style="stop-color:#695125;stop-opacity:1;"
         offset="1"
         id="stop32198" /></linearGradient><linearGradient
       id="linearGradient10516"><stop
         style="stop-color:#f9e37d;stop-opacity:1"
         offset="0"
         id="stop10512" /><stop
         style="stop-color:#e2b359;stop-opacity:1"
         offset="0.3899956"
         id="stop10520" /><stop
         style="stop-color:#aa843e;stop-opacity:1;"
         offset="0.65678871"
         id="stop19360" /><stop
         style="stop-color:#694e1f;stop-opacity:1"
         offset="1"
         id="stop10514" /></linearGradient><linearGradient
       xlink:href="#linearGradient10516"
       id="linearGradient10518"
       x1="309.27655"
       y1="570.96777"
       x2="531.08301"
       y2="570.96777"
       gradientUnits="userSpaceOnUse"
       spreadMethod="reflect" /><linearGradient
       xlink:href="#linearGradient32200"
       id="linearGradient32202"
       x1="766.31525"
       y1="594.03735"
       x2="734.15179"
       y2="495.18228"
       gradientUnits="userSpaceOnUse" /><linearGradient
       xlink:href="#linearGradient61298"
       id="linearGradient60943"
       x1="367.58728"
       y1="609.83496"
       x2="513.36334"
       y2="609.83496"
       gradientUnits="userSpaceOnUse"
       spreadMethod="reflect"
       gradientTransform="matrix(0.93828562,0,0,0.93828562,31.885772,38.448929)" /><linearGradient
       xlink:href="#linearGradient1216"
       id="linearGradient62847"
       gradientUnits="userSpaceOnUse"
       x1="309.27655"
       y1="570.96777"
       x2="531.08301"
       y2="570.96777"
       spreadMethod="reflect" /><linearGradient
       xlink:href="#linearGradient62877"
       id="linearGradient62879"
       x1="303.27853"
       y1="670.23944"
       x2="757.39526"
       y2="670.23944"
       gradientUnits="userSpaceOnUse" /><linearGradient
       xlink:href="#linearGradient1516"
       id="linearGradient69711"
       x1="363.15631"
       y1="615.33606"
       x2="660.84363"
       y2="615.33606"
       gradientUnits="userSpaceOnUse"
       gradientTransform="matrix(0.93828562,0,0,0.93828562,31.885772,38.448929)" /><linearGradient
       xlink:href="#linearGradient32200"
       id="linearGradient5147"
       gradientUnits="userSpaceOnUse"
       x1="766.31525"
       y1="594.03735"
       x2="734.15179"
       y2="495.18228" /><linearGradient
       xlink:href="#linearGradient32200"
       id="linearGradient5149"
       gradientUnits="userSpaceOnUse"
       x1="766.31525"
       y1="594.03735"
       x2="734.15179"
       y2="495.18228" /><linearGradient
       xlink:href="#linearGradient32200"
       id="linearGradient5151"
       gradientUnits="userSpaceOnUse"
       x1="766.31525"
       y1="594.03735"
       x2="734.15179"
       y2="495.18228" /><linearGradient
       xlink:href="#linearGradient32200"
       id="linearGradient5153"
       gradientUnits="userSpaceOnUse"
       x1="766.31525"
       y1="594.03735"
       x2="734.15179"
       y2="495.18228" /><linearGradient
       xlink:href="#linearGradient32200"
       id="linearGradient5155"
       gradientUnits="userSpaceOnUse"
       x1="766.31525"
       y1="594.03735"
       x2="734.15179"
       y2="495.18228" /><linearGradient
       xlink:href="#linearGradient32200"
       id="linearGradient5157"
       gradientUnits="userSpaceOnUse"
       x1="766.31525"
       y1="594.03735"
       x2="734.15179"
       y2="495.18228" /><linearGradient
       xlink:href="#linearGradient32200"
       id="linearGradient5159"
       gradientUnits="userSpaceOnUse"
       x1="766.31525"
       y1="594.03735"
       x2="734.15179"
       y2="495.18228" /><linearGradient
       xlink:href="#linearGradient32200"
       id="linearGradient5161"
       gradientUnits="userSpaceOnUse"
       x1="766.31525"
       y1="594.03735"
       x2="734.15179"
       y2="495.18228" /><linearGradient
       xlink:href="#linearGradient32200"
       id="linearGradient5163"
       gradientUnits="userSpaceOnUse"
       x1="766.31525"
       y1="594.03735"
       x2="734.15179"
       y2="495.18228" /><linearGradient
       xlink:href="#linearGradient32200"
       id="linearGradient5165"
       gradientUnits="userSpaceOnUse"
       x1="766.31525"
       y1="594.03735"
       x2="734.15179"
       y2="495.18228" /><linearGradient
       xlink:href="#linearGradient32200"
       id="linearGradient5167"
       gradientUnits="userSpaceOnUse"
       x1="766.31525"
       y1="594.03735"
       x2="734.15179"
       y2="495.18228" /><linearGradient
       xlink:href="#linearGradient32200"
       id="linearGradient5169"
       gradientUnits="userSpaceOnUse"
       x1="766.31525"
       y1="594.03735"
       x2="734.15179"
       y2="495.18228" /><linearGradient
       xlink:href="#linearGradient32200"
       id="linearGradient5171"
       gradientUnits="userSpaceOnUse"
       x1="766.31525"
       y1="594.03735"
       x2="734.15179"
       y2="495.18228" /><linearGradient
       xlink:href="#linearGradient32200"
       id="linearGradient5173"
       gradientUnits="userSpaceOnUse"
       x1="766.31525"
       y1="594.03735"
       x2="734.15179"
       y2="495.18228" /><linearGradient
       xlink:href="#linearGradient32200"
       id="linearGradient5175"
       gradientUnits="userSpaceOnUse"
       x1="766.31525"
       y1="594.03735"
       x2="734.15179"
       y2="495.18228" /><linearGradient
       xlink:href="#linearGradient32200"
       id="linearGradient5177"
       gradientUnits="userSpaceOnUse"
       x1="766.31525"
       y1="594.03735"
       x2="734.15179"
       y2="495.18228" /><linearGradient
       xlink:href="#linearGradient32200"
       id="linearGradient5179"
       gradientUnits="userSpaceOnUse"
       x1="766.31525"
       y1="594.03735"
       x2="734.15179"
       y2="495.18228" /><linearGradient
       xlink:href="#linearGradient32200"
       id="linearGradient5181"
       gradientUnits="userSpaceOnUse"
       x1="766.31525"
       y1="594.03735"
       x2="734.15179"
       y2="495.18228" /><linearGradient
       xlink:href="#linearGradient32200"
       id="linearGradient5183"
       gradientUnits="userSpaceOnUse"
       x1="766.31525"
       y1="594.03735"
       x2="734.15179"
       y2="495.18228" /><linearGradient
       xlink:href="#linearGradient32200"
       id="linearGradient5185"
       gradientUnits="userSpaceOnUse"
       x1="766.31525"
       y1="594.03735"
       x2="734.15179"
       y2="495.18228" /><linearGradient
       xlink:href="#linearGradient32200"
       id="linearGradient5187"
       gradientUnits="userSpaceOnUse"
       x1="766.31525"
       y1="594.03735"
       x2="734.15179"
       y2="495.18228" /><linearGradient
       xlink:href="#linearGradient32200"
       id="linearGradient5189"
       gradientUnits="userSpaceOnUse"
       x1="766.31525"
       y1="594.03735"
       x2="734.15179"
       y2="495.18228" /><linearGradient
       xlink:href="#linearGradient32200"
       id="linearGradient7107"
       gradientUnits="userSpaceOnUse"
       x1="766.31525"
       y1="594.03735"
       x2="734.15179"
       y2="495.18228" /><linearGradient
       xlink:href="#linearGradient32200"
       id="linearGradient7109"
       gradientUnits="userSpaceOnUse"
       x1="766.31525"
       y1="594.03735"
       x2="734.15179"
       y2="495.18228" /><linearGradient
       xlink:href="#linearGradient32200"
       id="linearGradient7111"
       gradientUnits="userSpaceOnUse"
       x1="766.31525"
       y1="594.03735"
       x2="734.15179"
       y2="495.18228" /><linearGradient
       xlink:href="#linearGradient32200"
       id="linearGradient7113"
       gradientUnits="userSpaceOnUse"
       x1="766.31525"
       y1="594.03735"
       x2="734.15179"
       y2="495.18228" /><linearGradient
       xlink:href="#linearGradient32200"
       id="linearGradient7115"
       gradientUnits="userSpaceOnUse"
       x1="766.31525"
       y1="594.03735"
       x2="734.15179"
       y2="495.18228" /><linearGradient
       xlink:href="#linearGradient32200"
       id="linearGradient7117"
       gradientUnits="userSpaceOnUse"
       x1="766.31525"
       y1="594.03735"
       x2="734.15179"
       y2="495.18228" /><linearGradient
       xlink:href="#linearGradient32200"
       id="linearGradient7119"
       gradientUnits="userSpaceOnUse"
       x1="766.31525"
       y1="594.03735"
       x2="734.15179"
       y2="495.18228" /><linearGradient
       xlink:href="#linearGradient32200"
       id="linearGradient7121"
       gradientUnits="userSpaceOnUse"
       x1="766.31525"
       y1="594.03735"
       x2="734.15179"
       y2="495.18228" /><linearGradient
       xlink:href="#linearGradient32200"
       id="linearGradient7123"
       gradientUnits="userSpaceOnUse"
       x1="766.31525"
       y1="594.03735"
       x2="734.15179"
       y2="495.18228" /><linearGradient
       xlink:href="#linearGradient32200"
       id="linearGradient7125"
       gradientUnits="userSpaceOnUse"
       x1="766.31525"
       y1="594.03735"
       x2="734.15179"
       y2="495.18228" /><linearGradient
       xlink:href="#linearGradient32200"
       id="linearGradient7127"
       gradientUnits="userSpaceOnUse"
       x1="766.31525"
       y1="594.03735"
       x2="734.15179"
       y2="495.18228" /><linearGradient
       xlink:href="#linearGradient32200"
       id="linearGradient7129"
       gradientUnits="userSpaceOnUse"
       x1="766.31525"
       y1="594.03735"
       x2="734.15179"
       y2="495.18228" /><linearGradient
       xlink:href="#linearGradient32200"
       id="linearGradient7131"
       gradientUnits="userSpaceOnUse"
       x1="766.31525"
       y1="594.03735"
       x2="734.15179"
       y2="495.18228" /><linearGradient
       xlink:href="#linearGradient32200"
       id="linearGradient7133"
       gradientUnits="userSpaceOnUse"
       x1="766.31525"
       y1="594.03735"
       x2="734.15179"
       y2="495.18228" /><linearGradient
       xlink:href="#linearGradient32200"
       id="linearGradient7135"
       gradientUnits="userSpaceOnUse"
       x1="766.31525"
       y1="594.03735"
       x2="734.15179"
       y2="495.18228" /><linearGradient
       xlink:href="#linearGradient32200"
       id="linearGradient7137"
       gradientUnits="userSpaceOnUse"
       x1="766.31525"
       y1="594.03735"
       x2="734.15179"
       y2="495.18228" /><linearGradient
       xlink:href="#linearGradient32200"
       id="linearGradient7139"
       gradientUnits="userSpaceOnUse"
       x1="766.31525"
       y1="594.03735"
       x2="734.15179"
       y2="495.18228" /><linearGradient
       xlink:href="#linearGradient32200"
       id="linearGradient7141"
       gradientUnits="userSpaceOnUse"
       x1="766.31525"
       y1="594.03735"
       x2="734.15179"
       y2="495.18228" /><linearGradient
       xlink:href="#linearGradient32200"
       id="linearGradient7143"
       gradientUnits="userSpaceOnUse"
       x1="766.31525"
       y1="594.03735"
       x2="734.15179"
       y2="495.18228" /><linearGradient
       xlink:href="#linearGradient32200"
       id="linearGradient7145"
       gradientUnits="userSpaceOnUse"
       x1="766.31525"
       y1="594.03735"
       x2="734.15179"
       y2="495.18228" /><linearGradient
       xlink:href="#linearGradient32200"
       id="linearGradient7147"
       gradientUnits="userSpaceOnUse"
       x1="766.31525"
       y1="594.03735"
       x2="734.15179"
       y2="495.18228" /></defs><g
     id="layer1"><g
       id="g1"><path
         class="UnoptimicedTransforms"
         id="path9001-6"
         d="m 555.20815,552.04882 c 0,0 161.6476,0.71616 243.6817,0.71616 22.4415,0 97.8898,-11.77002 97.8898,-11.77002 0,0 -19.0335,50.45967 -100.7072,61.23102 -121.8428,16.06895 -222.99,-7.7944 -232.9433,-10.46137 -6.6672,-1.78646 -31.405,-8.68662 -31.405,-25.05122 0,-16.36461 23.484,-14.66459 23.484,-14.66459 z"
         style="font-variation-settings:normal;opacity:1;vector-effect:none;fill:url(#linearGradient7107);fill-opacity:1;stroke:#a37b33;stroke-width:3;stroke-linecap:butt;stroke-linejoin:miter;stroke-miterlimit:4;stroke-dasharray:none;stroke-dashoffset:0;stroke-opacity:1;-inkscape-stroke:none;stop-color:#000000;stop-opacity:1"
         transform="matrix(-0.48408455,-0.87502123,-0.87502123,0.48408455,1021.6934,706.27884)" /><path
         class="UnoptimicedTransforms"
         id="path9001-6-1"
         d="m 555.20815,552.04882 c 0,0 161.6476,0.71616 243.6817,0.71616 22.4415,0 97.8898,-11.77002 97.8898,-11.77002 0,0 -19.0335,50.45967 -100.7072,61.23102 -121.8428,16.06895 -222.99,-7.7944 -232.9433,-10.46137 -6.6672,-1.78646 -31.405,-8.68662 -31.405,-25.05122 0,-16.36461 23.484,-14.66459 23.484,-14.66459 z"
         style="font-variation-settings:normal;opacity:1;vector-effect:none;fill:url(#linearGradient7109);fill-opacity:1;stroke:#a37b33;stroke-width:3;stroke-linecap:butt;stroke-linejoin:miter;stroke-miterlimit:4;stroke-dasharray:none;stroke-dashoffset:0;stroke-opacity:1;-inkscape-stroke:none;stop-color:#000000;stop-opacity:1"
         transform="matrix(-0.63528758,-0.77227566,-0.77227566,0.63528758,1047.8953,613.83808)" /><path
         class="UnoptimicedTransforms"
         id="path9001-6-1-0-6-0"
         d="m 555.20815,552.04882 c 0,0 161.6476,0.71616 243.6817,0.71616 22.4415,0 97.8898,-11.77002 97.8898,-11.77002 0,0 -19.0335,50.45967 -100.7072,61.23102 -121.8428,16.06895 -222.99,-7.7944 -232.9433,-10.46137 -6.6672,-1.78646 -31.405,-8.68662 -31.405,-25.05122 0,-16.36461 23.484,-14.66459 23.484,-14.66459 z"
         style="font-variation-settings:normal;opacity:1;vector-effect:none;fill:url(#linearGradient5147);fill-opacity:1;stroke:#a37b33;stroke-width:6.26752;stroke-linecap:butt;stroke-linejoin:miter;stroke-miterlimit:4;stroke-dasharray:none;stroke-dashoffset:0;stroke-opacity:1;-inkscape-stroke:none;stop-color:#000000;stop-opacity:1"
         transform="matrix(-0.38137676,-0.23718945,-0.23718945,0.38137676,688.91199,496.66049)" /><path
         class="UnoptimicedTransforms"
         id="path9001-6-1-0-6-2"
         d="m 555.20815,552.04882 c 0,0 161.6476,0.71616 243.6817,0.71616 22.4415,0 97.8898,-11.77002 97.8898,-11.77002 0,0 -19.0335,50.45967 -100.7072,61.23102 -121.8428,16.06895 -222.99,-7.7944 -232.9433,-10.46137 -6.6672,-1.78646 -31.405,-8.68662 -31.405,-25.05122 0,-16.36461 23.484,-14.66459 23.484,-14.66459 z"
         style="font-variation-settings:normal;opacity:1;vector-effect:none;fill:url(#linearGradient7111);fill-opacity:1;stroke:#a37b33;stroke-width:3;stroke-linecap:butt;stroke-linejoin:miter;stroke-miterlimit:4;stroke-dasharray:none;stroke-dashoffset:0;stroke-opacity:1;-inkscape-stroke:none;stop-color:#000000;stop-opacity:1"
         transform="matrix(-0.96173176,-0.27399274,-0.27399274,0.96173176,1030.4683,274.86866)" /><path
         id="rect8152-5-5-9"
         style="font-variation-settings:normal;opacity:1;vector-effect:none;fill:url(#linearGradient7113);fill-opacity:1;stroke:#a37b33;stroke-width:3;stroke-linecap:butt;stroke-linejoin:miter;stroke-miterlimit:4;stroke-dasharray:none;stroke-dashoffset:0;stroke-opacity:1;-inkscape-stroke:none;stop-color:#000000;stop-opacity:1"
         d="m 555.20815,552.04882 c 0,0 161.6476,0.71616 243.6817,0.71616 22.4415,0 97.8898,-11.77002 97.8898,-11.77002 0,0 -19.0335,50.45967 -100.7072,61.23102 -121.8428,16.06895 -222.99,-7.7944 -232.9433,-10.46137 -6.6672,-1.78646 -31.405,-8.68662 -31.405,-25.05122 0,-16.36461 23.484,-14.66459 23.484,-14.66459 z"
         class="UnoptimicedTransforms"
         transform="rotate(-50.558683,637.95096,332.21814)" /><path
         id="rect8152-5-5-9-7-3-61"
         style="font-variation-settings:normal;opacity:1;vector-effect:none;fill:url(#linearGradient5149);fill-opacity:1;stroke:#a37b33;stroke-width:6.26752;stroke-linecap:butt;stroke-linejoin:miter;stroke-miterlimit:4;stroke-dasharray:none;stroke-dashoffset:0;stroke-opacity:1;-inkscape-stroke:none;stop-color:#000000;stop-opacity:1"
         d="m 555.20815,552.04882 c 0,0 161.6476,0.71616 243.6817,0.71616 22.4415,0 97.8898,-11.77002 97.8898,-11.77002 0,0 -19.0335,50.45967 -100.7072,61.23102 -121.8428,16.06895 -222.99,-7.7944 -232.9433,-10.46137 -6.6672,-1.78646 -31.405,-8.68662 -31.405,-25.05122 0,-16.36461 23.484,-14.66459 23.484,-14.66459 z"
         class="UnoptimicedTransforms"
         transform="matrix(0.38137676,-0.23718945,0.23718945,0.38137676,335.08801,496.66049)" /><path
         id="rect8152-5-5-9-7-3-6"
         style="font-variation-settings:normal;opacity:1;vector-effect:none;fill:url(#linearGradient7115);fill-opacity:1;stroke:#a37b33;stroke-width:3;stroke-linecap:butt;stroke-linejoin:miter;stroke-miterlimit:4;stroke-dasharray:none;stroke-dashoffset:0;stroke-opacity:1;-inkscape-stroke:none;stop-color:#000000;stop-opacity:1"
         d="m 555.20815,552.04882 c 0,0 161.6476,0.71616 243.6817,0.71616 22.4415,0 97.8898,-11.77002 97.8898,-11.77002 0,0 -19.0335,50.45967 -100.7072,61.23102 -121.8428,16.06895 -222.99,-7.7944 -232.9433,-10.46137 -6.6672,-1.78646 -31.405,-8.68662 -31.405,-25.05122 0,-16.36461 23.484,-14.66459 23.484,-14.66459 z"
         class="UnoptimicedTransforms"
         transform="rotate(-15.901997,980.76746,160.59001)" /><path
         id="rect8152-5-5-9-7-3-6-1"
         style="font-variation-settings:normal;opacity:1;vector-effect:none;fill:url(#linearGradient7117);fill-opacity:1;stroke:#a37b33;stroke-width:3.5366;stroke-linecap:butt;stroke-linejoin:miter;stroke-miterlimit:4;stroke-dasharray:none;stroke-dashoffset:0;stroke-opacity:1;-inkscape-stroke:none;stop-color:#000000;stop-opacity:1"
         d="m 555.20815,552.04882 c 0,0 161.6476,0.71616 243.6817,0.71616 22.4415,0 97.8898,-11.77002 97.8898,-11.77002 0,0 -19.0335,50.45967 -100.7072,61.23102 -121.8428,16.06895 -222.99,-7.7944 -232.9433,-10.46137 -6.6672,-1.78646 -31.405,-8.68662 -31.405,-25.05122 0,-16.36461 23.484,-14.66459 23.484,-14.66459 z"
         class="UnoptimicedTransforms"
         transform="matrix(0.8441769,-0.08325769,0.08325769,0.8441769,172.10674,250.25913)" /><path
         id="rect8152-5-5-9-7-3"
         style="font-variation-settings:normal;opacity:1;vector-effect:none;fill:url(#linearGradient7119);fill-opacity:1;stroke:#a37b33;stroke-width:3;stroke-linecap:butt;stroke-linejoin:miter;stroke-miterlimit:4;stroke-dasharray:none;stroke-dashoffset:0;stroke-opacity:1;-inkscape-stroke:none;stop-color:#000000;stop-opacity:1"
         d="m 555.20815,552.04882 c 0,0 161.6476,0.71616 243.6817,0.71616 22.4415,0 97.8898,-11.77002 97.8898,-11.77002 0,0 -19.0335,50.45967 -100.7072,61.23102 -121.8428,16.06895 -222.99,-7.7944 -232.9433,-10.46137 -6.6672,-1.78646 -31.405,-8.68662 -31.405,-25.05122 0,-16.36461 23.484,-14.66459 23.484,-14.66459 z"
         class="UnoptimicedTransforms"
         transform="rotate(-31.878699,791.24057,297.41299)" /><path
         id="rect8152-5"
         style="fill:url(#linearGradient7121);fill-opacity:1;stroke:#a37b33;stroke-width:3;stroke-dasharray:none;stroke-opacity:1"
         d="m 555.20815,552.04882 c 0,0 161.6476,0.71616 243.6817,0.71616 22.4415,0 97.8898,-11.77002 97.8898,-11.77002 0,0 -19.0335,50.45967 -100.7072,61.23102 -121.8428,16.06895 -222.99,-7.7944 -232.9433,-10.46137 -6.6672,-1.78646 -31.405,-8.68662 -31.405,-25.05122 0,-16.36461 23.484,-14.66459 23.484,-14.66459 z"
         class="UnoptimicedTransforms"
         transform="rotate(-71.977213,572.49412,379.59294)" /><path
         id="rect8152-5-5-8"
         style="font-variation-settings:normal;opacity:1;vector-effect:none;fill:url(#linearGradient5153);fill-opacity:1;stroke:#a37b33;stroke-width:6.26752;stroke-linecap:butt;stroke-linejoin:miter;stroke-miterlimit:4;stroke-dasharray:none;stroke-dashoffset:0;stroke-opacity:1;-inkscape-stroke:none;stop-color:#000000;stop-opacity:1"
         d="m 555.20815,552.04882 c 0,0 161.6476,0.71616 243.6817,0.71616 22.4415,0 97.8898,-11.77002 97.8898,-11.77002 0,0 -19.0335,50.45967 -100.7072,61.23102 -121.8428,16.06895 -222.99,-7.7944 -232.9433,-10.46137 -6.6672,-1.78646 -31.405,-8.68662 -31.405,-25.05122 0,-16.36461 23.484,-14.66459 23.484,-14.66459 z"
         class="UnoptimicedTransforms"
         transform="matrix(0.21741114,-0.39298787,0.39298787,0.21741114,353.06749,606.04203)" /><path
         id="rect8152-5-5"
         style="font-variation-settings:normal;opacity:1;vector-effect:none;fill:url(#linearGradient7123);fill-opacity:1;stroke:#a37b33;stroke-width:3;stroke-linecap:butt;stroke-linejoin:miter;stroke-miterlimit:4;stroke-dasharray:none;stroke-dashoffset:0;stroke-opacity:1;-inkscape-stroke:none;stop-color:#000000;stop-opacity:1"
         d="m 555.20815,552.04882 c 0,0 161.6476,0.71616 243.6817,0.71616 22.4415,0 97.8898,-11.77002 97.8898,-11.77002 0,0 -19.0335,50.45967 -100.7072,61.23102 -121.8428,16.06895 -222.99,-7.7944 -232.9433,-10.46137 -6.6672,-1.78646 -31.405,-8.68662 -31.405,-25.05122 0,-16.36461 23.484,-14.66459 23.484,-14.66459 z"
         class="UnoptimicedTransforms"
         transform="rotate(-61.047488,600.09736,351.18334)" /><path
         id="rect8152-5-5-9-7-0"
         style="font-variation-settings:normal;opacity:1;vector-effect:none;fill:url(#linearGradient5155);fill-opacity:1;stroke:#a37b33;stroke-width:6.26752;stroke-linecap:butt;stroke-linejoin:miter;stroke-miterlimit:4;stroke-dasharray:none;stroke-dashoffset:0;stroke-opacity:1;-inkscape-stroke:none;stop-color:#000000;stop-opacity:1"
         d="m 555.20815,552.04882 c 0,0 161.6476,0.71616 243.6817,0.71616 22.4415,0 97.8898,-11.77002 97.8898,-11.77002 0,0 -19.0335,50.45967 -100.7072,61.23102 -121.8428,16.06895 -222.99,-7.7944 -232.9433,-10.46137 -6.6672,-1.78646 -31.405,-8.68662 -31.405,-25.05122 0,-16.36461 23.484,-14.66459 23.484,-14.66459 z"
         class="UnoptimicedTransforms"
         transform="matrix(0.33564526,-0.29841134,0.29841134,0.33564526,337.90844,535.5823)" /><path
         id="rect8152-5-5-9-5"
         style="font-variation-settings:normal;opacity:1;vector-effect:none;fill:url(#linearGradient5157);fill-opacity:1;stroke:#a37b33;stroke-width:6.26752;stroke-linecap:butt;stroke-linejoin:miter;stroke-miterlimit:4;stroke-dasharray:none;stroke-dashoffset:0;stroke-opacity:1;-inkscape-stroke:none;stop-color:#000000;stop-opacity:1"
         d="m 555.20815,552.04882 c 0,0 161.6476,0.71616 243.6817,0.71616 22.4415,0 97.8898,-11.77002 97.8898,-11.77002 0,0 -19.0335,50.45967 -100.7072,61.23102 -121.8428,16.06895 -222.99,-7.7944 -232.9433,-10.46137 -6.6672,-1.78646 -31.405,-8.68662 -31.405,-25.05122 0,-16.36461 23.484,-14.66459 23.484,-14.66459 z"
         class="UnoptimicedTransforms"
         transform="matrix(0.28531915,-0.34684297,0.34684297,0.28531915,341.29971,564.52518)" /><path
         id="rect8152-5-5-9-7"
         style="font-variation-settings:normal;opacity:1;vector-effect:none;fill:url(#linearGradient7125);fill-opacity:1;stroke:#a37b33;stroke-width:3;stroke-linecap:butt;stroke-linejoin:miter;stroke-miterlimit:4;stroke-dasharray:none;stroke-dashoffset:0;stroke-opacity:1;-inkscape-stroke:none;stop-color:#000000;stop-opacity:1"
         d="m 555.20815,552.04882 c 0,0 161.6476,0.71616 243.6817,0.71616 22.4415,0 97.8898,-11.77002 97.8898,-11.77002 0,0 -19.0335,50.45967 -100.7072,61.23102 -121.8428,16.06895 -222.99,-7.7944 -232.9433,-10.46137 -6.6672,-1.78646 -31.405,-8.68662 -31.405,-25.05122 0,-16.36461 23.484,-14.66459 23.484,-14.66459 z"
         class="UnoptimicedTransforms"
         transform="rotate(-41.639261,706.67643,316.04594)" /><path
         id="rect8152-5-5-9-7-3-6-6"
         style="font-variation-settings:normal;opacity:1;vector-effect:none;fill:url(#linearGradient5159);fill-opacity:1;stroke:#a37b33;stroke-width:6.26752;stroke-linecap:butt;stroke-linejoin:miter;stroke-miterlimit:4;stroke-dasharray:none;stroke-dashoffset:0;stroke-opacity:1;-inkscape-stroke:none;stop-color:#000000;stop-opacity:1"
         d="m 555.20815,552.04882 c 0,0 161.6476,0.71616 243.6817,0.71616 22.4415,0 97.8898,-11.77002 97.8898,-11.77002 0,0 -19.0335,50.45967 -100.7072,61.23102 -121.8428,16.06895 -222.99,-7.7944 -232.9433,-10.46137 -6.6672,-1.78646 -31.405,-8.68662 -31.405,-25.05122 0,-16.36461 23.484,-14.66459 23.484,-14.66459 z"
         class="UnoptimicedTransforms"
         transform="matrix(0.43193114,-0.1230551,0.1230551,0.43193114,349.12653,412.28789)" /><path
         id="rect8152-5-5-9-7-3-6-1-2"
         style="font-variation-settings:normal;opacity:1;vector-effect:none;fill:url(#linearGradient5161);fill-opacity:1;stroke:#a37b33;stroke-width:7.38857;stroke-linecap:butt;stroke-linejoin:miter;stroke-miterlimit:4;stroke-dasharray:none;stroke-dashoffset:0;stroke-opacity:1;-inkscape-stroke:none;stop-color:#000000;stop-opacity:1"
         d="m 555.20815,552.04882 c 0,0 161.6476,0.71616 243.6817,0.71616 22.4415,0 97.8898,-11.77002 97.8898,-11.77002 0,0 -19.0335,50.45967 -100.7072,61.23102 -121.8428,16.06895 -222.99,-7.7944 -232.9433,-10.46137 -6.6672,-1.78646 -31.405,-8.68662 -31.405,-25.05122 0,-16.36461 23.484,-14.66459 23.484,-14.66459 z"
         class="UnoptimicedTransforms"
         transform="matrix(0.37913513,-0.03739253,0.03739253,0.37913513,429.32779,401.23531)" /><path
         id="rect8152-5-5-9-7-3-6-1-9-0"
         style="font-variation-settings:normal;opacity:1;vector-effect:none;fill:url(#linearGradient5163);fill-opacity:1;stroke:#a37b33;stroke-width:9.909;stroke-linecap:butt;stroke-linejoin:miter;stroke-miterlimit:4;stroke-dasharray:none;stroke-dashoffset:0;stroke-opacity:1;-inkscape-stroke:none;stop-color:#000000;stop-opacity:1"
         d="m 555.20815,552.04882 c 0,0 161.6476,0.71616 243.6817,0.71616 22.4415,0 97.8898,-11.77002 97.8898,-11.77002 0,0 -19.0335,50.45967 -100.7072,61.23102 -121.8428,16.06895 -222.99,-7.7944 -232.9433,-10.46137 -6.6672,-1.78646 -31.405,-8.68662 -31.405,-25.05122 0,-16.36461 23.484,-14.66459 23.484,-14.66459 z"
         class="UnoptimicedTransforms"
         transform="matrix(0.27776236,0.05953374,-0.05953374,0.27776236,558.16979,400.88856)" /><path
         id="rect8152-5-5-9-7-3-6-1-9-2-6"
         style="font-variation-settings:normal;opacity:1;vector-effect:none;fill:url(#linearGradient5165);fill-opacity:1;stroke:#a37b33;stroke-width:9.909;stroke-linecap:butt;stroke-linejoin:miter;stroke-miterlimit:4;stroke-dasharray:none;stroke-dashoffset:0;stroke-opacity:1;-inkscape-stroke:none;stop-color:#000000;stop-opacity:1"
         d="m 555.20815,552.04882 c 0,0 161.6476,0.71616 243.6817,0.71616 22.4415,0 97.8898,-11.77002 97.8898,-11.77002 0,0 -19.0335,50.45967 -100.7072,61.23102 -121.8428,16.06895 -222.99,-7.7944 -232.9433,-10.46137 -6.6672,-1.78646 -31.405,-8.68662 -31.405,-25.05122 0,-16.36461 23.484,-14.66459 23.484,-14.66459 z"
         class="UnoptimicedTransforms"
         transform="matrix(0.24748346,0.13945657,-0.13945657,0.24748346,612.02305,372.75619)" /><path
         id="rect8152-5-5-9-7-3-6-1-9"
         style="font-variation-settings:normal;opacity:1;vector-effect:none;fill:url(#linearGradient7127);fill-opacity:1;stroke:#a37b33;stroke-width:4.74302;stroke-linecap:butt;stroke-linejoin:miter;stroke-miterlimit:4;stroke-dasharray:none;stroke-dashoffset:0;stroke-opacity:1;-inkscape-stroke:none;stop-color:#000000;stop-opacity:1"
         d="m 555.20815,552.04882 c 0,0 161.6476,0.71616 243.6817,0.71616 22.4415,0 97.8898,-11.77002 97.8898,-11.77002 0,0 -19.0335,50.45967 -100.7072,61.23102 -121.8428,16.06895 -222.99,-7.7944 -232.9433,-10.46137 -6.6672,-1.78646 -31.405,-8.68662 -31.405,-25.05122 0,-16.36461 23.484,-14.66459 23.484,-14.66459 z"
         class="UnoptimicedTransforms"
         transform="matrix(0.61846175,0.13255699,-0.13255699,0.61846175,458.98455,249.48703)" /><path
         id="rect8152-5-5-9-7-3-6-1-9-2-5-5"
         style="font-variation-settings:normal;opacity:1;vector-effect:none;fill:url(#linearGradient5167);fill-opacity:1;stroke:#a37b33;stroke-width:9.909;stroke-linecap:butt;stroke-linejoin:miter;stroke-miterlimit:4;stroke-dasharray:none;stroke-dashoffset:0;stroke-opacity:1;-inkscape-stroke:none;stop-color:#000000;stop-opacity:1"
         d="m 555.20815,552.04882 c 0,0 161.6476,0.71616 243.6817,0.71616 22.4415,0 97.8898,-11.77002 97.8898,-11.77002 0,0 -19.0335,50.45967 -100.7072,61.23102 -121.8428,16.06895 -222.99,-7.7944 -232.9433,-10.46137 -6.6672,-1.78646 -31.405,-8.68662 -31.405,-25.05122 0,-16.36461 23.484,-14.66459 23.484,-14.66459 z"
         class="UnoptimicedTransforms"
         transform="matrix(0.20154958,0.20018482,-0.20018482,0.20154958,667.32296,361.54481)" /><path
         id="rect8152-5-5-9-7-3-6-1-9-2"
         style="font-variation-settings:normal;opacity:1;vector-effect:none;fill:url(#linearGradient7129);fill-opacity:1;stroke:#a37b33;stroke-width:4.74302;stroke-linecap:butt;stroke-linejoin:miter;stroke-miterlimit:4;stroke-dasharray:none;stroke-dashoffset:0;stroke-opacity:1;-inkscape-stroke:none;stop-color:#000000;stop-opacity:1"
         d="m 555.20815,552.04882 c 0,0 161.6476,0.71616 243.6817,0.71616 22.4415,0 97.8898,-11.77002 97.8898,-11.77002 0,0 -19.0335,50.45967 -100.7072,61.23102 -121.8428,16.06895 -222.99,-7.7944 -232.9433,-10.46137 -6.6672,-1.78646 -31.405,-8.68662 -31.405,-25.05122 0,-16.36461 23.484,-14.66459 23.484,-14.66459 z"
         class="UnoptimicedTransforms"
         transform="matrix(0.55104318,0.31051201,-0.31051201,0.55104318,578.89338,186.84792)" /><path
         id="rect8152-5-5-9-7-3-6-1-9-2-5-2-4"
         style="font-variation-settings:normal;opacity:1;vector-effect:none;fill:url(#linearGradient5169);fill-opacity:1;stroke:#a37b33;stroke-width:13.934;stroke-linecap:butt;stroke-linejoin:miter;stroke-miterlimit:4;stroke-dasharray:none;stroke-dashoffset:0;stroke-opacity:1;-inkscape-stroke:none;stop-color:#000000;stop-opacity:1"
         d="m 555.20815,552.04882 c 0,0 161.6476,0.71616 243.6817,0.71616 22.4415,0 97.8898,-11.77002 97.8898,-11.77002 0,0 -19.0335,50.45967 -100.7072,61.23102 -121.8428,16.06895 -222.99,-7.7944 -232.9433,-10.46137 -6.6672,-1.78646 -31.405,-8.68662 -31.405,-25.05122 0,-16.36461 23.484,-14.66459 23.484,-14.66459 z"
         class="UnoptimicedTransforms"
         transform="matrix(0.1083246,0.17051389,-0.17051389,0.1083246,712.43967,449.6108)" /><path
         id="rect8152-5-5-9-7-3-6-1-9-2-5"
         style="font-variation-settings:normal;opacity:1;vector-effect:none;fill:url(#linearGradient7131);fill-opacity:1;stroke:#a37b33;stroke-width:4.74302;stroke-linecap:butt;stroke-linejoin:miter;stroke-miterlimit:4;stroke-dasharray:none;stroke-dashoffset:0;stroke-opacity:1;-inkscape-stroke:none;stop-color:#000000;stop-opacity:1"
         d="m 555.20815,552.04882 c 0,0 161.6476,0.71616 243.6817,0.71616 22.4415,0 97.8898,-11.77002 97.8898,-11.77002 0,0 -19.0335,50.45967 -100.7072,61.23102 -121.8428,16.06895 -222.99,-7.7944 -232.9433,-10.46137 -6.6672,-1.78646 -31.405,-8.68662 -31.405,-25.05122 0,-16.36461 23.484,-14.66459 23.484,-14.66459 z"
         class="UnoptimicedTransforms"
         transform="matrix(0.44876744,0.4457287,-0.4457287,0.44876744,702.02338,165.8848)" /><path
         class="UnoptimicedTransforms"
         id="path9001-6-1-0-6-2-8-2-3"
         d="m 555.20815,552.04882 c 0,0 161.6476,0.71616 243.6817,0.71616 22.4415,0 97.8898,-11.77002 97.8898,-11.77002 0,0 -19.0335,50.45967 -100.7072,61.23102 -121.8428,16.06895 -222.99,-7.7944 -232.9433,-10.46137 -6.6672,-1.78646 -31.405,-8.68662 -31.405,-25.05122 0,-16.36461 23.484,-14.66459 23.484,-14.66459 z"
         style="font-variation-settings:normal;opacity:1;vector-effect:none;fill:url(#linearGradient7133);fill-opacity:1;stroke:#a37b33;stroke-width:4.74302;stroke-linecap:butt;stroke-linejoin:miter;stroke-miterlimit:4;stroke-dasharray:none;stroke-dashoffset:0;stroke-opacity:1;-inkscape-stroke:none;stop-color:#000000;stop-opacity:1"
         transform="matrix(-0.55104318,0.31051201,0.31051201,0.55104318,445.10662,186.84792)" /><path
         class="UnoptimicedTransforms"
         id="path9001-9"
         d="m 555.20815,552.04882 c 0,0 161.6476,0.71616 243.6817,0.71616 22.4415,0 97.8898,-11.77002 97.8898,-11.77002 0,0 -19.0335,50.45967 -100.7072,61.23102 -121.8428,16.06895 -222.99,-7.7944 -232.9433,-10.46137 -6.6672,-1.78646 -31.405,-8.68662 -31.405,-25.05122 0,-16.36461 23.484,-14.66459 23.484,-14.66459 z"
         style="font-variation-settings:normal;opacity:1;vector-effect:none;fill:url(#linearGradient5171);fill-opacity:1;stroke:#a37b33;stroke-width:6.26752;stroke-linecap:butt;stroke-linejoin:miter;stroke-miterlimit:4;stroke-dasharray:none;stroke-dashoffset:0;stroke-opacity:1;-inkscape-stroke:none;stop-color:#000000;stop-opacity:1"
         transform="matrix(-0.13895499,-0.42708147,-0.42708147,0.13895499,656.51902,651.07676)" /><path
         class="UnoptimicedTransforms"
         id="path9001"
         d="m 555.20815,552.04882 c 0,0 161.6476,0.71616 243.6817,0.71616 22.4415,0 97.8898,-11.77002 97.8898,-11.77002 0,0 -19.0335,50.45967 -100.7072,61.23102 -121.8428,16.06895 -222.99,-7.7944 -232.9433,-10.46137 -6.6672,-1.78646 -31.405,-8.68662 -31.405,-25.05122 0,-16.36461 23.484,-14.66459 23.484,-14.66459 z"
         style="font-variation-settings:normal;opacity:1;vector-effect:none;fill:url(#linearGradient7135);fill-opacity:1;stroke:#a37b33;stroke-width:3;stroke-linecap:butt;stroke-linejoin:miter;stroke-miterlimit:4;stroke-dasharray:none;stroke-dashoffset:0;stroke-opacity:1;-inkscape-stroke:none;stop-color:#000000;stop-opacity:1"
         transform="matrix(-0.30939521,-0.95093354,-0.95093354,0.30939521,989.60048,806.55256)" /><path
         class="UnoptimicedTransforms"
         id="path9001-6-4"
         d="m 555.20815,552.04882 c 0,0 161.6476,0.71616 243.6817,0.71616 22.4415,0 97.8898,-11.77002 97.8898,-11.77002 0,0 -19.0335,50.45967 -100.7072,61.23102 -121.8428,16.06895 -222.99,-7.7944 -232.9433,-10.46137 -6.6672,-1.78646 -31.405,-8.68662 -31.405,-25.05122 0,-16.36461 23.484,-14.66459 23.484,-14.66459 z"
         style="font-variation-settings:normal;opacity:1;vector-effect:none;fill:url(#linearGradient5173);fill-opacity:1;stroke:#a37b33;stroke-width:6.26752;stroke-linecap:butt;stroke-linejoin:miter;stroke-miterlimit:4;stroke-dasharray:none;stroke-dashoffset:0;stroke-opacity:1;-inkscape-stroke:none;stop-color:#000000;stop-opacity:1"
         transform="matrix(-0.21741114,-0.39298787,-0.39298787,0.21741114,670.93251,606.04203)" /><path
         class="UnoptimicedTransforms"
         id="path9001-6-1-6"
         d="m 555.20815,552.04882 c 0,0 161.6476,0.71616 243.6817,0.71616 22.4415,0 97.8898,-11.77002 97.8898,-11.77002 0,0 -19.0335,50.45967 -100.7072,61.23102 -121.8428,16.06895 -222.99,-7.7944 -232.9433,-10.46137 -6.6672,-1.78646 -31.405,-8.68662 -31.405,-25.05122 0,-16.36461 23.484,-14.66459 23.484,-14.66459 z"
         style="font-variation-settings:normal;opacity:1;vector-effect:none;fill:url(#linearGradient5175);fill-opacity:1;stroke:#a37b33;stroke-width:6.26752;stroke-linecap:butt;stroke-linejoin:miter;stroke-miterlimit:4;stroke-dasharray:none;stroke-dashoffset:0;stroke-opacity:1;-inkscape-stroke:none;stop-color:#000000;stop-opacity:1"
         transform="matrix(-0.28531915,-0.34684297,-0.34684297,0.28531915,682.70029,564.52518)" /><path
         class="UnoptimicedTransforms"
         id="path9001-6-1-0-3"
         d="m 555.20815,552.04882 c 0,0 161.6476,0.71616 243.6817,0.71616 22.4415,0 97.8898,-11.77002 97.8898,-11.77002 0,0 -19.0335,50.45967 -100.7072,61.23102 -121.8428,16.06895 -222.99,-7.7944 -232.9433,-10.46137 -6.6672,-1.78646 -31.405,-8.68662 -31.405,-25.05122 0,-16.36461 23.484,-14.66459 23.484,-14.66459 z"
         style="font-variation-settings:normal;opacity:1;vector-effect:none;fill:url(#linearGradient5177);fill-opacity:1;stroke:#a37b33;stroke-width:6.26752;stroke-linecap:butt;stroke-linejoin:miter;stroke-miterlimit:4;stroke-dasharray:none;stroke-dashoffset:0;stroke-opacity:1;-inkscape-stroke:none;stop-color:#000000;stop-opacity:1"
         transform="matrix(-0.33564526,-0.29841134,-0.29841134,0.33564526,686.09156,535.5823)" /><path
         class="UnoptimicedTransforms"
         id="path9001-6-1-0"
         d="m 555.20815,552.04882 c 0,0 161.6476,0.71616 243.6817,0.71616 22.4415,0 97.8898,-11.77002 97.8898,-11.77002 0,0 -19.0335,50.45967 -100.7072,61.23102 -121.8428,16.06895 -222.99,-7.7944 -232.9433,-10.46137 -6.6672,-1.78646 -31.405,-8.68662 -31.405,-25.05122 0,-16.36461 23.484,-14.66459 23.484,-14.66459 z"
         style="font-variation-settings:normal;opacity:1;vector-effect:none;fill:url(#linearGradient7137);fill-opacity:1;stroke:#a37b33;stroke-width:3;stroke-linecap:butt;stroke-linejoin:miter;stroke-miterlimit:4;stroke-dasharray:none;stroke-dashoffset:0;stroke-opacity:1;-inkscape-stroke:none;stop-color:#000000;stop-opacity:1"
         transform="matrix(-0.74734297,-0.66443847,-0.66443847,0.74734297,1055.4463,549.39424)" /><path
         class="UnoptimicedTransforms"
         id="path9001-6-1-0-6-2-3"
         d="m 555.20815,552.04882 c 0,0 161.6476,0.71616 243.6817,0.71616 22.4415,0 97.8898,-11.77002 97.8898,-11.77002 0,0 -19.0335,50.45967 -100.7072,61.23102 -121.8428,16.06895 -222.99,-7.7944 -232.9433,-10.46137 -6.6672,-1.78646 -31.405,-8.68662 -31.405,-25.05122 0,-16.36461 23.484,-14.66459 23.484,-14.66459 z"
         style="font-variation-settings:normal;opacity:1;vector-effect:none;fill:url(#linearGradient5179);fill-opacity:1;stroke:#a37b33;stroke-width:6.26752;stroke-linecap:butt;stroke-linejoin:miter;stroke-miterlimit:4;stroke-dasharray:none;stroke-dashoffset:0;stroke-opacity:1;-inkscape-stroke:none;stop-color:#000000;stop-opacity:1"
         transform="matrix(-0.43193114,-0.1230551,-0.1230551,0.43193114,674.87347,412.28789)" /><path
         class="UnoptimicedTransforms"
         id="path9001-6-1-0-6-2-8-5"
         d="m 555.20815,552.04882 c 0,0 161.6476,0.71616 243.6817,0.71616 22.4415,0 97.8898,-11.77002 97.8898,-11.77002 0,0 -19.0335,50.45967 -100.7072,61.23102 -121.8428,16.06895 -222.99,-7.7944 -232.9433,-10.46137 -6.6672,-1.78646 -31.405,-8.68662 -31.405,-25.05122 0,-16.36461 23.484,-14.66459 23.484,-14.66459 z"
         style="font-variation-settings:normal;opacity:1;vector-effect:none;fill:url(#linearGradient5181);fill-opacity:1;stroke:#a37b33;stroke-width:7.38857;stroke-linecap:butt;stroke-linejoin:miter;stroke-miterlimit:4;stroke-dasharray:none;stroke-dashoffset:0;stroke-opacity:1;-inkscape-stroke:none;stop-color:#000000;stop-opacity:1"
         transform="matrix(-0.37913513,-0.03739253,-0.03739253,0.37913513,594.67221,401.23531)" /><path
         class="UnoptimicedTransforms"
         id="path9001-6-1-0-6"
         d="m 555.20815,552.04882 c 0,0 161.6476,0.71616 243.6817,0.71616 22.4415,0 97.8898,-11.77002 97.8898,-11.77002 0,0 -19.0335,50.45967 -100.7072,61.23102 -121.8428,16.06895 -222.99,-7.7944 -232.9433,-10.46137 -6.6672,-1.78646 -31.405,-8.68662 -31.405,-25.05122 0,-16.36461 23.484,-14.66459 23.484,-14.66459 z"
         style="font-variation-settings:normal;opacity:1;vector-effect:none;fill:url(#linearGradient7139);fill-opacity:1;stroke:#a37b33;stroke-width:3;stroke-linecap:butt;stroke-linejoin:miter;stroke-miterlimit:4;stroke-dasharray:none;stroke-dashoffset:0;stroke-opacity:1;-inkscape-stroke:none;stop-color:#000000;stop-opacity:1"
         transform="matrix(-0.84916809,-0.52812267,-0.52812267,0.84916809,1061.7262,462.73146)" /><path
         class="UnoptimicedTransforms"
         id="path9001-6-1-0-6-2-8-2-6"
         d="m 555.20815,552.04882 c 0,0 161.6476,0.71616 243.6817,0.71616 22.4415,0 97.8898,-11.77002 97.8898,-11.77002 0,0 -19.0335,50.45967 -100.7072,61.23102 -121.8428,16.06895 -222.99,-7.7944 -232.9433,-10.46137 -6.6672,-1.78646 -31.405,-8.68662 -31.405,-25.05122 0,-16.36461 23.484,-14.66459 23.484,-14.66459 z"
         style="font-variation-settings:normal;opacity:1;vector-effect:none;fill:url(#linearGradient5183);fill-opacity:1;stroke:#a37b33;stroke-width:9.909;stroke-linecap:butt;stroke-linejoin:miter;stroke-miterlimit:4;stroke-dasharray:none;stroke-dashoffset:0;stroke-opacity:1;-inkscape-stroke:none;stop-color:#000000;stop-opacity:1"
         transform="matrix(-0.27776236,0.05953374,0.05953374,0.27776236,465.83021,400.88856)" /><path
         class="UnoptimicedTransforms"
         id="path9001-6-1-0-6-2-8-2-3-9-5"
         d="m 555.20815,552.04882 c 0,0 161.6476,0.71616 243.6817,0.71616 22.4415,0 97.8898,-11.77002 97.8898,-11.77002 0,0 -19.0335,50.45967 -100.7072,61.23102 -121.8428,16.06895 -222.99,-7.7944 -232.9433,-10.46137 -6.6672,-1.78646 -31.405,-8.68662 -31.405,-25.05122 0,-16.36461 23.484,-14.66459 23.484,-14.66459 z"
         style="font-variation-settings:normal;opacity:1;vector-effect:none;fill:url(#linearGradient5185);fill-opacity:1;stroke:#a37b33;stroke-width:9.909;stroke-linecap:butt;stroke-linejoin:miter;stroke-miterlimit:4;stroke-dasharray:none;stroke-dashoffset:0;stroke-opacity:1;-inkscape-stroke:none;stop-color:#000000;stop-opacity:1"
         transform="matrix(-0.20154958,0.20018482,0.20018482,0.20154958,356.67704,361.54481)" /><path
         class="UnoptimicedTransforms"
         id="path9001-6-1-0-6-2-8-2-3-1"
         d="m 555.20815,552.04882 c 0,0 161.6476,0.71616 243.6817,0.71616 22.4415,0 97.8898,-11.77002 97.8898,-11.77002 0,0 -19.0335,50.45967 -100.7072,61.23102 -121.8428,16.06895 -222.99,-7.7944 -232.9433,-10.46137 -6.6672,-1.78646 -31.405,-8.68662 -31.405,-25.05122 0,-16.36461 23.484,-14.66459 23.484,-14.66459 z"
         style="font-variation-settings:normal;opacity:1;vector-effect:none;fill:url(#linearGradient5187);fill-opacity:1;stroke:#a37b33;stroke-width:9.909;stroke-linecap:butt;stroke-linejoin:miter;stroke-miterlimit:4;stroke-dasharray:none;stroke-dashoffset:0;stroke-opacity:1;-inkscape-stroke:none;stop-color:#000000;stop-opacity:1"
         transform="matrix(-0.24748346,0.13945657,0.13945657,0.24748346,411.97695,372.75619)" /><path
         class="UnoptimicedTransforms"
         id="path9001-6-1-0-6-2-8-2-3-9-8-7"
         d="m 555.20815,552.04882 c 0,0 161.6476,0.71616 243.6817,0.71616 22.4415,0 97.8898,-11.77002 97.8898,-11.77002 0,0 -19.0335,50.45967 -100.7072,61.23102 -121.8428,16.06895 -222.99,-7.7944 -232.9433,-10.46137 -6.6672,-1.78646 -31.405,-8.68662 -31.405,-25.05122 0,-16.36461 23.484,-14.66459 23.484,-14.66459 z"
         style="font-variation-settings:normal;opacity:1;vector-effect:none;fill:url(#linearGradient5189);fill-opacity:1;stroke:#a37b33;stroke-width:13.934;stroke-linecap:butt;stroke-linejoin:miter;stroke-miterlimit:4;stroke-dasharray:none;stroke-dashoffset:0;stroke-opacity:1;-inkscape-stroke:none;stop-color:#000000;stop-opacity:1"
         transform="matrix(-0.1083246,0.17051389,0.17051389,0.1083246,311.56033,449.6108)" /><path
         id="rect8152-5-7"
         style="font-variation-settings:normal;opacity:1;vector-effect:none;fill:url(#linearGradient5151);fill-opacity:1;stroke:#a37b33;stroke-width:6.26752;stroke-linecap:butt;stroke-linejoin:miter;stroke-miterlimit:4;stroke-dasharray:none;stroke-dashoffset:0;stroke-opacity:1;-inkscape-stroke:none;stop-color:#000000;stop-opacity:1"
         d="m 555.20815,552.04882 c 0,0 161.6476,0.71616 243.6817,0.71616 22.4415,0 97.8898,-11.77002 97.8898,-11.77002 0,0 -19.0335,50.45967 -100.7072,61.23102 -121.8428,16.06895 -222.99,-7.7944 -232.9433,-10.46137 -6.6672,-1.78646 -31.405,-8.68662 -31.405,-25.05122 0,-16.36461 23.484,-14.66459 23.484,-14.66459 z"
         class="UnoptimicedTransforms"
         transform="matrix(0.13895499,-0.42708147,0.42708147,0.13895499,367.48098,651.07676)" /><path
         d="M 530.33688,419.35118 C 475.9014,473.78666 379.98399,474.3724 309.4069,474.3724 c 0,172.38564 -52.8868,267.03001 220.92998,447.18964 273.81678,-180.15963 220.92998,-274.804 220.92998,-447.18964 -70.57709,0 -166.4945,-0.58574 -220.92998,-55.02122 z"
         id="path362"
         style="fill:url(#linearGradient10518);fill-opacity:1;stroke:#7a5d1f;stroke-width:4;stroke-dasharray:none;stroke-opacity:1"
         class="UnoptimicedTransforms"
         transform="matrix(0.93828562,0,0,0.93828562,14.991489,38.448929)" /><path
         d="M 530.33688,419.35118 C 475.9014,473.78666 379.98399,474.3724 309.4069,474.3724 c 0,172.38564 -52.8868,267.03001 220.92998,447.18964 273.81678,-180.15963 220.92998,-274.804 220.92998,-447.18964 -70.57709,0 -166.4945,-0.58574 -220.92998,-55.02122 z"
         id="path362-5"
         style="fill:url(#linearGradient62847);fill-opacity:1;stroke:url(#linearGradient62879);stroke-width:4;stroke-dasharray:none;stroke-opacity:1"
         class="UnoptimicedTransforms"
         transform="matrix(0.87720804,0,0,0.87720804,47.383517,79.385762)" /><path
         class="UnoptimicedTransforms"
         id="path9001-6-1-0-6-2-8"
         d="m 555.20815,552.04882 c 0,0 161.6476,0.71616 243.6817,0.71616 22.4415,0 97.8898,-11.77002 97.8898,-11.77002 0,0 -19.0335,50.45967 -100.7072,61.23102 -121.8428,16.06895 -222.99,-7.7944 -232.9433,-10.46137 -6.6672,-1.78646 -31.405,-8.68662 -31.405,-25.05122 0,-16.36461 23.484,-14.66459 23.484,-14.66459 z"
         style="font-variation-settings:normal;opacity:1;vector-effect:none;fill:url(#linearGradient7141);fill-opacity:1;stroke:#a37b33;stroke-width:3.5366;stroke-linecap:butt;stroke-linejoin:miter;stroke-miterlimit:4;stroke-dasharray:none;stroke-dashoffset:0;stroke-opacity:1;-inkscape-stroke:none;stop-color:#000000;stop-opacity:1"
         transform="matrix(-0.8441769,-0.08325769,-0.08325769,0.8441769,851.89326,250.25913)" /><path
         class="UnoptimicedTransforms"
         id="path9001-6-1-0-6-2-8-2-3-9"
         d="m 555.20815,552.04882 c 0,0 161.6476,0.71616 243.6817,0.71616 22.4415,0 97.8898,-11.77002 97.8898,-11.77002 0,0 -19.0335,50.45967 -100.7072,61.23102 -121.8428,16.06895 -222.99,-7.7944 -232.9433,-10.46137 -6.6672,-1.78646 -31.405,-8.68662 -31.405,-25.05122 0,-16.36461 23.484,-14.66459 23.484,-14.66459 z"
         style="font-variation-settings:normal;opacity:1;vector-effect:none;fill:url(#linearGradient7143);fill-opacity:1;stroke:#a37b33;stroke-width:4.74302;stroke-linecap:butt;stroke-linejoin:miter;stroke-miterlimit:4;stroke-dasharray:none;stroke-dashoffset:0;stroke-opacity:1;-inkscape-stroke:none;stop-color:#000000;stop-opacity:1"
         transform="matrix(-0.44876744,0.4457287,0.4457287,0.44876744,321.97662,165.8848)" /><path
         id="text233-3"
         style="font-size:37.3333px;line-height:0.9;fill:url(#linearGradient60943);fill-opacity:1;stroke:url(#linearGradient69711);stroke-width:2;stroke-dasharray:none;stroke-opacity:1"
         d="m 505.85938,581.98633 c -4.62933,0 -7.83985,2.94908 -7.83985,7.20508 0,1.75466 0.55819,3.28385 1.60352,4.47851 1.08266,1.19467 2.61451,1.90485 5.33984,2.46485 3.47199,0.67199 4.592,1.00746 5.86133,1.71679 1.60533,0.93333 2.57617,2.53898 2.57617,4.18164 0,2.72533 -2.20228,4.51758 -5.59961,4.51758 -3.09866,0 -5.7502,-1.23183 -7.01953,-3.28516 -0.48533,-0.78399 -0.7102,-1.4556 -1.1582,-3.32226 -0.38399,1.57087 -2.08979,5.13633 -3.34961,7.12695 l -2.32422,-1.78906 -3.6211,-9.78125 c 0.82134,-0.448 1.45663,-0.59766 2.50196,-0.59766 0.336,0 0.55914,-2.2e-4 1.11914,0.0371 -0.48533,-0.70933 -1.30703,-2.61264 -1.56836,-3.69531 -0.70933,0.896 -1.60416,1.60467 -2.79883,2.38867 l -3.28515,-8.77343 2.05273,-2.24024 h -8.92383 l 2.05469,2.24024 -3.36133,9.03515 c -0.14933,-0.14933 -0.4107,-0.37404 -0.9707,-0.85937 -0.63467,-0.56 -0.82003,-0.70758 -1.19336,-1.26758 -0.0747,0.37333 -1.00791,2.20188 -1.64258,3.06054 1.344,0.14934 1.97833,0.3727 2.98633,1.08204 -2.016,6.64532 -4.25675,10.08066 -7.69141,11.61132 h 9.70703 l -0.33593,-0.37304 c -1.60533,-1.68 -1.94141,-2.31571 -1.94141,-3.73438 0,-1.19466 9.7e-4,-1.19432 1.79297,-6.57031 1.344,1.30666 2.7243,3.17311 4.4043,5.89844 0.41066,-0.74667 1.53128,-2.20294 2.50195,-3.21094 l 1.30664,-1.30664 2.6875,7.05664 -2.65039,2.24023 h 8.92187 0.85938 L 496.50781,607.25 c 1.01673,-0.5913 1.77195,-0.88672 2.40625,-0.88672 0.52267,0 1.23313,0.11367 2.0918,0.375 3.80799,1.15733 5.03981,1.41797 6.86914,1.41797 4.96532,0 8.77344,-3.3603 8.77344,-7.76563 0,-1.71733 -0.55992,-3.24802 -1.64258,-4.55468 -1.15733,-1.344 -2.76363,-2.16612 -5.37695,-2.80078 -4.592,-1.12 -4.59072,-1.11969 -5.74805,-1.67969 -1.60533,-0.74667 -2.42774,-1.94132 -2.42774,-3.58399 0,-2.42666 1.97953,-4.18164 4.74219,-4.18164 2.20267,0 4.33034,1.23295 5.26367,3.09961 0.37334,0.70934 0.59782,1.41817 0.89649,2.6875 0.93333,-2.42666 2.57582,-5.67453 3.28515,-6.5332 -1.15733,0.41067 -1.71885,0.56055 -2.35351,0.56055 -0.448,0 -1.00763,-0.11322 -2.01563,-0.44922 -2.27732,-0.70933 -3.65744,-0.96875 -5.4121,-0.96875 z m -36.25196,25.53515 -2.72461,-2.24023 v -20.42187 l 2.72461,-2.24024 h -9.89258 l 2.72461,2.24024 -6.00976,16.57617 -5.59961,-16.57617 2.72461,-2.24024 h -10.22852 l 2.72461,2.24024 v 15.45703 c 0,2.68799 -0.18609,4.03257 -0.74609,5.11523 -0.56,1.08267 -1.30729,1.67918 -2.50196,2.08984 h 8.06446 c -0.97067,-0.336 -1.5318,-0.71036 -2.0918,-1.45703 -0.85866,-1.15733 -1.15625,-2.57472 -1.15625,-5.74804 v -12.99219 l 6.86914,20.19726 h 1.34375 l 7.20508,-19.97265 v 17.73242 l -2.72461,2.24023 z m 104.98242,-25.53515 c -3.84532,0 -7.8024,1.1561 -10.78906,3.13476 l 2.72461,1.49414 v 8.81055 c -0.63466,0.0373 -1.0073,0.0742 -1.41797,0.0742 -0.224,0 -0.29893,2.2e-4 -0.93359,-0.0371 -0.112,0.52267 -0.2996,1.08246 -0.82227,2.31445 0.784,-0.336 1.49383,-0.44832 3.17383,-0.59765 v 8.10156 l -2.72461,2.24023 h 9.29492 l -2.72461,-2.24023 v -8.66211 c 0.784,-0.0373 3.80691,-0.55876 4.74024,-0.85742 2.31466,5.71199 3.28564,9.25849 4.18164,15.00781 1.60533,-1.26933 4.10638,-2.57605 6.23437,-3.24805 -0.10565,-0.0792 -0.22003,-0.19621 -0.32812,-0.28515 1.00251,-0.5799 1.75392,-0.87305 2.38281,-0.87305 0.52267,0 1.23118,0.11367 2.08985,0.375 3.80799,1.15733 5.03981,1.41797 6.86914,1.41797 4.96532,0 8.77343,-3.3603 8.77343,-7.76563 0,-1.71733 -0.55991,-3.24802 -1.64257,-4.55468 -1.15734,-1.344 -2.76363,-2.16612 -5.37696,-2.80078 -4.59199,-1.12 -4.59071,-1.11969 -5.74804,-1.67969 -1.60534,-0.74667 -2.42774,-1.94132 -2.42774,-3.58399 0,-2.42666 1.97953,-4.18164 4.74219,-4.18164 2.20266,0 4.33034,1.23295 5.26367,3.09961 0.37333,0.70934 0.59782,1.41817 0.89648,2.6875 0.93334,-2.42666 2.57583,-5.67453 3.28516,-6.5332 -1.15733,0.41067 -1.7169,0.56055 -2.35156,0.56055 -0.448,0 -1.00958,-0.11322 -2.01758,-0.44922 -2.27733,-0.70933 -3.65745,-0.96875 -5.41211,-0.96875 -4.62932,0 -7.83984,2.94908 -7.83984,7.20508 0,1.75466 0.56013,3.28385 1.60547,4.47851 1.08266,1.19467 2.61256,1.90485 5.33789,2.46485 3.47199,0.67199 4.59199,1.00746 5.86132,1.71679 1.60533,0.93333 2.57618,2.53898 2.57618,4.18164 0,2.72533 -2.20229,4.51758 -5.59961,4.51758 -3.09866,0 -5.7502,-1.23183 -7.01953,-3.28516 -0.48534,-0.78399 -0.70826,-1.4556 -1.15625,-3.32226 -0.38167,1.56137 -2.06848,5.08976 -3.32618,7.08789 -2.75581,-2.40272 -6.14766,-7.64075 -7.65039,-11.9043 4.144,-1.11999 6.53321,-3.50898 6.53321,-6.57031 0,-3.73333 -3.99383,-6.57031 -9.25782,-6.57031 z m 52.63868,0 c -6.86932,0 -10.71485,4.70331 -10.71485,13.14062 0,8.21332 3.88375,13.0293 10.56641,13.0293 6.64532,0 10.52734,-4.81575 10.52734,-13.06641 0,-8.21331 -3.88292,-13.10351 -10.3789,-13.10351 z m -263.57227,0.63281 c 1.30666,2.09066 2.24033,4.10795 2.875,5.97461 0.448,-1.344 0.6347,-1.86751 0.9707,-2.46484 0.70934,-1.19467 2.1286,-1.9043 3.8086,-1.9043 0.52266,0 1.1185,0.0386 2.20117,0.11328 v 20.94336 l -2.72461,2.24023 h 9.29492 l -2.72461,-2.24023 v -20.94336 c 1.04533,-0.0747 1.68046,-0.11328 2.20313,-0.11328 1.67999,0 3.09926,0.70963 3.80859,1.9043 0.336,0.59733 0.5227,1.12084 0.9707,2.46484 0.59734,-1.86666 1.56639,-3.88395 2.87305,-5.97461 z m 24.08008,0 2.72461,2.24024 v 8.8496 c -1.82933,0.41067 -2.83732,1.41715 -3.58399,3.50782 0.70934,-1.008 1.97866,-1.60525 3.58399,-1.64258 v 9.70703 l -2.72461,2.24023 h 9.33398 l -2.76367,-2.24023 v -9.70703 c 1.30666,0.336 2.83752,0.48633 4.85352,0.48633 1.30666,0 2.42771,-0.0753 3.73437,-0.22461 v 9.44531 l -2.76367,2.24023 h 9.33398 l -2.72656,-2.24023 v -20.42187 l 2.72656,-2.24024 h -9.33398 l 2.76367,2.24024 v 9.22265 c -1.04533,0.14933 -1.94138,0.22266 -3.24805,0.22266 -2.16532,0 -3.77184,-0.18504 -5.33984,-0.59571 v -8.8496 l 2.76367,-2.24024 z m 23.74414,0 2.72461,2.24024 v 8.4746 c -2.24,0 -3.50836,0.97229 -4.06836,2.98829 1.19466,-1.008 2.38836,-1.42015 4.06836,-1.38282 v 10.3418 l -2.72461,2.24023 h 21.50391 c -2.24,-2.12799 -3.13705,-3.69677 -3.73438,-6.38476 -1.08266,1.97866 -1.82839,2.94932 -2.76172,3.58398 -1.15733,0.784 -3.248,1.19532 -5.86133,1.19532 -0.63466,0 -1.1575,-0.0367 -2.57617,-0.11133 v -10.86524 h 5.26367 l 2.50196,2.98633 v -7.57812 l -2.50196,2.98632 h -5.26367 v -8.99609 c 1.41867,-0.0747 2.39038,-0.11328 3.73438,-0.11328 3.91999,0 5.00148,0.63594 6.38281,3.69727 0.112,0.22399 0.22416,0.41076 0.29883,0.63476 0.97066,-2.68799 1.56866,-3.6975 3.47265,-5.9375 z m 105.72656,0 c 1.30667,2.09066 2.24034,4.10795 2.875,5.97461 0.448,-1.344 0.6347,-1.86751 0.9707,-2.46484 0.70934,-1.19467 2.1286,-1.9043 3.8086,-1.9043 0.52266,0 1.12046,0.0386 2.20312,0.11328 v 20.94336 l -2.72656,2.24023 h 9.29688 l -2.72461,-2.24023 v -20.94336 c 1.04533,-0.0747 1.6785,-0.11328 2.20117,-0.11328 1.68,0 3.09926,0.70963 3.80859,1.9043 0.336,0.59733 0.52271,1.12084 0.9707,2.46484 0.59734,-1.86666 1.56834,-3.88395 2.875,-5.97461 z m 24.08008,0 2.72656,2.24024 v 8.4746 c -2.23999,0 -3.51031,0.97229 -4.07031,2.98829 1.19466,-1.008 2.39031,-1.42015 4.07031,-1.38282 v 10.3418 l -2.72656,2.24023 h 21.50391 c -2.24,-2.12799 -3.13509,-3.69677 -3.73243,-6.38476 -1.08266,1.97866 -1.83034,2.94932 -2.76367,3.58398 -1.15733,0.784 -3.248,1.19532 -5.86133,1.19532 -0.63466,0 -1.15555,-0.0367 -2.57421,-0.11133 v -10.86524 h 5.26367 l 2.5,2.98633 v -7.57812 l -2.5,2.98632 h -5.26367 v -8.99609 c 1.41866,-0.0747 2.38842,-0.11328 3.73242,-0.11328 3.91999,0 5.00343,0.63594 6.38476,3.69727 0.112,0.22399 0.22416,0.41076 0.29883,0.63476 0.97067,-2.68799 1.56671,-3.6975 3.4707,-5.9375 z m 98.59766,0 2.72461,2.24024 v 8.4746 c -2.24,0 -3.5457,0.97229 -4.06836,2.98829 1.15733,-1.008 2.42569,-1.45748 4.06836,-1.38282 v 10.3418 l -2.72461,2.24023 h 9.29687 l -2.72656,-2.24023 v -10.3418 h 5.26367 l 2.50195,2.98633 v -7.57812 l -2.50195,2.98632 h -5.26367 v -8.99609 c 1.41866,-0.0747 2.39038,-0.11328 3.73437,-0.11328 3.92,0 5.00148,0.63594 6.38282,3.69727 0.112,0.22399 0.22416,0.41076 0.29882,0.63476 0.97067,-2.68799 1.56866,-3.6975 3.47266,-5.9375 z m -65.81836,0.9707 c 3.21066,0 5.5625,2.12925 5.5625,5.00391 0,3.58399 -3.24716,5.89831 -9.25782,6.57031 v -10.1914 c 1.12,-0.97067 2.23932,-1.38282 3.69532,-1.38282 z m 52.71484,0 c 2.128,0 4.18145,1.2325 5.18945,3.17383 1.008,1.86667 1.41797,4.40551 1.41797,8.4375 0,3.73333 -0.41064,6.23445 -1.30664,8.17578 -0.896,1.94133 -2.80018,3.17383 -4.85351,3.17383 -2.05333,0 -4.14284,-1.30716 -5.07618,-3.17383 -1.00799,-1.94133 -1.41992,-4.44156 -1.41992,-8.32422 0,-3.88266 0.37331,-6.34773 1.30664,-8.28906 0.896,-1.90399 2.80086,-3.17383 4.74219,-3.17383 z m -144.10742,3.02539 3.66015,9.63086 c -0.67199,0.63467 -1.30808,1.30764 -1.71875,1.79297 -0.78399,1.008 -1.23152,1.56747 -1.38085,1.7168 l -0.18555,-0.29883 c -1.344,-1.94133 -2.16555,-2.94807 -3.54688,-4.44141 z m -20.43945,36.91016 c -6.30933,0 -10.86329,5.56303 -10.86329,13.29102 0,3.84532 1.15761,7.3533 3.21094,9.66797 1.792,2.05332 4.62963,3.21093 7.76563,3.21093 3.77066,0 6.45812,-1.64269 7.57812,-4.55469 0.41067,-1.11999 0.70899,-2.61331 0.70899,-3.58398 0,-0.784 -0.26077,-1.23242 -0.7461,-1.23242 -0.41066,0 -0.59721,0.26227 -0.67187,0.82226 -0.37334,4.40533 -2.65061,6.90625 -6.19727,6.90625 -4.74132,0 -7.42969,-4.33105 -7.42969,-11.98437 0,-3.69599 0.55902,-6.34578 1.79102,-8.28711 0.97066,-1.60533 2.80002,-2.65039 4.55469,-2.65039 1.79199,0 3.73441,1.08239 4.70507,2.65039 0.70934,1.19466 1.11953,2.42608 1.38086,4.33008 1.232,-3.09866 1.94126,-4.51651 3.91993,-7.95117 -1.12,0.78399 -1.60618,0.9707 -2.46485,0.9707 -0.70933,0 -1.34311,-0.14988 -2.42578,-0.56055 -2.31466,-0.85866 -3.09907,-1.04492 -4.8164,-1.04492 z m 131.67382,0 c -6.30932,0 -10.86328,5.56303 -10.86328,13.29102 0,3.84532 1.15761,7.3533 3.21094,9.66797 1.792,2.05332 4.62963,3.21093 7.76562,3.21093 3.77066,0 6.45813,-1.64269 7.57813,-4.55469 0.41067,-1.11999 0.70898,-2.61331 0.70898,-3.58398 0,-0.784 -0.26076,-1.23242 -0.74609,-1.23242 -0.41067,0 -0.59721,0.26227 -0.67188,0.82226 -0.37333,4.40533 -2.6506,6.90625 -6.19726,6.90625 -4.74133,0 -7.42969,-4.33105 -7.42969,-11.98437 0,-3.69599 0.56097,-6.34578 1.79297,-8.28711 0.97067,-1.60533 2.80002,-2.65039 4.55469,-2.65039 1.79199,0 3.73246,1.08239 4.70312,2.65039 0.70934,1.19466 1.11953,2.42608 1.38086,4.33008 1.232,-3.09866 1.94126,-4.51651 3.91992,-7.95117 -1.11999,0.78399 -1.60422,0.9707 -2.46289,0.9707 -0.70933,0 -1.34507,-0.14988 -2.42773,-0.56055 -2.31466,-0.85866 -3.09908,-1.04492 -4.81641,-1.04492 z m -186.10547,0.63477 2.72461,2.24023 v 8.47461 c -2.23999,0 -3.50836,0.97033 -4.06836,2.98633 1.19467,-1.008 2.38837,-1.41819 4.06836,-1.38086 v 10.33984 l -2.72461,2.24024 h 21.01954 0.48437 7.24219 l -2.76172,-2.24024 5.89844,-8.17578 5.11523,8.17578 -2.76367,2.24024 h 9.74414 l -2.76172,-2.24024 -6.60937,-10.56445 5.04101,-6.94336 c 1.49333,-2.09066 3.17374,-3.84568 4.81641,-5.15234 h -7.4668 l 2.76172,2.24023 -6.08594,8.39844 -5.22656,-8.39844 2.72656,-2.24023 h -9.66992 l 2.76367,2.24023 6.71875,10.78906 -4.96484,6.83203 c -1.77907,2.45512 -2.61182,3.29952 -4.71875,4.82618 -2.07222,-2.01779 -2.9548,-3.57591 -3.53125,-6.16993 -1.08267,1.97867 -1.83034,2.94932 -2.76367,3.58399 -1.15733,0.784 -3.248,1.19336 -5.86133,1.19336 -0.63467,0 -1.15751,-0.0367 -2.57617,-0.11133 v -10.86328 h 5.26367 l 2.50195,2.98633 v -7.58008 l -2.50195,2.98828 h -5.26367 v -8.99805 c 1.41866,-0.0747 2.39037,-0.11133 3.73437,-0.11133 3.91999,0 5.00148,0.63399 6.38281,3.69532 0.112,0.224 0.22417,0.41076 0.29883,0.63476 0.97067,-2.68799 1.56866,-3.69555 3.47266,-5.93554 z m 65.55665,0 2.72656,2.24023 v 8.47461 c -2.24,0 -3.51032,0.97033 -4.07032,2.98633 1.19467,-1.008 2.39032,-1.41819 4.07032,-1.38086 v 10.33984 l -2.72656,2.24024 h 21.5039 c -2.23999,-2.128 -3.13509,-3.69482 -3.73242,-6.38282 -1.08267,1.97867 -1.83034,2.94932 -2.76367,3.58399 -1.15733,0.784 -3.248,1.19336 -5.86133,1.19336 -0.63467,0 -1.15556,-0.0367 -2.57422,-0.11133 v -10.86328 h 5.26367 l 2.5,2.98633 v -7.58008 l -2.5,2.98828 h -5.26367 v -8.99805 c 1.41866,-0.0747 2.38842,-0.11133 3.73242,-0.11133 3.92,0 5.00344,0.63399 6.38477,3.69532 0.112,0.224 0.22416,0.41076 0.29883,0.63476 0.97066,-2.68799 1.5667,-3.69555 3.4707,-5.93554 z m 22.51171,0 2.72657,2.24023 v 20.41992 l -2.72657,2.24024 h 20.31055 c -0.93333,-0.74667 -2.68882,-4.06886 -3.77148,-7.24219 -0.70934,4.03199 -2.64943,5.63672 -6.71875,5.63672 -1.008,0 -1.79205,-0.0367 -3.24805,-0.11133 v -20.94336 l 2.72461,-2.24023 z m 20.83203,0 2.72657,2.24023 v 20.41992 l -2.72657,2.24024 h 20.31055 c -0.93333,-0.74667 -2.68882,-4.06886 -3.77148,-7.24219 -0.70933,4.03199 -2.64943,5.63672 -6.71875,5.63672 -1.008,0 -1.79205,-0.0367 -3.24805,-0.11133 V 626.40039 L 526,624.16016 Z m 20.83204,0 2.72656,2.24023 v 8.47461 c -2.24,0 -3.51031,0.97033 -4.07031,2.98633 1.19466,-1.008 2.39031,-1.41819 4.07031,-1.38086 v 10.33984 l -2.72656,2.24024 h 21.5039 c -2.23999,-2.128 -3.13509,-3.69482 -3.73242,-6.38282 -1.08266,1.97867 -1.83034,2.94932 -2.76367,3.58399 -1.15733,0.784 -3.248,1.19336 -5.86133,1.19336 -0.63466,0 -1.15555,-0.0367 -2.57422,-0.11133 v -10.86328 h 5.26367 l 2.5,2.98633 v -7.58008 l -2.5,2.98828 h -5.26367 v -8.99805 c 1.41867,-0.0747 2.38843,-0.11133 3.73242,-0.11133 3.92,0 5.00344,0.63399 6.38477,3.69532 0.112,0.224 0.22416,0.41076 0.29883,0.63476 0.97066,-2.68799 1.5667,-3.69555 3.4707,-5.93554 z m 22.51172,0 2.72656,2.24023 v 16.20117 c 0,4.18133 -0.70939,5.60032 -3.24805,6.45899 h 8.06445 c -2.53866,-0.85867 -3.24804,-2.27766 -3.24804,-6.45899 v -14.29883 l 10.71484,20.75782 h 3.13477 v -18.44141 c 0,-4.18132 0.70938,-5.60032 3.24804,-6.45898 H 573.375 c 2.53866,0.85866 3.24805,2.27766 3.24805,6.45898 v 13.70117 l -9.25782,-17.91992 2.72461,-2.24023 z m 44.98828,0 2.72461,2.24023 v 8.47461 c -2.24,0 -3.51032,0.97033 -4.07032,2.98633 1.19467,-1.008 2.39032,-1.41819 4.07032,-1.38086 v 10.33984 l -2.72461,2.24024 h 21.5039 c -2.23999,-2.128 -3.13704,-3.69482 -3.73437,-6.38282 -1.08267,1.97867 -1.82839,2.94932 -2.76172,3.58399 -1.15733,0.784 -3.248,1.19336 -5.86133,1.19336 -0.63466,0 -1.15751,-0.0367 -2.57617,-0.11133 v -10.86328 h 5.26367 l 2.50195,2.98633 v -7.58008 l -2.50195,2.98828 h -5.26367 v -8.99805 c 1.41866,-0.0747 2.38842,-0.11133 3.73242,-0.11133 3.91999,0 5.00344,0.63399 6.38477,3.69532 0.112,0.224 0.22416,0.41076 0.29882,0.63476 0.97067,-2.68799 1.56671,-3.69555 3.47071,-5.93554 z" /><path
         id="rect8152-5-5-9-7-3-6-1-9-2-5-2"
         style="font-variation-settings:normal;opacity:1;vector-effect:none;fill:url(#linearGradient7145);fill-opacity:1;stroke:#a37b33;stroke-width:6.66965;stroke-linecap:butt;stroke-linejoin:miter;stroke-miterlimit:4;stroke-dasharray:none;stroke-dashoffset:0;stroke-opacity:1;-inkscape-stroke:none;stop-color:#000000;stop-opacity:1"
         d="m 555.20815,552.04882 c 0,0 161.6476,0.71616 243.6817,0.71616 22.4415,0 97.8898,-11.77002 97.8898,-11.77002 0,0 -19.0335,50.45967 -100.7072,61.23102 -121.8428,16.06895 -222.99,-7.7944 -232.9433,-10.46137 -6.6672,-1.78646 -31.405,-8.68662 -31.405,-25.05122 0,-16.36461 23.484,-14.66459 23.484,-14.66459 z"
         class="UnoptimicedTransforms"
         transform="matrix(0.24119402,0.37966381,-0.37966381,0.24119402,802.47961,357.97132)" /><path
         class="UnoptimicedTransforms"
         id="path9001-6-1-0-6-2-8-2"
         d="m 555.20815,552.04882 c 0,0 161.6476,0.71616 243.6817,0.71616 22.4415,0 97.8898,-11.77002 97.8898,-11.77002 0,0 -19.0335,50.45967 -100.7072,61.23102 -121.8428,16.06895 -222.99,-7.7944 -232.9433,-10.46137 -6.6672,-1.78646 -31.405,-8.68662 -31.405,-25.05122 0,-16.36461 23.484,-14.66459 23.484,-14.66459 z"
         style="font-variation-settings:normal;opacity:1;vector-effect:none;fill:url(#linearGradient7147);fill-opacity:1;stroke:#a37b33;stroke-width:4.74302;stroke-linecap:butt;stroke-linejoin:miter;stroke-miterlimit:4;stroke-dasharray:none;stroke-dashoffset:0;stroke-opacity:1;-inkscape-stroke:none;stop-color:#000000;stop-opacity:1"
         transform="matrix(-0.61846175,0.13255699,0.13255699,0.61846175,565.01545,249.48703)" /><path
         class="UnoptimicedTransforms"
         id="path9001-6-1-0-6-2-8-2-3-9-8"
         d="m 555.20815,552.04882 c 0,0 161.6476,0.71616 243.6817,0.71616 22.4415,0 97.8898,-11.77002 97.8898,-11.77002 0,0 -19.0335,50.45967 -100.7072,61.23102 -121.8428,16.06895 -222.99,-7.7944 -232.9433,-10.46137 -6.6672,-1.78646 -31.405,-8.68662 -31.405,-25.05122 0,-16.36461 23.484,-14.66459 23.484,-14.66459 z"
         style="font-variation-settings:normal;opacity:1;vector-effect:none;fill:url(#linearGradient32202);fill-opacity:1;stroke:#a37b33;stroke-width:6.66965;stroke-linecap:butt;stroke-linejoin:miter;stroke-miterlimit:4;stroke-dasharray:none;stroke-dashoffset:0;stroke-opacity:1;-inkscape-stroke:none;stop-color:#000000;stop-opacity:1"
         transform="matrix(-0.24119402,0.37966381,0.37966381,0.24119402,221.52039,357.97132)" /><path
         style="opacity:1;fill:#ffffff;fill-opacity:0.33;stroke:#ffffff;stroke-width:1;stroke-dasharray:none;stroke-opacity:0.33;stop-color:#000000"
         d="M 465.27626,773.45139 C 391.08843,767.46133 317.68944,747.07311 260.9224,716.68747 161.76265,663.61035 115.38887,584.57964 115.38887,501.2168 c 0,-72.9077 33.22926,-142.94039 111.62355,-195.12958 7.82038,-5.20624 16.11406,-12.5162 16.34128,-12.22178 0.22722,0.29442 2.4918,7.96309 3.83393,13.0189 1.34214,5.05582 9.87528,31.30356 10.94377,32.86979 l 8.30624,23.00432 -14.99202,19.05163 c -34.51073,43.85571 -42.23531,122.86212 -31.73599,162.0461 25.85487,96.49165 77.27636,133.72173 179.44765,159.55332 38.18243,9.65353 69.11989,13.31498 112.79099,13.34884 33.53637,0.026 49.7398,-1.42248 78.15965,-6.37856 115.11503,-20.07459 185.71645,-61.65725 212.30415,-160.88408 15.01821,-56.04882 -2.33405,-139.72222 -27.22158,-167.04157 l -17.77686,-19.51388 11.19239,-29.92856 c 0,0 11.09479,-35.04046 11.44705,-36.03648 0.65327,-1.8471 21.97879,11.71662 40.90234,26.07099 13.63265,10.34097 47.62934,45.12998 56.76149,58.08436 28.02753,39.75838 42.8334,77.69583 42.8334,120.08624 0,36.54495 -12.3393,72.15971 -32.87124,105.21558 -10.42839,16.78942 -18.70335,27.21238 -34.86587,43.91628 -67.27104,69.52433 -173.32539,113.53969 -296.87908,123.21264 -20.8784,1.63456 -69.78666,1.57526 -90.65785,-0.10989 z"
         id="path5452" /><g
         id="g9"
         transform="matrix(1.8988661,0,0,2.3902564,108.27841,582.16052)"
         style="fill:#000000">
		<path
   id="path11"
   fill-rule="evenodd"
   d="m 217.74,92.907 c -17.6,0.396 -37.33,-0.216 -59.87,-1.836 -22.71,-1.691 -47.12,-4.392 -74.77,-8.1 V 69.651 C 67.116,67.311 53.112,65.079 40.512,62.559 27.912,60.038 17.292,57.483 8.076,54.746 18.228,52.226 27.372,49.742 36.336,47.69 45.156,45.602 53.292,43.55 60.888,41.93 50.268,36.278 40.872,30.698 32.124,25.19 23.341,19.539 15.781,14.247 8.869,8.739 c 15.552,3.349 29.7,6.265 42.876,8.604 13.068,2.34 20.988,3.527 35.568,5.508 14.617,1.908 31.497,3.78 51.477,5.76 v 14.112 c 10.98,1.116 22.83,1.979 36.07,2.592 13.22,0.54 27.15,0.937 42.63,1.044 h 0.5 c 15.45,-0.107 29.38,-0.504 42.63,-1.044 13.17,-0.612 25.05,-1.476 36.07,-2.592 V 28.611 c 19.94,-1.979 36.83,-3.852 51.48,-5.76 14.58,-1.98 22.35,-3.168 35.57,-5.508 13.17,-2.34 27.18,-5.256 42.84,-8.604 -6.95,5.508 -14.51,10.8 -23.26,16.452 -8.78,5.508 -18.22,11.088 -28.73,16.74 7.56,1.62 15.7,3.672 24.55,5.76 8.79,2.052 18.15,4.536 28.23,7.056 -9.22,2.736 -19.84,5.292 -32.4,7.813 -12.67,2.52 -26.61,4.752 -42.63,7.092 v 13.32 c -27.57,3.708 -52.16,6.408 -74.73,8.1 -22.57,1.619 -42.3,2.232 -59.87,1.835 z"
   style="fill:#000000" /><path
   id="path11-6"
   fill-rule="evenodd"
   d="m 217.74015,95.820308 c -17.6,0.396002 -37.33,-0.216 -59.87,-1.836004 -22.71,-1.691004 -47.12,-4.392012 -74.769999,-8.10002 V 72.56424 c -15.983999,-2.340006 -29.987999,-4.572012 -42.588,-7.092018 -12.6,-2.521008 -23.22,-5.076014 -32.4359996,-7.81302 10.1519996,-2.520008 19.2959996,-5.004014 28.2599996,-7.056018 8.82,-2.088006 16.956001,-4.140012 24.552001,-5.760016 -10.62,-5.652014 -20.016001,-11.232028 -28.764001,-16.740042 -8.783,-5.651024 -16.343,-10.943038 -23.2549996,-16.451042 15.5519996,3.348998 29.6999996,6.265006 42.8760006,8.604012 13.068,2.340006 20.987999,3.527008 35.567999,5.508024 14.616999,1.908004 31.496999,3.78001 51.476999,5.760014 V 45.63617 c 10.98,1.116004 22.83,1.979006 36.07,2.592008 13.22,0.54 27.15,0.937002 42.63,1.044002 h 0.5 c 15.45,-0.107 29.38001,-0.504002 42.63001,-1.044002 13.17,-0.612002 25.05,-1.476004 36.07,-2.592008 V 31.524134 c 19.94,-1.979004 36.83,-3.85201 51.48,-5.760014 14.58,-1.980016 22.35,-3.168018 35.57,-5.508024 13.17,-2.340006 27.18,-5.256014 42.84,-8.604012 -6.95,5.508004 -14.51,10.800018 -23.26,16.452042 -8.78,5.508014 -18.22,11.088028 -28.73,16.740042 7.56,1.620004 15.7,3.67201 24.55,5.760016 8.79,2.052004 18.15,4.53601 28.23,7.056018 -9.22,2.736006 -19.84,5.292012 -32.4,7.81302 -12.67,2.520006 -26.61,4.752012 -42.63,7.092018 v 13.320044 c -27.57,3.708008 -52.16,6.408016 -74.73,8.10002 -22.57,1.619004 -42.30001,2.232006 -59.87001,1.835004 z"
   style="fill:#000000" />
		
	</g><path
         id="path15"
         d="m 137.01395,609.50506 c 13.3984,4.7327 29.94132,9.3698 50.17563,14.29373 20.30268,4.90002 42.24598,9.70444 70.61504,14.79569 28.23234,4.80441 60.29849,9.46541 97.74413,14.26983 -11.33623,0.9561 -24.1156,3.01172 -39.36349,6.21466 -15.32385,3.25075 -31.994,7.12297 -51.13457,12.54885 v 71.25354 c -14.62886,-2.66752 -32.33389,-6.79789 -53.86703,-11.44454 -21.73822,-4.73032 -46.00573,-10.92826 -74.64823,-17.64488 21.80658,-7.74443 40.537,-13.67226 57.01156,-18.76351 16.54292,-4.97173 29.59952,-8.60492 40.74207,-10.82786 -13.26168,-8.27029 -27.54875,-18.42888 -43.88659,-30.81041 -16.26949,-12.47714 -33.97642,-27.1055 -53.38852,-43.8851 z"
         fill-rule="evenodd"
         stroke="#000000"
         stroke-miterlimit="10"
         stroke-width="0.0766959"
         fill="#437abe"
         style="fill:#721119;fill-opacity:1" /><path
         id="path17"
         d="m 278.65417,672.22538 90.03473,-19.36107 v 30.11723 c -15.03902,-1.29074 -29.60332,-2.65319 -44.77526,-4.46978 -15.11497,-1.8883 -30.01728,-3.87222 -45.25947,-6.28638 z"
         fill-rule="evenodd"
         stroke="#000000"
         stroke-miterlimit="10"
         stroke-width="0.0766959"
         fill="#437abe"
         style="fill:#721119;fill-opacity:1" /><path
         id="path19"
         d="m 906.46677,609.50506 c -13.53891,4.7327 -29.94512,9.3698 -50.244,14.29373 -20.50775,4.90002 -42.38269,9.70444 -70.61883,14.79569 -28.2931,4.80441 -60.36495,9.46541 -97.75362,14.26983 11.2223,0.9561 24.05863,3.01172 39.38248,6.21466 15.22891,3.25075 31.91994,7.12297 51.13646,12.54885 v 71.25354 c 14.54532,-2.66752 32.26174,-6.79789 53.85185,-11.44454 21.60909,-4.73032 46.08548,-10.92826 74.72038,-17.64488 -21.93191,-7.74443 -40.59776,-13.67226 -57.00396,-18.76351 -16.61508,-4.97173 -29.67928,-8.60492 -40.74967,-10.82786 13.12117,-8.27029 27.49558,-18.42888 43.8828,-30.81041 16.19732,-12.47714 33.91374,-27.1055 53.39611,-43.8851 z"
         fill-rule="evenodd"
         stroke="#000000"
         stroke-miterlimit="10"
         stroke-width="0.0766959"
         fill="#437abe"
         style="fill:#721119;fill-opacity:1" /><path
         id="path21"
         d="m 764.83035,672.22538 -90.1012,-19.36107 v 30.11723 c 14.9061,-1.29074 29.66029,-2.65319 44.83223,-4.46978 15.03902,-1.8883 29.94512,-3.87222 45.26897,-6.28638 z"
         fill-rule="evenodd"
         stroke="#000000"
         stroke-miterlimit="10"
         stroke-width="0.0766959"
         fill="#437abe"
         style="fill:#721119;fill-opacity:1" /><path
         id="path23"
         d="m 518.05371,799.84356 c -21.13438,0.34659 -45.26897,-0.43024 -74.24566,-2.32333 -29.18558,-2.32333 -68.77693,-5.85134 -98.17138,-9.63751 -29.31849,-3.87222 -54.54113,-7.74443 -76.48443,-12.56319 V 675.06979 c 21.53314,3.87221 43.27326,7.40979 66.04066,10.2542 22.74842,2.58148 38.54699,4.73271 69.23266,6.78833 30.57175,1.8883 67.61862,3.60928 112.73568,5.16295 h 9.15254 c 45.11706,-1.55367 81.97405,-3.27465 112.65972,-5.16295 30.34388,-2.05562 46.40829,-4.20685 69.25165,-6.78833 22.69145,-2.84441 44.35751,-6.38199 66.09953,-10.2542 v 100.24974 c -22.08381,4.81876 -47.24379,8.69097 -76.48633,12.56319 -29.54635,3.78617 -69.3276,7.31657 -98.24733,9.63751 -29.05265,1.89309 -53.2442,2.66753 -74.16971,2.32333 z"
         fill-rule="evenodd"
         stroke="#000000"
         stroke-miterlimit="10"
         stroke-width="0.0766959"
         fill="#437abe"
         style="fill:#721119;fill-opacity:1" /><path
         style="font-size:97.5817px;font-family:'Algerian Basic D';-inkscape-font-specification:'Algerian Basic D';text-align:center;letter-spacing:6px;text-anchor:middle;stroke:#000000;stroke-width:2"
         d="m 387.65799,636.39285 -23.17941,-2.57532 4.68765,6.41174 -11.33628,22.50058 c -0.34484,-0.43104 -0.95909,-1.08838 -2.27378,-2.51082 -1.48711,-1.63795 -1.92894,-2.07977 -2.73715,-3.6423 -0.30173,0.9483 -3.25435,5.43118 -5.15092,7.47865 3.44835,0.77586 5.03244,1.54095 7.44631,3.6746 -7.15521,16.68145 -13.96564,24.95754 -23.33005,27.94259 l 25.21609,2.80159 -0.76511,-1.06682 c -3.68546,-4.82767 -4.37514,-6.57339 -3.96568,-10.25882 0.34481,-3.10352 0.34481,-3.10352 6.55174,-16.55213 3.11432,3.78239 6.164,9.03032 9.74172,16.59512 1.28234,-1.82117 4.61213,-5.28032 7.42467,-7.61876 l 3.77161,-3.01733 4.94637,19.10598 -7.53245,5.05404 25.41005,2.82315 -6.9183,-6.65957 -6.58439,-26.45527 c 2.26298,-0.92676 3.95482,-1.13152 6.6704,-0.82981 0.87286,0.097 1.45477,0.16163 2.89877,0.42025 -1.05607,-1.9828 -2.64019,-7.16609 -3.0066,-10.05408 -2.10133,2.12291 -4.6337,3.70701 -7.9635,5.39888 l -6.00246,-23.73969 z m -15.89468,8.73953 6.72447,26.0781 c -1.92891,1.45479 -3.77161,3.01734 -4.97852,4.15961 -2.32762,2.39231 -3.65307,3.71778 -4.08411,4.06262 l -0.39872,-0.82976 c -2.93114,-5.43113 -4.77388,-8.28678 -7.9313,-12.56487 z m 47.78398,46.76686 c -3.79541,-0.27945 -6.92992,2.42513 -7.20221,6.12322 -0.26513,3.60078 2.43946,6.73529 6.04023,7.00042 3.6981,0.27229 6.83261,-2.4323 7.09773,-6.03307 0.27229,-3.6981 -2.43229,-6.83261 -5.93575,-7.09057 z m 75.56512,-48.81012 c -3.00892,1.9276 -4.2964,2.36315 -6.53889,2.27123 -1.8525,-0.0759 -3.49401,-0.53387 -6.27755,-1.72227 -5.95307,-2.49027 -7.98058,-3.06169 -12.46558,-3.24553 -16.47747,-0.67539 -28.96791,13.36452 -29.79517,33.54698 -0.41163,10.04249 2.2352,19.33136 7.34991,25.59615 4.46019,5.55432 11.74629,8.88054 19.93628,9.21624 9.84748,0.40364 17.04331,-3.59861 20.28002,-11.0837 1.1924,-2.88104 2.13225,-6.74906 2.23616,-9.28406 0.0839,-2.04749 -0.55062,-3.24547 -1.81812,-3.29742 -1.0725,-0.044 -1.58797,0.61856 -1.84292,2.07306 -1.44657,11.46502 -7.66182,17.75372 -16.9243,17.37407 -12.38248,-0.50755 -18.93889,-12.10527 -18.11962,-32.09274 0.39564,-9.65248 2.14189,-16.51502 5.56719,-21.45313 2.70685,-4.08859 7.59624,-6.62276 12.17873,-6.43493 4.67999,0.19183 9.63409,3.22714 12.00123,7.42604 1.72461,3.19592 2.66523,6.45738 3.14391,11.45785 3.5492,-7.96061 5.55356,-11.58967 11.08872,-20.34784 z m 15.85201,52.5518 c -3.80552,-0.0348 -6.75965,2.86568 -6.7936,6.57363 -0.0331,3.61037 2.86747,6.5645 6.47784,6.59756 3.70795,0.034 6.66208,-2.86658 6.69514,-6.47695 0.0339,-3.70795 -2.86658,-6.66208 -6.37938,-6.69424 z m 17.99918,-52.29275 7.25251,5.69428 0.49493,22.14551 c -5.85344,0.13082 -9.11371,2.74144 -10.45933,8.04224 3.06297,-2.70381 6.16082,-3.84672 10.55308,-3.84727 l 0.60394,27.02338 -6.99087,6.01261 56.19303,-1.25586 c -5.97771,-5.42995 -8.41066,-9.47503 -10.12856,-16.46427 -2.71361,5.23376 -4.60807,7.81386 -7.00994,9.52684 -2.97849,2.1163 -8.41772,3.31153 -15.24673,3.46415 -1.65847,0.0371 -3.02646,-0.03 -6.738,-0.14224 l -0.63446,-28.38918 13.75558,-0.30742 6.71077,7.6585 -0.4426,-19.80414 -6.36192,7.95067 -13.75559,0.30742 -0.52545,-23.51132 c 3.70282,-0.27796 6.23713,-0.43221 9.74919,-0.5107 10.24353,-0.22893 13.10975,1.36632 16.89816,9.28535 0.30575,0.5788 0.60933,1.06005 0.81752,1.64103 2.37951,-7.08082 3.88156,-9.74975 8.72617,-15.71439 z m 74.26817,50.21925 c -3.80018,0.20447 -6.56612,3.28498 -6.36689,6.98773 0.19398,3.60531 3.27449,6.37124 6.8798,6.17726 3.70275,-0.19923 6.46869,-3.27974 6.2747,-6.88505 -0.19923,-3.70275 -3.27974,-6.46868 -6.78761,-6.27994 z m 62.32679,-56.79056 c -2.92383,1.32447 -4.34946,1.83674 -6.00245,1.97651 -1.16682,0.0987 -2.65,-0.0697 -5.34934,-0.72281 -6.08754,-1.34591 -9.74278,-1.72233 -14.31281,-1.33589 -12.0571,1.01955 -19.76973,9.40819 -18.8324,20.49295 0.38644,4.57003 2.18207,8.43332 5.16775,11.31461 3.08291,2.87306 7.22576,4.38342 14.44722,5.24172 9.19083,0.98556 12.18187,1.61401 15.64407,3.18191 4.38664,2.07732 7.2683,6.04463 7.63007,10.32296 0.60022,7.09813 -4.74196,12.2505 -13.59032,12.99872 -8.07048,0.68244 -15.24547,-1.94253 -19.00367,-7.01088 -1.43672,-1.93504 -2.16812,-3.63594 -3.74605,-8.399 -0.69958,4.466 -4.86779,15.3949 -7.76266,20.53619 3.31134,-2.5324 5.38472,-3.49116 7.32942,-3.65561 1.36128,-0.11511 3.23341,0.0204 5.52736,0.51191 10.17283,2.17561 13.43913,2.58492 18.20363,2.18204 12.93221,-1.09355 22.11015,-10.68333 21.13994,-22.15703 -0.37822,-4.47279 -2.17385,-8.33608 -5.28143,-11.50085 -3.31028,-3.24557 -7.67226,-5.03118 -14.61846,-6.10861 -12.20653,-1.90572 -12.20653,-1.90572 -15.34414,-3.10935 -4.34554,-1.59114 -6.74781,-4.52176 -7.10958,-8.80009 -0.53445,-6.32025 4.23255,-11.32606 11.42792,-11.9345 5.73685,-0.48511 11.55055,2.25497 14.39253,6.91115 1.12857,1.76524 1.8682,3.56337 2.92563,6.80357 1.89642,-6.52581 5.45942,-15.347 7.11777,-17.73962 z m 25.45231,49.34087 c -3.77989,0.44233 -6.34725,3.69019 -5.91626,7.37316 0.41964,3.58605 3.6675,6.15341 7.25355,5.73377 3.68298,-0.43099 6.25034,-3.67885 5.83069,-7.2649 -0.43098,-3.68297 -3.67884,-6.25033 -7.16798,-5.84203 z"
         id="text233-8"
         transform="translate(0.88064111,79.240692)"
         aria-label="A.C.E.S." /><path
         style="font-size:97.5817px;font-family:'Algerian Basic D';-inkscape-font-specification:'Algerian Basic D';text-align:center;letter-spacing:6px;text-anchor:middle;fill:#f2ce6a;stroke:#000000;stroke-width:2"
         d="m 387.65799,636.39285 -23.17941,-2.57532 4.68765,6.41174 -11.33628,22.50058 c -0.34484,-0.43104 -0.95909,-1.08838 -2.27378,-2.51082 -1.48711,-1.63795 -1.92894,-2.07977 -2.73715,-3.6423 -0.30173,0.9483 -3.25435,5.43118 -5.15092,7.47865 3.44835,0.77586 5.03244,1.54095 7.44631,3.6746 -7.15521,16.68145 -13.96564,24.95754 -23.33005,27.94259 l 25.21609,2.80159 -0.76511,-1.06682 c -3.68546,-4.82767 -4.37514,-6.57339 -3.96568,-10.25882 0.34481,-3.10352 0.34481,-3.10352 6.55174,-16.55213 3.11432,3.78239 6.164,9.03032 9.74172,16.59512 1.28234,-1.82117 4.61213,-5.28032 7.42467,-7.61876 l 3.77161,-3.01733 4.94637,19.10598 -7.53245,5.05404 25.41005,2.82315 -6.9183,-6.65957 -6.58439,-26.45527 c 2.26298,-0.92676 3.95482,-1.13152 6.6704,-0.82981 0.87286,0.097 1.45477,0.16163 2.89877,0.42025 -1.05607,-1.9828 -2.64019,-7.16609 -3.0066,-10.05408 -2.10133,2.12291 -4.6337,3.70701 -7.9635,5.39888 l -6.00246,-23.73969 z m -15.89468,8.73953 6.72447,26.0781 c -1.92891,1.45479 -3.77161,3.01734 -4.97852,4.15961 -2.32762,2.39231 -3.65307,3.71778 -4.08411,4.06262 l -0.39872,-0.82976 c -2.93114,-5.43113 -4.77388,-8.28678 -7.9313,-12.56487 z m 47.78398,46.76686 c -3.79541,-0.27945 -6.92992,2.42513 -7.20221,6.12322 -0.26513,3.60078 2.43946,6.73529 6.04023,7.00042 3.6981,0.27229 6.83261,-2.4323 7.09773,-6.03307 0.27229,-3.6981 -2.43229,-6.83261 -5.93575,-7.09057 z m 75.56512,-48.81012 c -3.00892,1.9276 -4.2964,2.36315 -6.53889,2.27123 -1.8525,-0.0759 -3.49401,-0.53387 -6.27755,-1.72227 -5.95307,-2.49027 -7.98058,-3.06169 -12.46558,-3.24553 -16.47747,-0.67539 -28.96791,13.36452 -29.79517,33.54698 -0.41163,10.04249 2.2352,19.33136 7.34991,25.59615 4.46019,5.55432 11.74629,8.88054 19.93628,9.21624 9.84748,0.40364 17.04331,-3.59861 20.28002,-11.0837 1.1924,-2.88104 2.13225,-6.74906 2.23616,-9.28406 0.0839,-2.04749 -0.55062,-3.24547 -1.81812,-3.29742 -1.0725,-0.044 -1.58797,0.61856 -1.84292,2.07306 -1.44657,11.46502 -7.66182,17.75372 -16.9243,17.37407 -12.38248,-0.50755 -18.93889,-12.10527 -18.11962,-32.09274 0.39564,-9.65248 2.14189,-16.51502 5.56719,-21.45313 2.70685,-4.08859 7.59624,-6.62276 12.17873,-6.43493 4.67999,0.19183 9.63409,3.22714 12.00123,7.42604 1.72461,3.19592 2.66523,6.45738 3.14391,11.45785 3.5492,-7.96061 5.55356,-11.58967 11.08872,-20.34784 z m 15.85201,52.5518 c -3.80552,-0.0348 -6.75965,2.86568 -6.7936,6.57363 -0.0331,3.61037 2.86747,6.5645 6.47784,6.59756 3.70795,0.034 6.66208,-2.86658 6.69514,-6.47695 0.0339,-3.70795 -2.86658,-6.66208 -6.37938,-6.69424 z m 17.99918,-52.29275 7.25251,5.69428 0.49493,22.14551 c -5.85344,0.13082 -9.11371,2.74144 -10.45933,8.04224 3.06297,-2.70381 6.16082,-3.84672 10.55308,-3.84727 l 0.60394,27.02338 -6.99087,6.01261 56.19303,-1.25586 c -5.97771,-5.42995 -8.41066,-9.47503 -10.12856,-16.46427 -2.71361,5.23376 -4.60807,7.81386 -7.00994,9.52684 -2.97849,2.1163 -8.41772,3.31153 -15.24673,3.46415 -1.65847,0.0371 -3.02646,-0.03 -6.738,-0.14224 l -0.63446,-28.38918 13.75558,-0.30742 6.71077,7.6585 -0.4426,-19.80414 -6.36192,7.95067 -13.75559,0.30742 -0.52545,-23.51132 c 3.70282,-0.27796 6.23713,-0.43221 9.74919,-0.5107 10.24353,-0.22893 13.10975,1.36632 16.89816,9.28535 0.30575,0.5788 0.60933,1.06005 0.81752,1.64103 2.37951,-7.08082 3.88156,-9.74975 8.72617,-15.71439 z m 74.26817,50.21925 c -3.80018,0.20447 -6.56612,3.28498 -6.36689,6.98773 0.19398,3.60531 3.27449,6.37124 6.8798,6.17726 3.70275,-0.19923 6.46869,-3.27974 6.2747,-6.88505 -0.19923,-3.70275 -3.27974,-6.46868 -6.78761,-6.27994 z m 62.32679,-56.79056 c -2.92383,1.32447 -4.34946,1.83674 -6.00245,1.97651 -1.16682,0.0987 -2.65,-0.0697 -5.34934,-0.72281 -6.08754,-1.34591 -9.74278,-1.72233 -14.31281,-1.33589 -12.0571,1.01955 -19.76973,9.40819 -18.8324,20.49295 0.38644,4.57003 2.18207,8.43332 5.16775,11.31461 3.08291,2.87306 7.22576,4.38342 14.44722,5.24172 9.19083,0.98556 12.18187,1.61401 15.64407,3.18191 4.38664,2.07732 7.2683,6.04463 7.63007,10.32296 0.60022,7.09813 -4.74196,12.2505 -13.59032,12.99872 -8.07048,0.68244 -15.24547,-1.94253 -19.00367,-7.01088 -1.43672,-1.93504 -2.16812,-3.63594 -3.74605,-8.399 -0.69958,4.466 -4.86779,15.3949 -7.76266,20.53619 3.31134,-2.5324 5.38472,-3.49116 7.32942,-3.65561 1.36128,-0.11511 3.23341,0.0204 5.52736,0.51191 10.17283,2.17561 13.43913,2.58492 18.20363,2.18204 12.93221,-1.09355 22.11015,-10.68333 21.13994,-22.15703 -0.37822,-4.47279 -2.17385,-8.33608 -5.28143,-11.50085 -3.31028,-3.24557 -7.67226,-5.03118 -14.61846,-6.10861 -12.20653,-1.90572 -12.20653,-1.90572 -15.34414,-3.10935 -4.34554,-1.59114 -6.74781,-4.52176 -7.10958,-8.80009 -0.53445,-6.32025 4.23255,-11.32606 11.42792,-11.9345 5.73685,-0.48511 11.55055,2.25497 14.39253,6.91115 1.12857,1.76524 1.8682,3.56337 2.92563,6.80357 1.89642,-6.52581 5.45942,-15.347 7.11777,-17.73962 z m 25.45231,49.34087 c -3.77989,0.44233 -6.34725,3.69019 -5.91626,7.37316 0.41964,3.58605 3.6675,6.15341 7.25355,5.73377 3.68298,-0.43099 6.25034,-3.67885 5.83069,-7.2649 -0.43098,-3.68297 -3.67884,-6.25033 -7.16798,-5.84203 z"
         id="text233"
         transform="translate(0,74)"
         aria-label="A.C.E.S." /><path
         style="opacity:0.572308;fill:none;stroke:none;stroke-width:2;stroke-dasharray:none;stroke-opacity:1"
         d="m 269.95663,685.0478 c 271.99881,51.53624 503.79243,0.90802 503.79243,0.90802"
         id="path4757" /></g></g></svg>
