<?xml version="1.0" encoding="UTF-8" standalone="no"?>

<svg
   width="1024"
   height="1024"
   viewBox="0 0 1024 1024"
   version="1.1"
   id="svg5"
   xml:space="preserve"
   sodipodi:docname="aces-logo-vector-final.svg"
   inkscape:version="1.3 (0e150ed, 2023-07-21)"
   inkscape:export-filename="aces-logo-raster.png"
   inkscape:export-xdpi="96"
   inkscape:export-ydpi="96"
   xmlns:inkscape="http://www.inkscape.org/namespaces/inkscape"
   xmlns:sodipodi="http://sodipodi.sourceforge.net/DTD/sodipodi-0.dtd"
   xmlns:xlink="http://www.w3.org/1999/xlink"
   xmlns="http://www.w3.org/2000/svg"
   xmlns:svg="http://www.w3.org/2000/svg"><sodipodi:namedview
     id="namedview322"
     pagecolor="#ffffff"
     bordercolor="#000000"
     borderopacity="0.25"
     inkscape:showpageshadow="2"
     inkscape:pageopacity="0.0"
     inkscape:pagecheckerboard="0"
     inkscape:deskcolor="#d1d1d1"
     showgrid="false"
     inkscape:zoom="1.9840033"
     inkscape:cx="490.17055"
     inkscape:cy="762.59953"
     inkscape:window-width="1440"
     inkscape:window-height="847"
     inkscape:window-x="0"
     inkscape:window-y="25"
     inkscape:window-maximized="1"
     inkscape:current-layer="layer1" /><defs
     id="defs2"><linearGradient
       id="linearGradient1516"><stop
         style="stop-color:#794020;stop-opacity:1;"
         offset="0"
         id="stop1510" /><stop
         style="stop-color:#5b0b13;stop-opacity:1;"
         offset="0.49533564"
         id="stop1512" /><stop
         style="stop-color:#794020;stop-opacity:1;"
         offset="1"
         id="stop1514" /></linearGradient><linearGradient
       id="linearGradient1216"><stop
         style="stop-color:#f9e37d;stop-opacity:1"
         offset="0"
         id="stop1208" /><stop
         style="stop-color:#e2b359;stop-opacity:1"
         offset="0.3899956"
         id="stop1210" /><stop
         style="stop-color:#a8833d;stop-opacity:1;"
         offset="0.65678871"
         id="stop1212" /><stop
         style="stop-color:#866427;stop-opacity:1;"
         offset="1"
         id="stop1214" /></linearGradient><linearGradient
       id="linearGradient62877"><stop
         style="stop-color:#7a5d1f;stop-opacity:1;"
         offset="0"
         id="stop62873" /><stop
         style="stop-color:#a5803b;stop-opacity:1;"
         offset="0.47"
         id="stop62881" /><stop
         style="stop-color:#7a5d1f;stop-opacity:1;"
         offset="1"
         id="stop62875" /></linearGradient><linearGradient
       id="linearGradient61298"><stop
         style="stop-color:#721119;stop-opacity:1;"
         offset="0"
         id="stop61290" /><stop
         style="stop-color:#901820;stop-opacity:1;"
         offset="0.3899956"
         id="stop61292" /><stop
         style="stop-color:#84151d;stop-opacity:1;"
         offset="0.65678871"
         id="stop61294" /><stop
         style="stop-color:#84151d;stop-opacity:1;"
         offset="1"
         id="stop61296" /></linearGradient><linearGradient
       id="linearGradient32200"><stop
         style="stop-color:#fef59f;stop-opacity:1;"
         offset="0"
         id="stop32196" /><stop
         style="stop-color:#c69c33;stop-opacity:1;"
         offset="0.34375298"
         id="stop32204" /><stop
         style="stop-color:#695125;stop-opacity:1;"
         offset="1"
         id="stop32198" /></linearGradient><linearGradient
       id="linearGradient10516"><stop
         style="stop-color:#f9e37d;stop-opacity:1"
         offset="0"
         id="stop10512" /><stop
         style="stop-color:#e2b359;stop-opacity:1"
         offset="0.3899956"
         id="stop10520" /><stop
         style="stop-color:#aa843e;stop-opacity:1;"
         offset="0.65678871"
         id="stop19360" /><stop
         style="stop-color:#694e1f;stop-opacity:1"
         offset="1"
         id="stop10514" /></linearGradient><linearGradient
       xlink:href="#linearGradient10516"
       id="linearGradient10518"
       x1="309.27655"
       y1="570.96777"
       x2="531.08301"
       y2="570.96777"
       gradientUnits="userSpaceOnUse"
       spreadMethod="reflect" /><linearGradient
       xlink:href="#linearGradient32200"
       id="linearGradient32202"
       x1="766.31525"
       y1="594.03735"
       x2="734.15179"
       y2="495.18228"
       gradientUnits="userSpaceOnUse" /><linearGradient
       xlink:href="#linearGradient61298"
       id="linearGradient60943"
       x1="367.58728"
       y1="609.83496"
       x2="513.36334"
       y2="609.83496"
       gradientUnits="userSpaceOnUse"
       spreadMethod="reflect"
       gradientTransform="matrix(0.93828562,0,0,0.93828562,31.885772,38.448929)" /><linearGradient
       xlink:href="#linearGradient1216"
       id="linearGradient62847"
       gradientUnits="userSpaceOnUse"
       x1="309.27655"
       y1="570.96777"
       x2="531.08301"
       y2="570.96777"
       spreadMethod="reflect" /><linearGradient
       xlink:href="#linearGradient62877"
       id="linearGradient62879"
       x1="303.27853"
       y1="670.23944"
       x2="757.39526"
       y2="670.23944"
       gradientUnits="userSpaceOnUse" /><linearGradient
       xlink:href="#linearGradient1516"
       id="linearGradient69711"
       x1="363.15631"
       y1="615.33606"
       x2="660.84363"
       y2="615.33606"
       gradientUnits="userSpaceOnUse"
       gradientTransform="matrix(0.93828562,0,0,0.93828562,31.885772,38.448929)" /><linearGradient
       xlink:href="#linearGradient32200"
       id="linearGradient5147"
       gradientUnits="userSpaceOnUse"
       x1="766.31525"
       y1="594.03735"
       x2="734.15179"
       y2="495.18228" /><linearGradient
       xlink:href="#linearGradient32200"
       id="linearGradient5149"
       gradientUnits="userSpaceOnUse"
       x1="766.31525"
       y1="594.03735"
       x2="734.15179"
       y2="495.18228" /><linearGradient
       xlink:href="#linearGradient32200"
       id="linearGradient5151"
       gradientUnits="userSpaceOnUse"
       x1="766.31525"
       y1="594.03735"
       x2="734.15179"
       y2="495.18228" /><linearGradient
       xlink:href="#linearGradient32200"
       id="linearGradient5153"
       gradientUnits="userSpaceOnUse"
       x1="766.31525"
       y1="594.03735"
       x2="734.15179"
       y2="495.18228" /><linearGradient
       xlink:href="#linearGradient32200"
       id="linearGradient5155"
       gradientUnits="userSpaceOnUse"
       x1="766.31525"
       y1="594.03735"
       x2="734.15179"
       y2="495.18228" /><linearGradient
       xlink:href="#linearGradient32200"
       id="linearGradient5157"
       gradientUnits="userSpaceOnUse"
       x1="766.31525"
       y1="594.03735"
       x2="734.15179"
       y2="495.18228" /><linearGradient
       xlink:href="#linearGradient32200"
       id="linearGradient5159"
       gradientUnits="userSpaceOnUse"
       x1="766.31525"
       y1="594.03735"
       x2="734.15179"
       y2="495.18228" /><linearGradient
       xlink:href="#linearGradient32200"
       id="linearGradient5161"
       gradientUnits="userSpaceOnUse"
       x1="766.31525"
       y1="594.03735"
       x2="734.15179"
       y2="495.18228" /><linearGradient
       xlink:href="#linearGradient32200"
       id="linearGradient5163"
       gradientUnits="userSpaceOnUse"
       x1="766.31525"
       y1="594.03735"
       x2="734.15179"
       y2="495.18228" /><linearGradient
       xlink:href="#linearGradient32200"
       id="linearGradient5165"
       gradientUnits="userSpaceOnUse"
       x1="766.31525"
       y1="594.03735"
       x2="734.15179"
       y2="495.18228" /><linearGradient
       xlink:href="#linearGradient32200"
       id="linearGradient5167"
       gradientUnits="userSpaceOnUse"
       x1="766.31525"
       y1="594.03735"
       x2="734.15179"
       y2="495.18228" /><linearGradient
       xlink:href="#linearGradient32200"
       id="linearGradient5169"
       gradientUnits="userSpaceOnUse"
       x1="766.31525"
       y1="594.03735"
       x2="734.15179"
       y2="495.18228" /><linearGradient
       xlink:href="#linearGradient32200"
       id="linearGradient5171"
       gradientUnits="userSpaceOnUse"
       x1="766.31525"
       y1="594.03735"
       x2="734.15179"
       y2="495.18228" /><linearGradient
       xlink:href="#linearGradient32200"
       id="linearGradient5173"
       gradientUnits="userSpaceOnUse"
       x1="766.31525"
       y1="594.03735"
       x2="734.15179"
       y2="495.18228" /><linearGradient
       xlink:href="#linearGradient32200"
       id="linearGradient5175"
       gradientUnits="userSpaceOnUse"
       x1="766.31525"
       y1="594.03735"
       x2="734.15179"
       y2="495.18228" /><linearGradient
       xlink:href="#linearGradient32200"
       id="linearGradient5177"
       gradientUnits="userSpaceOnUse"
       x1="766.31525"
       y1="594.03735"
       x2="734.15179"
       y2="495.18228" /><linearGradient
       xlink:href="#linearGradient32200"
       id="linearGradient5179"
       gradientUnits="userSpaceOnUse"
       x1="766.31525"
       y1="594.03735"
       x2="734.15179"
       y2="495.18228" /><linearGradient
       xlink:href="#linearGradient32200"
       id="linearGradient5181"
       gradientUnits="userSpaceOnUse"
       x1="766.31525"
       y1="594.03735"
       x2="734.15179"
       y2="495.18228" /><linearGradient
       xlink:href="#linearGradient32200"
       id="linearGradient5183"
       gradientUnits="userSpaceOnUse"
       x1="766.31525"
       y1="594.03735"
       x2="734.15179"
       y2="495.18228" /><linearGradient
       xlink:href="#linearGradient32200"
       id="linearGradient5185"
       gradientUnits="userSpaceOnUse"
       x1="766.31525"
       y1="594.03735"
       x2="734.15179"
       y2="495.18228" /><linearGradient
       xlink:href="#linearGradient32200"
       id="linearGradient5187"
       gradientUnits="userSpaceOnUse"
       x1="766.31525"
       y1="594.03735"
       x2="734.15179"
       y2="495.18228" /><linearGradient
       xlink:href="#linearGradient32200"
       id="linearGradient5189"
       gradientUnits="userSpaceOnUse"
       x1="766.31525"
       y1="594.03735"
       x2="734.15179"
       y2="495.18228" /><linearGradient
       xlink:href="#linearGradient32200"
       id="linearGradient7107"
       gradientUnits="userSpaceOnUse"
       x1="766.31525"
       y1="594.03735"
       x2="734.15179"
       y2="495.18228" /><linearGradient
       xlink:href="#linearGradient32200"
       id="linearGradient7109"
       gradientUnits="userSpaceOnUse"
       x1="766.31525"
       y1="594.03735"
       x2="734.15179"
       y2="495.18228" /><linearGradient
       xlink:href="#linearGradient32200"
       id="linearGradient7111"
       gradientUnits="userSpaceOnUse"
       x1="766.31525"
       y1="594.03735"
       x2="734.15179"
       y2="495.18228" /><linearGradient
       xlink:href="#linearGradient32200"
       id="linearGradient7113"
       gradientUnits="userSpaceOnUse"
       x1="766.31525"
       y1="594.03735"
       x2="734.15179"
       y2="495.18228" /><linearGradient
       xlink:href="#linearGradient32200"
       id="linearGradient7115"
       gradientUnits="userSpaceOnUse"
       x1="766.31525"
       y1="594.03735"
       x2="734.15179"
       y2="495.18228" /><linearGradient
       xlink:href="#linearGradient32200"
       id="linearGradient7117"
       gradientUnits="userSpaceOnUse"
       x1="766.31525"
       y1="594.03735"
       x2="734.15179"
       y2="495.18228" /><linearGradient
       xlink:href="#linearGradient32200"
       id="linearGradient7119"
       gradientUnits="userSpaceOnUse"
       x1="766.31525"
       y1="594.03735"
       x2="734.15179"
       y2="495.18228" /><linearGradient
       xlink:href="#linearGradient32200"
       id="linearGradient7121"
       gradientUnits="userSpaceOnUse"
       x1="766.31525"
       y1="594.03735"
       x2="734.15179"
       y2="495.18228" /><linearGradient
       xlink:href="#linearGradient32200"
       id="linearGradient7123"
       gradientUnits="userSpaceOnUse"
       x1="766.31525"
       y1="594.03735"
       x2="734.15179"
       y2="495.18228" /><linearGradient
       xlink:href="#linearGradient32200"
       id="linearGradient7125"
       gradientUnits="userSpaceOnUse"
       x1="766.31525"
       y1="594.03735"
       x2="734.15179"
       y2="495.18228" /><linearGradient
       xlink:href="#linearGradient32200"
       id="linearGradient7127"
       gradientUnits="userSpaceOnUse"
       x1="766.31525"
       y1="594.03735"
       x2="734.15179"
       y2="495.18228" /><linearGradient
       xlink:href="#linearGradient32200"
       id="linearGradient7129"
       gradientUnits="userSpaceOnUse"
       x1="766.31525"
       y1="594.03735"
       x2="734.15179"
       y2="495.18228" /><linearGradient
       xlink:href="#linearGradient32200"
       id="linearGradient7131"
       gradientUnits="userSpaceOnUse"
       x1="766.31525"
       y1="594.03735"
       x2="734.15179"
       y2="495.18228" /><linearGradient
       xlink:href="#linearGradient32200"
       id="linearGradient7133"
       gradientUnits="userSpaceOnUse"
       x1="766.31525"
       y1="594.03735"
       x2="734.15179"
       y2="495.18228" /><linearGradient
       xlink:href="#linearGradient32200"
       id="linearGradient7135"
       gradientUnits="userSpaceOnUse"
       x1="766.31525"
       y1="594.03735"
       x2="734.15179"
       y2="495.18228" /><linearGradient
       xlink:href="#linearGradient32200"
       id="linearGradient7137"
       gradientUnits="userSpaceOnUse"
       x1="766.31525"
       y1="594.03735"
       x2="734.15179"
       y2="495.18228" /><linearGradient
       xlink:href="#linearGradient32200"
       id="linearGradient7139"
       gradientUnits="userSpaceOnUse"
       x1="766.31525"
       y1="594.03735"
       x2="734.15179"
       y2="495.18228" /><linearGradient
       xlink:href="#linearGradient32200"
       id="linearGradient7141"
       gradientUnits="userSpaceOnUse"
       x1="766.31525"
       y1="594.03735"
       x2="734.15179"
       y2="495.18228" /><linearGradient
       xlink:href="#linearGradient32200"
       id="linearGradient7143"
       gradientUnits="userSpaceOnUse"
       x1="766.31525"
       y1="594.03735"
       x2="734.15179"
       y2="495.18228" /><linearGradient
       xlink:href="#linearGradient32200"
       id="linearGradient7145"
       gradientUnits="userSpaceOnUse"
       x1="766.31525"
       y1="594.03735"
       x2="734.15179"
       y2="495.18228" /><linearGradient
       xlink:href="#linearGradient32200"
       id="linearGradient7147"
       gradientUnits="userSpaceOnUse"
       x1="766.31525"
       y1="594.03735"
       x2="734.15179"
       y2="495.18228" /></defs><g
     id="layer1"><path
       class="UnoptimicedTransforms"
       id="path9001-6"
       d="m 555.20815,552.04882 c 0,0 161.6476,0.71616 243.6817,0.71616 22.4415,0 97.8898,-11.77002 97.8898,-11.77002 0,0 -19.0335,50.45967 -100.7072,61.23102 -121.8428,16.06895 -222.99,-7.7944 -232.9433,-10.46137 -6.6672,-1.78646 -31.405,-8.68662 -31.405,-25.05122 0,-16.36461 23.484,-14.66459 23.484,-14.66459 z"
       style="font-variation-settings:normal;opacity:1;vector-effect:none;fill:url(#linearGradient7107);fill-opacity:1;stroke:#a37b33;stroke-width:3;stroke-linecap:butt;stroke-linejoin:miter;stroke-miterlimit:4;stroke-dasharray:none;stroke-dashoffset:0;stroke-opacity:1;-inkscape-stroke:none;stop-color:#000000;stop-opacity:1"
       transform="matrix(-0.48408455,-0.87502123,-0.87502123,0.48408455,1021.6934,706.27884)" /><path
       class="UnoptimicedTransforms"
       id="path9001-6-1"
       d="m 555.20815,552.04882 c 0,0 161.6476,0.71616 243.6817,0.71616 22.4415,0 97.8898,-11.77002 97.8898,-11.77002 0,0 -19.0335,50.45967 -100.7072,61.23102 -121.8428,16.06895 -222.99,-7.7944 -232.9433,-10.46137 -6.6672,-1.78646 -31.405,-8.68662 -31.405,-25.05122 0,-16.36461 23.484,-14.66459 23.484,-14.66459 z"
       style="font-variation-settings:normal;opacity:1;vector-effect:none;fill:url(#linearGradient7109);fill-opacity:1;stroke:#a37b33;stroke-width:3;stroke-linecap:butt;stroke-linejoin:miter;stroke-miterlimit:4;stroke-dasharray:none;stroke-dashoffset:0;stroke-opacity:1;-inkscape-stroke:none;stop-color:#000000;stop-opacity:1"
       transform="matrix(-0.63528758,-0.77227566,-0.77227566,0.63528758,1047.8953,613.83808)" /><path
       class="UnoptimicedTransforms"
       id="path9001-6-1-0-6-0"
       d="m 555.20815,552.04882 c 0,0 161.6476,0.71616 243.6817,0.71616 22.4415,0 97.8898,-11.77002 97.8898,-11.77002 0,0 -19.0335,50.45967 -100.7072,61.23102 -121.8428,16.06895 -222.99,-7.7944 -232.9433,-10.46137 -6.6672,-1.78646 -31.405,-8.68662 -31.405,-25.05122 0,-16.36461 23.484,-14.66459 23.484,-14.66459 z"
       style="font-variation-settings:normal;opacity:1;vector-effect:none;fill:url(#linearGradient5147);fill-opacity:1;stroke:#a37b33;stroke-width:6.26752;stroke-linecap:butt;stroke-linejoin:miter;stroke-miterlimit:4;stroke-dasharray:none;stroke-dashoffset:0;stroke-opacity:1;-inkscape-stroke:none;stop-color:#000000;stop-opacity:1"
       transform="matrix(-0.38137676,-0.23718945,-0.23718945,0.38137676,688.91199,496.66049)" /><path
       class="UnoptimicedTransforms"
       id="path9001-6-1-0-6-2"
       d="m 555.20815,552.04882 c 0,0 161.6476,0.71616 243.6817,0.71616 22.4415,0 97.8898,-11.77002 97.8898,-11.77002 0,0 -19.0335,50.45967 -100.7072,61.23102 -121.8428,16.06895 -222.99,-7.7944 -232.9433,-10.46137 -6.6672,-1.78646 -31.405,-8.68662 -31.405,-25.05122 0,-16.36461 23.484,-14.66459 23.484,-14.66459 z"
       style="font-variation-settings:normal;opacity:1;vector-effect:none;fill:url(#linearGradient7111);fill-opacity:1;stroke:#a37b33;stroke-width:3;stroke-linecap:butt;stroke-linejoin:miter;stroke-miterlimit:4;stroke-dasharray:none;stroke-dashoffset:0;stroke-opacity:1;-inkscape-stroke:none;stop-color:#000000;stop-opacity:1"
       transform="matrix(-0.96173176,-0.27399274,-0.27399274,0.96173176,1030.4683,274.86866)" /><path
       id="rect8152-5-5-9"
       style="font-variation-settings:normal;opacity:1;vector-effect:none;fill:url(#linearGradient7113);fill-opacity:1;stroke:#a37b33;stroke-width:3;stroke-linecap:butt;stroke-linejoin:miter;stroke-miterlimit:4;stroke-dasharray:none;stroke-dashoffset:0;stroke-opacity:1;-inkscape-stroke:none;stop-color:#000000;stop-opacity:1"
       d="m 555.20815,552.04882 c 0,0 161.6476,0.71616 243.6817,0.71616 22.4415,0 97.8898,-11.77002 97.8898,-11.77002 0,0 -19.0335,50.45967 -100.7072,61.23102 -121.8428,16.06895 -222.99,-7.7944 -232.9433,-10.46137 -6.6672,-1.78646 -31.405,-8.68662 -31.405,-25.05122 0,-16.36461 23.484,-14.66459 23.484,-14.66459 z"
       class="UnoptimicedTransforms"
       transform="rotate(-50.558683,637.95096,332.21814)" /><path
       id="rect8152-5-5-9-7-3-61"
       style="font-variation-settings:normal;opacity:1;vector-effect:none;fill:url(#linearGradient5149);fill-opacity:1;stroke:#a37b33;stroke-width:6.26752;stroke-linecap:butt;stroke-linejoin:miter;stroke-miterlimit:4;stroke-dasharray:none;stroke-dashoffset:0;stroke-opacity:1;-inkscape-stroke:none;stop-color:#000000;stop-opacity:1"
       d="m 555.20815,552.04882 c 0,0 161.6476,0.71616 243.6817,0.71616 22.4415,0 97.8898,-11.77002 97.8898,-11.77002 0,0 -19.0335,50.45967 -100.7072,61.23102 -121.8428,16.06895 -222.99,-7.7944 -232.9433,-10.46137 -6.6672,-1.78646 -31.405,-8.68662 -31.405,-25.05122 0,-16.36461 23.484,-14.66459 23.484,-14.66459 z"
       class="UnoptimicedTransforms"
       transform="matrix(0.38137676,-0.23718945,0.23718945,0.38137676,335.08801,496.66049)" /><path
       id="rect8152-5-5-9-7-3-6"
       style="font-variation-settings:normal;opacity:1;vector-effect:none;fill:url(#linearGradient7115);fill-opacity:1;stroke:#a37b33;stroke-width:3;stroke-linecap:butt;stroke-linejoin:miter;stroke-miterlimit:4;stroke-dasharray:none;stroke-dashoffset:0;stroke-opacity:1;-inkscape-stroke:none;stop-color:#000000;stop-opacity:1"
       d="m 555.20815,552.04882 c 0,0 161.6476,0.71616 243.6817,0.71616 22.4415,0 97.8898,-11.77002 97.8898,-11.77002 0,0 -19.0335,50.45967 -100.7072,61.23102 -121.8428,16.06895 -222.99,-7.7944 -232.9433,-10.46137 -6.6672,-1.78646 -31.405,-8.68662 -31.405,-25.05122 0,-16.36461 23.484,-14.66459 23.484,-14.66459 z"
       class="UnoptimicedTransforms"
       transform="rotate(-15.901997,980.76746,160.59001)" /><path
       id="rect8152-5-5-9-7-3-6-1"
       style="font-variation-settings:normal;opacity:1;vector-effect:none;fill:url(#linearGradient7117);fill-opacity:1;stroke:#a37b33;stroke-width:3.5366;stroke-linecap:butt;stroke-linejoin:miter;stroke-miterlimit:4;stroke-dasharray:none;stroke-dashoffset:0;stroke-opacity:1;-inkscape-stroke:none;stop-color:#000000;stop-opacity:1"
       d="m 555.20815,552.04882 c 0,0 161.6476,0.71616 243.6817,0.71616 22.4415,0 97.8898,-11.77002 97.8898,-11.77002 0,0 -19.0335,50.45967 -100.7072,61.23102 -121.8428,16.06895 -222.99,-7.7944 -232.9433,-10.46137 -6.6672,-1.78646 -31.405,-8.68662 -31.405,-25.05122 0,-16.36461 23.484,-14.66459 23.484,-14.66459 z"
       class="UnoptimicedTransforms"
       transform="matrix(0.8441769,-0.08325769,0.08325769,0.8441769,172.10674,250.25913)" /><path
       id="rect8152-5-5-9-7-3"
       style="font-variation-settings:normal;opacity:1;vector-effect:none;fill:url(#linearGradient7119);fill-opacity:1;stroke:#a37b33;stroke-width:3;stroke-linecap:butt;stroke-linejoin:miter;stroke-miterlimit:4;stroke-dasharray:none;stroke-dashoffset:0;stroke-opacity:1;-inkscape-stroke:none;stop-color:#000000;stop-opacity:1"
       d="m 555.20815,552.04882 c 0,0 161.6476,0.71616 243.6817,0.71616 22.4415,0 97.8898,-11.77002 97.8898,-11.77002 0,0 -19.0335,50.45967 -100.7072,61.23102 -121.8428,16.06895 -222.99,-7.7944 -232.9433,-10.46137 -6.6672,-1.78646 -31.405,-8.68662 -31.405,-25.05122 0,-16.36461 23.484,-14.66459 23.484,-14.66459 z"
       class="UnoptimicedTransforms"
       transform="rotate(-31.878699,791.24057,297.41299)" /><path
       id="rect8152-5"
       style="fill:url(#linearGradient7121);fill-opacity:1;stroke:#a37b33;stroke-width:3;stroke-dasharray:none;stroke-opacity:1"
       d="m 555.20815,552.04882 c 0,0 161.6476,0.71616 243.6817,0.71616 22.4415,0 97.8898,-11.77002 97.8898,-11.77002 0,0 -19.0335,50.45967 -100.7072,61.23102 -121.8428,16.06895 -222.99,-7.7944 -232.9433,-10.46137 -6.6672,-1.78646 -31.405,-8.68662 -31.405,-25.05122 0,-16.36461 23.484,-14.66459 23.484,-14.66459 z"
       class="UnoptimicedTransforms"
       transform="rotate(-71.977213,572.49412,379.59294)" /><path
       id="rect8152-5-5-8"
       style="font-variation-settings:normal;opacity:1;vector-effect:none;fill:url(#linearGradient5153);fill-opacity:1;stroke:#a37b33;stroke-width:6.26752;stroke-linecap:butt;stroke-linejoin:miter;stroke-miterlimit:4;stroke-dasharray:none;stroke-dashoffset:0;stroke-opacity:1;-inkscape-stroke:none;stop-color:#000000;stop-opacity:1"
       d="m 555.20815,552.04882 c 0,0 161.6476,0.71616 243.6817,0.71616 22.4415,0 97.8898,-11.77002 97.8898,-11.77002 0,0 -19.0335,50.45967 -100.7072,61.23102 -121.8428,16.06895 -222.99,-7.7944 -232.9433,-10.46137 -6.6672,-1.78646 -31.405,-8.68662 -31.405,-25.05122 0,-16.36461 23.484,-14.66459 23.484,-14.66459 z"
       class="UnoptimicedTransforms"
       transform="matrix(0.21741114,-0.39298787,0.39298787,0.21741114,353.06749,606.04203)" /><path
       id="rect8152-5-5"
       style="font-variation-settings:normal;opacity:1;vector-effect:none;fill:url(#linearGradient7123);fill-opacity:1;stroke:#a37b33;stroke-width:3;stroke-linecap:butt;stroke-linejoin:miter;stroke-miterlimit:4;stroke-dasharray:none;stroke-dashoffset:0;stroke-opacity:1;-inkscape-stroke:none;stop-color:#000000;stop-opacity:1"
       d="m 555.20815,552.04882 c 0,0 161.6476,0.71616 243.6817,0.71616 22.4415,0 97.8898,-11.77002 97.8898,-11.77002 0,0 -19.0335,50.45967 -100.7072,61.23102 -121.8428,16.06895 -222.99,-7.7944 -232.9433,-10.46137 -6.6672,-1.78646 -31.405,-8.68662 -31.405,-25.05122 0,-16.36461 23.484,-14.66459 23.484,-14.66459 z"
       class="UnoptimicedTransforms"
       transform="rotate(-61.047488,600.09736,351.18334)" /><path
       id="rect8152-5-5-9-7-0"
       style="font-variation-settings:normal;opacity:1;vector-effect:none;fill:url(#linearGradient5155);fill-opacity:1;stroke:#a37b33;stroke-width:6.26752;stroke-linecap:butt;stroke-linejoin:miter;stroke-miterlimit:4;stroke-dasharray:none;stroke-dashoffset:0;stroke-opacity:1;-inkscape-stroke:none;stop-color:#000000;stop-opacity:1"
       d="m 555.20815,552.04882 c 0,0 161.6476,0.71616 243.6817,0.71616 22.4415,0 97.8898,-11.77002 97.8898,-11.77002 0,0 -19.0335,50.45967 -100.7072,61.23102 -121.8428,16.06895 -222.99,-7.7944 -232.9433,-10.46137 -6.6672,-1.78646 -31.405,-8.68662 -31.405,-25.05122 0,-16.36461 23.484,-14.66459 23.484,-14.66459 z"
       class="UnoptimicedTransforms"
       transform="matrix(0.33564526,-0.29841134,0.29841134,0.33564526,337.90844,535.5823)" /><path
       id="rect8152-5-5-9-5"
       style="font-variation-settings:normal;opacity:1;vector-effect:none;fill:url(#linearGradient5157);fill-opacity:1;stroke:#a37b33;stroke-width:6.26752;stroke-linecap:butt;stroke-linejoin:miter;stroke-miterlimit:4;stroke-dasharray:none;stroke-dashoffset:0;stroke-opacity:1;-inkscape-stroke:none;stop-color:#000000;stop-opacity:1"
       d="m 555.20815,552.04882 c 0,0 161.6476,0.71616 243.6817,0.71616 22.4415,0 97.8898,-11.77002 97.8898,-11.77002 0,0 -19.0335,50.45967 -100.7072,61.23102 -121.8428,16.06895 -222.99,-7.7944 -232.9433,-10.46137 -6.6672,-1.78646 -31.405,-8.68662 -31.405,-25.05122 0,-16.36461 23.484,-14.66459 23.484,-14.66459 z"
       class="UnoptimicedTransforms"
       transform="matrix(0.28531915,-0.34684297,0.34684297,0.28531915,341.29971,564.52518)" /><path
       id="rect8152-5-5-9-7"
       style="font-variation-settings:normal;opacity:1;vector-effect:none;fill:url(#linearGradient7125);fill-opacity:1;stroke:#a37b33;stroke-width:3;stroke-linecap:butt;stroke-linejoin:miter;stroke-miterlimit:4;stroke-dasharray:none;stroke-dashoffset:0;stroke-opacity:1;-inkscape-stroke:none;stop-color:#000000;stop-opacity:1"
       d="m 555.20815,552.04882 c 0,0 161.6476,0.71616 243.6817,0.71616 22.4415,0 97.8898,-11.77002 97.8898,-11.77002 0,0 -19.0335,50.45967 -100.7072,61.23102 -121.8428,16.06895 -222.99,-7.7944 -232.9433,-10.46137 -6.6672,-1.78646 -31.405,-8.68662 -31.405,-25.05122 0,-16.36461 23.484,-14.66459 23.484,-14.66459 z"
       class="UnoptimicedTransforms"
       transform="rotate(-41.639261,706.67643,316.04594)" /><path
       id="rect8152-5-5-9-7-3-6-6"
       style="font-variation-settings:normal;opacity:1;vector-effect:none;fill:url(#linearGradient5159);fill-opacity:1;stroke:#a37b33;stroke-width:6.26752;stroke-linecap:butt;stroke-linejoin:miter;stroke-miterlimit:4;stroke-dasharray:none;stroke-dashoffset:0;stroke-opacity:1;-inkscape-stroke:none;stop-color:#000000;stop-opacity:1"
       d="m 555.20815,552.04882 c 0,0 161.6476,0.71616 243.6817,0.71616 22.4415,0 97.8898,-11.77002 97.8898,-11.77002 0,0 -19.0335,50.45967 -100.7072,61.23102 -121.8428,16.06895 -222.99,-7.7944 -232.9433,-10.46137 -6.6672,-1.78646 -31.405,-8.68662 -31.405,-25.05122 0,-16.36461 23.484,-14.66459 23.484,-14.66459 z"
       class="UnoptimicedTransforms"
       transform="matrix(0.43193114,-0.1230551,0.1230551,0.43193114,349.12653,412.28789)" /><path
       id="rect8152-5-5-9-7-3-6-1-2"
       style="font-variation-settings:normal;opacity:1;vector-effect:none;fill:url(#linearGradient5161);fill-opacity:1;stroke:#a37b33;stroke-width:7.38857;stroke-linecap:butt;stroke-linejoin:miter;stroke-miterlimit:4;stroke-dasharray:none;stroke-dashoffset:0;stroke-opacity:1;-inkscape-stroke:none;stop-color:#000000;stop-opacity:1"
       d="m 555.20815,552.04882 c 0,0 161.6476,0.71616 243.6817,0.71616 22.4415,0 97.8898,-11.77002 97.8898,-11.77002 0,0 -19.0335,50.45967 -100.7072,61.23102 -121.8428,16.06895 -222.99,-7.7944 -232.9433,-10.46137 -6.6672,-1.78646 -31.405,-8.68662 -31.405,-25.05122 0,-16.36461 23.484,-14.66459 23.484,-14.66459 z"
       class="UnoptimicedTransforms"
       transform="matrix(0.37913513,-0.03739253,0.03739253,0.37913513,429.32779,401.23531)" /><path
       id="rect8152-5-5-9-7-3-6-1-9-0"
       style="font-variation-settings:normal;opacity:1;vector-effect:none;fill:url(#linearGradient5163);fill-opacity:1;stroke:#a37b33;stroke-width:9.909;stroke-linecap:butt;stroke-linejoin:miter;stroke-miterlimit:4;stroke-dasharray:none;stroke-dashoffset:0;stroke-opacity:1;-inkscape-stroke:none;stop-color:#000000;stop-opacity:1"
       d="m 555.20815,552.04882 c 0,0 161.6476,0.71616 243.6817,0.71616 22.4415,0 97.8898,-11.77002 97.8898,-11.77002 0,0 -19.0335,50.45967 -100.7072,61.23102 -121.8428,16.06895 -222.99,-7.7944 -232.9433,-10.46137 -6.6672,-1.78646 -31.405,-8.68662 -31.405,-25.05122 0,-16.36461 23.484,-14.66459 23.484,-14.66459 z"
       class="UnoptimicedTransforms"
       transform="matrix(0.27776236,0.05953374,-0.05953374,0.27776236,558.16979,400.88856)" /><path
       id="rect8152-5-5-9-7-3-6-1-9-2-6"
       style="font-variation-settings:normal;opacity:1;vector-effect:none;fill:url(#linearGradient5165);fill-opacity:1;stroke:#a37b33;stroke-width:9.909;stroke-linecap:butt;stroke-linejoin:miter;stroke-miterlimit:4;stroke-dasharray:none;stroke-dashoffset:0;stroke-opacity:1;-inkscape-stroke:none;stop-color:#000000;stop-opacity:1"
       d="m 555.20815,552.04882 c 0,0 161.6476,0.71616 243.6817,0.71616 22.4415,0 97.8898,-11.77002 97.8898,-11.77002 0,0 -19.0335,50.45967 -100.7072,61.23102 -121.8428,16.06895 -222.99,-7.7944 -232.9433,-10.46137 -6.6672,-1.78646 -31.405,-8.68662 -31.405,-25.05122 0,-16.36461 23.484,-14.66459 23.484,-14.66459 z"
       class="UnoptimicedTransforms"
       transform="matrix(0.24748346,0.13945657,-0.13945657,0.24748346,612.02305,372.75619)" /><path
       id="rect8152-5-5-9-7-3-6-1-9"
       style="font-variation-settings:normal;opacity:1;vector-effect:none;fill:url(#linearGradient7127);fill-opacity:1;stroke:#a37b33;stroke-width:4.74302;stroke-linecap:butt;stroke-linejoin:miter;stroke-miterlimit:4;stroke-dasharray:none;stroke-dashoffset:0;stroke-opacity:1;-inkscape-stroke:none;stop-color:#000000;stop-opacity:1"
       d="m 555.20815,552.04882 c 0,0 161.6476,0.71616 243.6817,0.71616 22.4415,0 97.8898,-11.77002 97.8898,-11.77002 0,0 -19.0335,50.45967 -100.7072,61.23102 -121.8428,16.06895 -222.99,-7.7944 -232.9433,-10.46137 -6.6672,-1.78646 -31.405,-8.68662 -31.405,-25.05122 0,-16.36461 23.484,-14.66459 23.484,-14.66459 z"
       class="UnoptimicedTransforms"
       transform="matrix(0.61846175,0.13255699,-0.13255699,0.61846175,458.98455,249.48703)" /><path
       id="rect8152-5-5-9-7-3-6-1-9-2-5-5"
       style="font-variation-settings:normal;opacity:1;vector-effect:none;fill:url(#linearGradient5167);fill-opacity:1;stroke:#a37b33;stroke-width:9.909;stroke-linecap:butt;stroke-linejoin:miter;stroke-miterlimit:4;stroke-dasharray:none;stroke-dashoffset:0;stroke-opacity:1;-inkscape-stroke:none;stop-color:#000000;stop-opacity:1"
       d="m 555.20815,552.04882 c 0,0 161.6476,0.71616 243.6817,0.71616 22.4415,0 97.8898,-11.77002 97.8898,-11.77002 0,0 -19.0335,50.45967 -100.7072,61.23102 -121.8428,16.06895 -222.99,-7.7944 -232.9433,-10.46137 -6.6672,-1.78646 -31.405,-8.68662 -31.405,-25.05122 0,-16.36461 23.484,-14.66459 23.484,-14.66459 z"
       class="UnoptimicedTransforms"
       transform="matrix(0.20154958,0.20018482,-0.20018482,0.20154958,667.32296,361.54481)" /><path
       id="rect8152-5-5-9-7-3-6-1-9-2"
       style="font-variation-settings:normal;opacity:1;vector-effect:none;fill:url(#linearGradient7129);fill-opacity:1;stroke:#a37b33;stroke-width:4.74302;stroke-linecap:butt;stroke-linejoin:miter;stroke-miterlimit:4;stroke-dasharray:none;stroke-dashoffset:0;stroke-opacity:1;-inkscape-stroke:none;stop-color:#000000;stop-opacity:1"
       d="m 555.20815,552.04882 c 0,0 161.6476,0.71616 243.6817,0.71616 22.4415,0 97.8898,-11.77002 97.8898,-11.77002 0,0 -19.0335,50.45967 -100.7072,61.23102 -121.8428,16.06895 -222.99,-7.7944 -232.9433,-10.46137 -6.6672,-1.78646 -31.405,-8.68662 -31.405,-25.05122 0,-16.36461 23.484,-14.66459 23.484,-14.66459 z"
       class="UnoptimicedTransforms"
       transform="matrix(0.55104318,0.31051201,-0.31051201,0.55104318,578.89338,186.84792)" /><path
       id="rect8152-5-5-9-7-3-6-1-9-2-5-2-4"
       style="font-variation-settings:normal;opacity:1;vector-effect:none;fill:url(#linearGradient5169);fill-opacity:1;stroke:#a37b33;stroke-width:13.934;stroke-linecap:butt;stroke-linejoin:miter;stroke-miterlimit:4;stroke-dasharray:none;stroke-dashoffset:0;stroke-opacity:1;-inkscape-stroke:none;stop-color:#000000;stop-opacity:1"
       d="m 555.20815,552.04882 c 0,0 161.6476,0.71616 243.6817,0.71616 22.4415,0 97.8898,-11.77002 97.8898,-11.77002 0,0 -19.0335,50.45967 -100.7072,61.23102 -121.8428,16.06895 -222.99,-7.7944 -232.9433,-10.46137 -6.6672,-1.78646 -31.405,-8.68662 -31.405,-25.05122 0,-16.36461 23.484,-14.66459 23.484,-14.66459 z"
       class="UnoptimicedTransforms"
       transform="matrix(0.1083246,0.17051389,-0.17051389,0.1083246,712.43967,449.6108)" /><path
       id="rect8152-5-5-9-7-3-6-1-9-2-5"
       style="font-variation-settings:normal;opacity:1;vector-effect:none;fill:url(#linearGradient7131);fill-opacity:1;stroke:#a37b33;stroke-width:4.74302;stroke-linecap:butt;stroke-linejoin:miter;stroke-miterlimit:4;stroke-dasharray:none;stroke-dashoffset:0;stroke-opacity:1;-inkscape-stroke:none;stop-color:#000000;stop-opacity:1"
       d="m 555.20815,552.04882 c 0,0 161.6476,0.71616 243.6817,0.71616 22.4415,0 97.8898,-11.77002 97.8898,-11.77002 0,0 -19.0335,50.45967 -100.7072,61.23102 -121.8428,16.06895 -222.99,-7.7944 -232.9433,-10.46137 -6.6672,-1.78646 -31.405,-8.68662 -31.405,-25.05122 0,-16.36461 23.484,-14.66459 23.484,-14.66459 z"
       class="UnoptimicedTransforms"
       transform="matrix(0.44876744,0.4457287,-0.4457287,0.44876744,702.02338,165.8848)" /><path
       class="UnoptimicedTransforms"
       id="path9001-6-1-0-6-2-8-2-3"
       d="m 555.20815,552.04882 c 0,0 161.6476,0.71616 243.6817,0.71616 22.4415,0 97.8898,-11.77002 97.8898,-11.77002 0,0 -19.0335,50.45967 -100.7072,61.23102 -121.8428,16.06895 -222.99,-7.7944 -232.9433,-10.46137 -6.6672,-1.78646 -31.405,-8.68662 -31.405,-25.05122 0,-16.36461 23.484,-14.66459 23.484,-14.66459 z"
       style="font-variation-settings:normal;opacity:1;vector-effect:none;fill:url(#linearGradient7133);fill-opacity:1;stroke:#a37b33;stroke-width:4.74302;stroke-linecap:butt;stroke-linejoin:miter;stroke-miterlimit:4;stroke-dasharray:none;stroke-dashoffset:0;stroke-opacity:1;-inkscape-stroke:none;stop-color:#000000;stop-opacity:1"
       transform="matrix(-0.55104318,0.31051201,0.31051201,0.55104318,445.10662,186.84792)" /><path
       class="UnoptimicedTransforms"
       id="path9001-9"
       d="m 555.20815,552.04882 c 0,0 161.6476,0.71616 243.6817,0.71616 22.4415,0 97.8898,-11.77002 97.8898,-11.77002 0,0 -19.0335,50.45967 -100.7072,61.23102 -121.8428,16.06895 -222.99,-7.7944 -232.9433,-10.46137 -6.6672,-1.78646 -31.405,-8.68662 -31.405,-25.05122 0,-16.36461 23.484,-14.66459 23.484,-14.66459 z"
       style="font-variation-settings:normal;opacity:1;vector-effect:none;fill:url(#linearGradient5171);fill-opacity:1;stroke:#a37b33;stroke-width:6.26752;stroke-linecap:butt;stroke-linejoin:miter;stroke-miterlimit:4;stroke-dasharray:none;stroke-dashoffset:0;stroke-opacity:1;-inkscape-stroke:none;stop-color:#000000;stop-opacity:1"
       transform="matrix(-0.13895499,-0.42708147,-0.42708147,0.13895499,656.51902,651.07676)" /><path
       class="UnoptimicedTransforms"
       id="path9001"
       d="m 555.20815,552.04882 c 0,0 161.6476,0.71616 243.6817,0.71616 22.4415,0 97.8898,-11.77002 97.8898,-11.77002 0,0 -19.0335,50.45967 -100.7072,61.23102 -121.8428,16.06895 -222.99,-7.7944 -232.9433,-10.46137 -6.6672,-1.78646 -31.405,-8.68662 -31.405,-25.05122 0,-16.36461 23.484,-14.66459 23.484,-14.66459 z"
       style="font-variation-settings:normal;opacity:1;vector-effect:none;fill:url(#linearGradient7135);fill-opacity:1;stroke:#a37b33;stroke-width:3;stroke-linecap:butt;stroke-linejoin:miter;stroke-miterlimit:4;stroke-dasharray:none;stroke-dashoffset:0;stroke-opacity:1;-inkscape-stroke:none;stop-color:#000000;stop-opacity:1"
       transform="matrix(-0.30939521,-0.95093354,-0.95093354,0.30939521,989.60048,806.55256)" /><path
       class="UnoptimicedTransforms"
       id="path9001-6-4"
       d="m 555.20815,552.04882 c 0,0 161.6476,0.71616 243.6817,0.71616 22.4415,0 97.8898,-11.77002 97.8898,-11.77002 0,0 -19.0335,50.45967 -100.7072,61.23102 -121.8428,16.06895 -222.99,-7.7944 -232.9433,-10.46137 -6.6672,-1.78646 -31.405,-8.68662 -31.405,-25.05122 0,-16.36461 23.484,-14.66459 23.484,-14.66459 z"
       style="font-variation-settings:normal;opacity:1;vector-effect:none;fill:url(#linearGradient5173);fill-opacity:1;stroke:#a37b33;stroke-width:6.26752;stroke-linecap:butt;stroke-linejoin:miter;stroke-miterlimit:4;stroke-dasharray:none;stroke-dashoffset:0;stroke-opacity:1;-inkscape-stroke:none;stop-color:#000000;stop-opacity:1"
       transform="matrix(-0.21741114,-0.39298787,-0.39298787,0.21741114,670.93251,606.04203)" /><path
       class="UnoptimicedTransforms"
       id="path9001-6-1-6"
       d="m 555.20815,552.04882 c 0,0 161.6476,0.71616 243.6817,0.71616 22.4415,0 97.8898,-11.77002 97.8898,-11.77002 0,0 -19.0335,50.45967 -100.7072,61.23102 -121.8428,16.06895 -222.99,-7.7944 -232.9433,-10.46137 -6.6672,-1.78646 -31.405,-8.68662 -31.405,-25.05122 0,-16.36461 23.484,-14.66459 23.484,-14.66459 z"
       style="font-variation-settings:normal;opacity:1;vector-effect:none;fill:url(#linearGradient5175);fill-opacity:1;stroke:#a37b33;stroke-width:6.26752;stroke-linecap:butt;stroke-linejoin:miter;stroke-miterlimit:4;stroke-dasharray:none;stroke-dashoffset:0;stroke-opacity:1;-inkscape-stroke:none;stop-color:#000000;stop-opacity:1"
       transform="matrix(-0.28531915,-0.34684297,-0.34684297,0.28531915,682.70029,564.52518)" /><path
       class="UnoptimicedTransforms"
       id="path9001-6-1-0-3"
       d="m 555.20815,552.04882 c 0,0 161.6476,0.71616 243.6817,0.71616 22.4415,0 97.8898,-11.77002 97.8898,-11.77002 0,0 -19.0335,50.45967 -100.7072,61.23102 -121.8428,16.06895 -222.99,-7.7944 -232.9433,-10.46137 -6.6672,-1.78646 -31.405,-8.68662 -31.405,-25.05122 0,-16.36461 23.484,-14.66459 23.484,-14.66459 z"
       style="font-variation-settings:normal;opacity:1;vector-effect:none;fill:url(#linearGradient5177);fill-opacity:1;stroke:#a37b33;stroke-width:6.26752;stroke-linecap:butt;stroke-linejoin:miter;stroke-miterlimit:4;stroke-dasharray:none;stroke-dashoffset:0;stroke-opacity:1;-inkscape-stroke:none;stop-color:#000000;stop-opacity:1"
       transform="matrix(-0.33564526,-0.29841134,-0.29841134,0.33564526,686.09156,535.5823)" /><path
       class="UnoptimicedTransforms"
       id="path9001-6-1-0"
       d="m 555.20815,552.04882 c 0,0 161.6476,0.71616 243.6817,0.71616 22.4415,0 97.8898,-11.77002 97.8898,-11.77002 0,0 -19.0335,50.45967 -100.7072,61.23102 -121.8428,16.06895 -222.99,-7.7944 -232.9433,-10.46137 -6.6672,-1.78646 -31.405,-8.68662 -31.405,-25.05122 0,-16.36461 23.484,-14.66459 23.484,-14.66459 z"
       style="font-variation-settings:normal;opacity:1;vector-effect:none;fill:url(#linearGradient7137);fill-opacity:1;stroke:#a37b33;stroke-width:3;stroke-linecap:butt;stroke-linejoin:miter;stroke-miterlimit:4;stroke-dasharray:none;stroke-dashoffset:0;stroke-opacity:1;-inkscape-stroke:none;stop-color:#000000;stop-opacity:1"
       transform="matrix(-0.74734297,-0.66443847,-0.66443847,0.74734297,1055.4463,549.39424)" /><path
       class="UnoptimicedTransforms"
       id="path9001-6-1-0-6-2-3"
       d="m 555.20815,552.04882 c 0,0 161.6476,0.71616 243.6817,0.71616 22.4415,0 97.8898,-11.77002 97.8898,-11.77002 0,0 -19.0335,50.45967 -100.7072,61.23102 -121.8428,16.06895 -222.99,-7.7944 -232.9433,-10.46137 -6.6672,-1.78646 -31.405,-8.68662 -31.405,-25.05122 0,-16.36461 23.484,-14.66459 23.484,-14.66459 z"
       style="font-variation-settings:normal;opacity:1;vector-effect:none;fill:url(#linearGradient5179);fill-opacity:1;stroke:#a37b33;stroke-width:6.26752;stroke-linecap:butt;stroke-linejoin:miter;stroke-miterlimit:4;stroke-dasharray:none;stroke-dashoffset:0;stroke-opacity:1;-inkscape-stroke:none;stop-color:#000000;stop-opacity:1"
       transform="matrix(-0.43193114,-0.1230551,-0.1230551,0.43193114,674.87347,412.28789)" /><path
       class="UnoptimicedTransforms"
       id="path9001-6-1-0-6-2-8-5"
       d="m 555.20815,552.04882 c 0,0 161.6476,0.71616 243.6817,0.71616 22.4415,0 97.8898,-11.77002 97.8898,-11.77002 0,0 -19.0335,50.45967 -100.7072,61.23102 -121.8428,16.06895 -222.99,-7.7944 -232.9433,-10.46137 -6.6672,-1.78646 -31.405,-8.68662 -31.405,-25.05122 0,-16.36461 23.484,-14.66459 23.484,-14.66459 z"
       style="font-variation-settings:normal;opacity:1;vector-effect:none;fill:url(#linearGradient5181);fill-opacity:1;stroke:#a37b33;stroke-width:7.38857;stroke-linecap:butt;stroke-linejoin:miter;stroke-miterlimit:4;stroke-dasharray:none;stroke-dashoffset:0;stroke-opacity:1;-inkscape-stroke:none;stop-color:#000000;stop-opacity:1"
       transform="matrix(-0.37913513,-0.03739253,-0.03739253,0.37913513,594.67221,401.23531)" /><path
       class="UnoptimicedTransforms"
       id="path9001-6-1-0-6"
       d="m 555.20815,552.04882 c 0,0 161.6476,0.71616 243.6817,0.71616 22.4415,0 97.8898,-11.77002 97.8898,-11.77002 0,0 -19.0335,50.45967 -100.7072,61.23102 -121.8428,16.06895 -222.99,-7.7944 -232.9433,-10.46137 -6.6672,-1.78646 -31.405,-8.68662 -31.405,-25.05122 0,-16.36461 23.484,-14.66459 23.484,-14.66459 z"
       style="font-variation-settings:normal;opacity:1;vector-effect:none;fill:url(#linearGradient7139);fill-opacity:1;stroke:#a37b33;stroke-width:3;stroke-linecap:butt;stroke-linejoin:miter;stroke-miterlimit:4;stroke-dasharray:none;stroke-dashoffset:0;stroke-opacity:1;-inkscape-stroke:none;stop-color:#000000;stop-opacity:1"
       transform="matrix(-0.84916809,-0.52812267,-0.52812267,0.84916809,1061.7262,462.73146)" /><path
       class="UnoptimicedTransforms"
       id="path9001-6-1-0-6-2-8-2-6"
       d="m 555.20815,552.04882 c 0,0 161.6476,0.71616 243.6817,0.71616 22.4415,0 97.8898,-11.77002 97.8898,-11.77002 0,0 -19.0335,50.45967 -100.7072,61.23102 -121.8428,16.06895 -222.99,-7.7944 -232.9433,-10.46137 -6.6672,-1.78646 -31.405,-8.68662 -31.405,-25.05122 0,-16.36461 23.484,-14.66459 23.484,-14.66459 z"
       style="font-variation-settings:normal;opacity:1;vector-effect:none;fill:url(#linearGradient5183);fill-opacity:1;stroke:#a37b33;stroke-width:9.909;stroke-linecap:butt;stroke-linejoin:miter;stroke-miterlimit:4;stroke-dasharray:none;stroke-dashoffset:0;stroke-opacity:1;-inkscape-stroke:none;stop-color:#000000;stop-opacity:1"
       transform="matrix(-0.27776236,0.05953374,0.05953374,0.27776236,465.83021,400.88856)" /><path
       class="UnoptimicedTransforms"
       id="path9001-6-1-0-6-2-8-2-3-9-5"
       d="m 555.20815,552.04882 c 0,0 161.6476,0.71616 243.6817,0.71616 22.4415,0 97.8898,-11.77002 97.8898,-11.77002 0,0 -19.0335,50.45967 -100.7072,61.23102 -121.8428,16.06895 -222.99,-7.7944 -232.9433,-10.46137 -6.6672,-1.78646 -31.405,-8.68662 -31.405,-25.05122 0,-16.36461 23.484,-14.66459 23.484,-14.66459 z"
       style="font-variation-settings:normal;opacity:1;vector-effect:none;fill:url(#linearGradient5185);fill-opacity:1;stroke:#a37b33;stroke-width:9.909;stroke-linecap:butt;stroke-linejoin:miter;stroke-miterlimit:4;stroke-dasharray:none;stroke-dashoffset:0;stroke-opacity:1;-inkscape-stroke:none;stop-color:#000000;stop-opacity:1"
       transform="matrix(-0.20154958,0.20018482,0.20018482,0.20154958,356.67704,361.54481)" /><path
       class="UnoptimicedTransforms"
       id="path9001-6-1-0-6-2-8-2-3-1"
       d="m 555.20815,552.04882 c 0,0 161.6476,0.71616 243.6817,0.71616 22.4415,0 97.8898,-11.77002 97.8898,-11.77002 0,0 -19.0335,50.45967 -100.7072,61.23102 -121.8428,16.06895 -222.99,-7.7944 -232.9433,-10.46137 -6.6672,-1.78646 -31.405,-8.68662 -31.405,-25.05122 0,-16.36461 23.484,-14.66459 23.484,-14.66459 z"
       style="font-variation-settings:normal;opacity:1;vector-effect:none;fill:url(#linearGradient5187);fill-opacity:1;stroke:#a37b33;stroke-width:9.909;stroke-linecap:butt;stroke-linejoin:miter;stroke-miterlimit:4;stroke-dasharray:none;stroke-dashoffset:0;stroke-opacity:1;-inkscape-stroke:none;stop-color:#000000;stop-opacity:1"
       transform="matrix(-0.24748346,0.13945657,0.13945657,0.24748346,411.97695,372.75619)" /><path
       class="UnoptimicedTransforms"
       id="path9001-6-1-0-6-2-8-2-3-9-8-7"
       d="m 555.20815,552.04882 c 0,0 161.6476,0.71616 243.6817,0.71616 22.4415,0 97.8898,-11.77002 97.8898,-11.77002 0,0 -19.0335,50.45967 -100.7072,61.23102 -121.8428,16.06895 -222.99,-7.7944 -232.9433,-10.46137 -6.6672,-1.78646 -31.405,-8.68662 -31.405,-25.05122 0,-16.36461 23.484,-14.66459 23.484,-14.66459 z"
       style="font-variation-settings:normal;opacity:1;vector-effect:none;fill:url(#linearGradient5189);fill-opacity:1;stroke:#a37b33;stroke-width:13.934;stroke-linecap:butt;stroke-linejoin:miter;stroke-miterlimit:4;stroke-dasharray:none;stroke-dashoffset:0;stroke-opacity:1;-inkscape-stroke:none;stop-color:#000000;stop-opacity:1"
       transform="matrix(-0.1083246,0.17051389,0.17051389,0.1083246,311.56033,449.6108)" /><path
       id="rect8152-5-7"
       style="font-variation-settings:normal;opacity:1;vector-effect:none;fill:url(#linearGradient5151);fill-opacity:1;stroke:#a37b33;stroke-width:6.26752;stroke-linecap:butt;stroke-linejoin:miter;stroke-miterlimit:4;stroke-dasharray:none;stroke-dashoffset:0;stroke-opacity:1;-inkscape-stroke:none;stop-color:#000000;stop-opacity:1"
       d="m 555.20815,552.04882 c 0,0 161.6476,0.71616 243.6817,0.71616 22.4415,0 97.8898,-11.77002 97.8898,-11.77002 0,0 -19.0335,50.45967 -100.7072,61.23102 -121.8428,16.06895 -222.99,-7.7944 -232.9433,-10.46137 -6.6672,-1.78646 -31.405,-8.68662 -31.405,-25.05122 0,-16.36461 23.484,-14.66459 23.484,-14.66459 z"
       class="UnoptimicedTransforms"
       transform="matrix(0.13895499,-0.42708147,0.42708147,0.13895499,367.48098,651.07676)" /><path
       d="M 530.33688,419.35118 C 475.9014,473.78666 379.98399,474.3724 309.4069,474.3724 c 0,172.38564 -52.8868,267.03001 220.92998,447.18964 273.81678,-180.15963 220.92998,-274.804 220.92998,-447.18964 -70.57709,0 -166.4945,-0.58574 -220.92998,-55.02122 z"
       id="path362"
       style="fill:url(#linearGradient10518);fill-opacity:1;stroke:#7a5d1f;stroke-width:4;stroke-dasharray:none;stroke-opacity:1"
       class="UnoptimicedTransforms"
       transform="matrix(0.93828562,0,0,0.93828562,14.991489,38.448929)" /><path
       d="M 530.33688,419.35118 C 475.9014,473.78666 379.98399,474.3724 309.4069,474.3724 c 0,172.38564 -52.8868,267.03001 220.92998,447.18964 273.81678,-180.15963 220.92998,-274.804 220.92998,-447.18964 -70.57709,0 -166.4945,-0.58574 -220.92998,-55.02122 z"
       id="path362-5"
       style="fill:url(#linearGradient62847);fill-opacity:1;stroke:url(#linearGradient62879);stroke-width:4;stroke-dasharray:none;stroke-opacity:1"
       class="UnoptimicedTransforms"
       transform="matrix(0.87720804,0,0,0.87720804,47.383517,79.385762)" /><path
       class="UnoptimicedTransforms"
       id="path9001-6-1-0-6-2-8"
       d="m 555.20815,552.04882 c 0,0 161.6476,0.71616 243.6817,0.71616 22.4415,0 97.8898,-11.77002 97.8898,-11.77002 0,0 -19.0335,50.45967 -100.7072,61.23102 -121.8428,16.06895 -222.99,-7.7944 -232.9433,-10.46137 -6.6672,-1.78646 -31.405,-8.68662 -31.405,-25.05122 0,-16.36461 23.484,-14.66459 23.484,-14.66459 z"
       style="font-variation-settings:normal;opacity:1;vector-effect:none;fill:url(#linearGradient7141);fill-opacity:1;stroke:#a37b33;stroke-width:3.5366;stroke-linecap:butt;stroke-linejoin:miter;stroke-miterlimit:4;stroke-dasharray:none;stroke-dashoffset:0;stroke-opacity:1;-inkscape-stroke:none;stop-color:#000000;stop-opacity:1"
       transform="matrix(-0.8441769,-0.08325769,-0.08325769,0.8441769,851.89326,250.25913)" /><path
       class="UnoptimicedTransforms"
       id="path9001-6-1-0-6-2-8-2-3-9"
       d="m 555.20815,552.04882 c 0,0 161.6476,0.71616 243.6817,0.71616 22.4415,0 97.8898,-11.77002 97.8898,-11.77002 0,0 -19.0335,50.45967 -100.7072,61.23102 -121.8428,16.06895 -222.99,-7.7944 -232.9433,-10.46137 -6.6672,-1.78646 -31.405,-8.68662 -31.405,-25.05122 0,-16.36461 23.484,-14.66459 23.484,-14.66459 z"
       style="font-variation-settings:normal;opacity:1;vector-effect:none;fill:url(#linearGradient7143);fill-opacity:1;stroke:#a37b33;stroke-width:4.74302;stroke-linecap:butt;stroke-linejoin:miter;stroke-miterlimit:4;stroke-dasharray:none;stroke-dashoffset:0;stroke-opacity:1;-inkscape-stroke:none;stop-color:#000000;stop-opacity:1"
       transform="matrix(-0.44876744,0.4457287,0.4457287,0.44876744,321.97662,165.8848)" /><path
       id="text233-3"
       style="font-size:37.3333px;line-height:0.9;fill:url(#linearGradient60943);fill-opacity:1;stroke:url(#linearGradient69711);stroke-width:2;stroke-dasharray:none;stroke-opacity:1"
       d="M 505.85938 581.98633 C 501.23005 581.98633 498.01953 584.93541 498.01953 589.19141 C 498.01953 590.94607 498.57772 592.47526 499.62305 593.66992 C 500.70571 594.86459 502.23756 595.57477 504.96289 596.13477 C 508.43488 596.80676 509.55489 597.14223 510.82422 597.85156 C 512.42955 598.78489 513.40039 600.39054 513.40039 602.0332 C 513.40039 604.75853 511.19811 606.55078 507.80078 606.55078 C 504.70212 606.55078 502.05058 605.31895 500.78125 603.26562 C 500.29592 602.48163 500.07105 601.81002 499.62305 599.94336 C 499.23906 601.51423 497.53326 605.07969 496.27344 607.07031 L 493.94922 605.28125 L 490.32812 595.5 C 491.14946 595.052 491.78475 594.90234 492.83008 594.90234 C 493.16608 594.90234 493.38922 594.90212 493.94922 594.93945 C 493.46389 594.23012 492.64219 592.32681 492.38086 591.24414 C 491.67153 592.14014 490.7767 592.84881 489.58203 593.63281 L 486.29688 584.85938 L 488.34961 582.61914 L 479.42578 582.61914 L 481.48047 584.85938 L 478.11914 593.89453 C 477.96981 593.7452 477.70844 593.52049 477.14844 593.03516 C 476.51377 592.47516 476.32841 592.32758 475.95508 591.76758 C 475.88041 592.14091 474.94717 593.96946 474.3125 594.82812 C 475.6565 594.97746 476.29083 595.20082 477.29883 595.91016 C 475.28283 602.55548 473.04208 605.99082 469.60742 607.52148 L 479.31445 607.52148 L 478.97852 607.14844 C 477.37319 605.46844 477.03711 604.83273 477.03711 603.41406 C 477.03711 602.2194 477.03808 602.21974 478.83008 596.84375 C 480.17408 598.15041 481.55438 600.01686 483.23438 602.74219 C 483.64504 601.99552 484.76566 600.53925 485.73633 599.53125 L 487.04297 598.22461 L 489.73047 605.28125 L 487.08008 607.52148 L 496.00195 607.52148 L 496.86133 607.52148 L 496.50781 607.25 C 497.52454 606.6587 498.27976 606.36328 498.91406 606.36328 C 499.43673 606.36328 500.14719 606.47695 501.00586 606.73828 C 504.81385 607.89561 506.04567 608.15625 507.875 608.15625 C 512.84032 608.15625 516.64844 604.79595 516.64844 600.39062 C 516.64844 598.67329 516.08852 597.1426 515.00586 595.83594 C 513.84853 594.49194 512.24223 593.66982 509.62891 593.03516 C 505.03691 591.91516 505.03819 591.91547 503.88086 591.35547 C 502.27553 590.6088 501.45312 589.41415 501.45312 587.77148 C 501.45312 585.34482 503.43265 583.58984 506.19531 583.58984 C 508.39798 583.58984 510.52565 584.82279 511.45898 586.68945 C 511.83232 587.39879 512.0568 588.10762 512.35547 589.37695 C 513.2888 586.95029 514.93129 583.70242 515.64062 582.84375 C 514.48329 583.25442 513.92177 583.4043 513.28711 583.4043 C 512.83911 583.4043 512.27948 583.29108 511.27148 582.95508 C 508.99416 582.24575 507.61404 581.98633 505.85938 581.98633 z M 469.60742 607.52148 L 466.88281 605.28125 L 466.88281 584.85938 L 469.60742 582.61914 L 459.71484 582.61914 L 462.43945 584.85938 L 456.42969 601.43555 L 450.83008 584.85938 L 453.55469 582.61914 L 443.32617 582.61914 L 446.05078 584.85938 L 446.05078 600.31641 C 446.05078 603.0044 445.86469 604.34898 445.30469 605.43164 C 444.74469 606.51431 443.9974 607.11082 442.80273 607.52148 L 450.86719 607.52148 C 449.89652 607.18548 449.33539 606.81112 448.77539 606.06445 C 447.91673 604.90712 447.61914 603.48973 447.61914 600.31641 L 447.61914 587.32422 L 454.48828 607.52148 L 455.83203 607.52148 L 463.03711 587.54883 L 463.03711 605.28125 L 460.3125 607.52148 L 469.60742 607.52148 z M 574.58984 581.98633 C 570.74452 581.98633 566.78744 583.14243 563.80078 585.12109 L 566.52539 586.61523 L 566.52539 595.42578 C 565.89073 595.46311 565.51809 595.5 565.10742 595.5 C 564.88342 595.5 564.80849 595.50022 564.17383 595.46289 C 564.06183 595.98556 563.87423 596.54535 563.35156 597.77734 C 564.13556 597.44134 564.84539 597.32902 566.52539 597.17969 L 566.52539 605.28125 L 563.80078 607.52148 L 573.0957 607.52148 L 570.37109 605.28125 L 570.37109 596.61914 C 571.15509 596.58181 574.178 596.06038 575.11133 595.76172 C 577.42599 601.47371 578.39697 605.02021 579.29297 610.76953 C 580.8983 609.5002 583.39935 608.19348 585.52734 607.52148 C 585.42169 607.44224 585.30731 607.32527 585.19922 607.23633 C 586.20173 606.65643 586.95314 606.36328 587.58203 606.36328 C 588.1047 606.36328 588.81321 606.47695 589.67188 606.73828 C 593.47987 607.89561 594.71169 608.15625 596.54102 608.15625 C 601.50634 608.15625 605.31445 604.79595 605.31445 600.39062 C 605.31445 598.67329 604.75454 597.1426 603.67188 595.83594 C 602.51454 594.49194 600.90825 593.66982 598.29492 593.03516 C 593.70293 591.91516 593.70421 591.91547 592.54688 591.35547 C 590.94154 590.6088 590.11914 589.41415 590.11914 587.77148 C 590.11914 585.34482 592.09867 583.58984 594.86133 583.58984 C 597.06399 583.58984 599.19167 584.82279 600.125 586.68945 C 600.49833 587.39879 600.72282 588.10762 601.02148 589.37695 C 601.95482 586.95029 603.59731 583.70242 604.30664 582.84375 C 603.14931 583.25442 602.58974 583.4043 601.95508 583.4043 C 601.50708 583.4043 600.9455 583.29108 599.9375 582.95508 C 597.66017 582.24575 596.28005 581.98633 594.52539 581.98633 C 589.89607 581.98633 586.68555 584.93541 586.68555 589.19141 C 586.68555 590.94607 587.24568 592.47526 588.29102 593.66992 C 589.37368 594.86459 590.90358 595.57477 593.62891 596.13477 C 597.1009 596.80676 598.2209 597.14223 599.49023 597.85156 C 601.09556 598.78489 602.06641 600.39054 602.06641 602.0332 C 602.06641 604.75853 599.86412 606.55078 596.4668 606.55078 C 593.36814 606.55078 590.7166 605.31895 589.44727 603.26562 C 588.96193 602.48163 588.73901 601.81002 588.29102 599.94336 C 587.90935 601.50473 586.22254 605.03312 584.96484 607.03125 C 582.20903 604.62853 578.81718 599.3905 577.31445 595.12695 C 581.45845 594.00696 583.84766 591.61797 583.84766 588.55664 C 583.84766 584.82331 579.85383 581.98633 574.58984 581.98633 z M 627.22852 581.98633 C 620.3592 581.98633 616.51367 586.68964 616.51367 595.12695 C 616.51367 603.34027 620.39742 608.15625 627.08008 608.15625 C 633.7254 608.15625 637.60742 603.3405 637.60742 595.08984 C 637.60742 586.87653 633.7245 581.98633 627.22852 581.98633 z M 363.65625 582.61914 C 364.96291 584.7098 365.89658 586.72709 366.53125 588.59375 C 366.97925 587.24975 367.16595 586.72624 367.50195 586.12891 C 368.21129 584.93424 369.63055 584.22461 371.31055 584.22461 C 371.83321 584.22461 372.42905 584.26322 373.51172 584.33789 L 373.51172 605.28125 L 370.78711 607.52148 L 380.08203 607.52148 L 377.35742 605.28125 L 377.35742 584.33789 C 378.40275 584.26322 379.03788 584.22461 379.56055 584.22461 C 381.24054 584.22461 382.65981 584.93424 383.36914 586.12891 C 383.70514 586.72624 383.89184 587.24975 384.33984 588.59375 C 384.93718 586.72709 385.90623 584.7098 387.21289 582.61914 L 363.65625 582.61914 z M 387.73633 582.61914 L 390.46094 584.85938 L 390.46094 593.70898 C 388.63161 594.11965 387.62362 595.12613 386.87695 597.2168 C 387.58629 596.2088 388.85561 595.61155 390.46094 595.57422 L 390.46094 605.28125 L 387.73633 607.52148 L 397.07031 607.52148 L 394.30664 605.28125 L 394.30664 595.57422 C 395.6133 595.91022 397.14416 596.06055 399.16016 596.06055 C 400.46682 596.06055 401.58787 595.98527 402.89453 595.83594 L 402.89453 605.28125 L 400.13086 607.52148 L 409.46484 607.52148 L 406.73828 605.28125 L 406.73828 584.85938 L 409.46484 582.61914 L 400.13086 582.61914 L 402.89453 584.85938 L 402.89453 594.08203 C 401.8492 594.23136 400.95315 594.30469 399.64648 594.30469 C 397.48116 594.30469 395.87464 594.11965 394.30664 593.70898 L 394.30664 584.85938 L 397.07031 582.61914 L 387.73633 582.61914 z M 411.48047 582.61914 L 414.20508 584.85938 L 414.20508 593.33398 C 411.96508 593.33398 410.69672 594.30627 410.13672 596.32227 C 411.33138 595.31427 412.52508 594.90212 414.20508 594.93945 L 414.20508 605.28125 L 411.48047 607.52148 L 432.98438 607.52148 C 430.74438 605.39349 429.84733 603.82471 429.25 601.13672 C 428.16734 603.11538 427.42161 604.08604 426.48828 604.7207 C 425.33095 605.5047 423.24028 605.91602 420.62695 605.91602 C 419.99229 605.91602 419.46945 605.87935 418.05078 605.80469 L 418.05078 594.93945 L 423.31445 594.93945 L 425.81641 597.92578 L 425.81641 590.34766 L 423.31445 593.33398 L 418.05078 593.33398 L 418.05078 584.33789 C 419.46945 584.26322 420.44116 584.22461 421.78516 584.22461 C 425.70515 584.22461 426.78664 584.86055 428.16797 587.92188 C 428.27997 588.14587 428.39213 588.33264 428.4668 588.55664 C 429.43746 585.86865 430.03546 584.85914 431.93945 582.61914 L 411.48047 582.61914 z M 517.20703 582.61914 C 518.5137 584.7098 519.44737 586.72709 520.08203 588.59375 C 520.53003 587.24975 520.71673 586.72624 521.05273 586.12891 C 521.76207 584.93424 523.18133 584.22461 524.86133 584.22461 C 525.38399 584.22461 525.98179 584.26322 527.06445 584.33789 L 527.06445 605.28125 L 524.33789 607.52148 L 533.63477 607.52148 L 530.91016 605.28125 L 530.91016 584.33789 C 531.95549 584.26322 532.58866 584.22461 533.11133 584.22461 C 534.79133 584.22461 536.21059 584.93424 536.91992 586.12891 C 537.25592 586.72624 537.44263 587.24975 537.89062 588.59375 C 538.48796 586.72709 539.45896 584.7098 540.76562 582.61914 L 517.20703 582.61914 z M 541.28711 582.61914 L 544.01367 584.85938 L 544.01367 593.33398 C 541.77368 593.33398 540.50336 594.30627 539.94336 596.32227 C 541.13802 595.31427 542.33367 594.90212 544.01367 594.93945 L 544.01367 605.28125 L 541.28711 607.52148 L 562.79102 607.52148 C 560.55102 605.39349 559.65593 603.82471 559.05859 601.13672 C 557.97593 603.11538 557.22825 604.08604 556.29492 604.7207 C 555.13759 605.5047 553.04692 605.91602 550.43359 605.91602 C 549.79893 605.91602 549.27804 605.87935 547.85938 605.80469 L 547.85938 594.93945 L 553.12305 594.93945 L 555.62305 597.92578 L 555.62305 590.34766 L 553.12305 593.33398 L 547.85938 593.33398 L 547.85938 584.33789 C 549.27804 584.26322 550.2478 584.22461 551.5918 584.22461 C 555.51179 584.22461 556.59523 584.86055 557.97656 587.92188 C 558.08856 588.14587 558.20072 588.33264 558.27539 588.55664 C 559.24606 585.86865 559.8421 584.85914 561.74609 582.61914 L 541.28711 582.61914 z M 639.88477 582.61914 L 642.60938 584.85938 L 642.60938 593.33398 C 640.36938 593.33398 639.06368 594.30627 638.54102 596.32227 C 639.69835 595.31427 640.96671 594.86479 642.60938 594.93945 L 642.60938 605.28125 L 639.88477 607.52148 L 649.18164 607.52148 L 646.45508 605.28125 L 646.45508 594.93945 L 651.71875 594.93945 L 654.2207 597.92578 L 654.2207 590.34766 L 651.71875 593.33398 L 646.45508 593.33398 L 646.45508 584.33789 C 647.87374 584.26322 648.84546 584.22461 650.18945 584.22461 C 654.10945 584.22461 655.19093 584.86055 656.57227 587.92188 C 656.68427 588.14587 656.79643 588.33264 656.87109 588.55664 C 657.84176 585.86865 658.43975 584.85914 660.34375 582.61914 L 639.88477 582.61914 z M 574.06641 583.58984 C 577.27707 583.58984 579.62891 585.71909 579.62891 588.59375 C 579.62891 592.17774 576.38175 594.49206 570.37109 595.16406 L 570.37109 584.97266 C 571.49109 584.00199 572.61041 583.58984 574.06641 583.58984 z M 626.78125 583.58984 C 628.90925 583.58984 630.9627 584.82234 631.9707 586.76367 C 632.9787 588.63034 633.38867 591.16918 633.38867 595.20117 C 633.38867 598.9345 632.97803 601.43562 632.08203 603.37695 C 631.18603 605.31828 629.28185 606.55078 627.22852 606.55078 C 625.17519 606.55078 623.08568 605.24362 622.15234 603.37695 C 621.14435 601.43562 620.73242 598.93539 620.73242 595.05273 C 620.73242 591.17007 621.10573 588.705 622.03906 586.76367 C 622.93506 584.85968 624.83992 583.58984 626.78125 583.58984 z M 482.67383 586.61523 L 486.33398 596.24609 C 485.66199 596.88076 485.0259 597.55373 484.61523 598.03906 C 483.83124 599.04706 483.38371 599.60653 483.23438 599.75586 L 483.04883 599.45703 C 481.70483 597.5157 480.88328 596.50896 479.50195 595.01562 L 482.67383 586.61523 z M 462.23438 623.52539 C 455.92505 623.52539 451.37109 629.08842 451.37109 636.81641 C 451.37109 640.66173 452.5287 644.16971 454.58203 646.48438 C 456.37403 648.5377 459.21166 649.69531 462.34766 649.69531 C 466.11832 649.69531 468.80578 648.05262 469.92578 645.14062 C 470.33645 644.02063 470.63477 642.52731 470.63477 641.55664 C 470.63477 640.77264 470.374 640.32422 469.88867 640.32422 C 469.47801 640.32422 469.29146 640.58649 469.2168 641.14648 C 468.84346 645.55181 466.56619 648.05273 463.01953 648.05273 C 458.27821 648.05273 455.58984 643.72168 455.58984 636.06836 C 455.58984 632.37237 456.14886 629.72258 457.38086 627.78125 C 458.35152 626.17592 460.18088 625.13086 461.93555 625.13086 C 463.72754 625.13086 465.66996 626.21325 466.64062 627.78125 C 467.34996 628.97591 467.76015 630.20733 468.02148 632.11133 C 469.25348 629.01267 469.96274 627.59482 471.94141 624.16016 C 470.82141 624.94415 470.33523 625.13086 469.47656 625.13086 C 468.76723 625.13086 468.13345 624.98098 467.05078 624.57031 C 464.73612 623.71165 463.95171 623.52539 462.23438 623.52539 z M 593.9082 623.52539 C 587.59888 623.52539 583.04492 629.08842 583.04492 636.81641 C 583.04492 640.66173 584.20253 644.16971 586.25586 646.48438 C 588.04786 648.5377 590.88549 649.69531 594.02148 649.69531 C 597.79214 649.69531 600.47961 648.05262 601.59961 645.14062 C 602.01028 644.02063 602.30859 642.52731 602.30859 641.55664 C 602.30859 640.77264 602.04783 640.32422 601.5625 640.32422 C 601.15183 640.32422 600.96529 640.58649 600.89062 641.14648 C 600.51729 645.55181 598.24002 648.05273 594.69336 648.05273 C 589.95203 648.05273 587.26367 643.72168 587.26367 636.06836 C 587.26367 632.37237 587.82464 629.72258 589.05664 627.78125 C 590.02731 626.17592 591.85666 625.13086 593.61133 625.13086 C 595.40332 625.13086 597.34379 626.21325 598.31445 627.78125 C 599.02379 628.97591 599.43398 630.20733 599.69531 632.11133 C 600.92731 629.01267 601.63657 627.59482 603.61523 624.16016 C 602.49524 624.94415 602.01101 625.13086 601.15234 625.13086 C 600.44301 625.13086 599.80727 624.98098 598.72461 624.57031 C 596.40995 623.71165 595.62553 623.52539 593.9082 623.52539 z M 407.80273 624.16016 L 410.52734 626.40039 L 410.52734 634.875 C 408.28735 634.875 407.01898 635.84533 406.45898 637.86133 C 407.65365 636.85333 408.84735 636.44314 410.52734 636.48047 L 410.52734 646.82031 L 407.80273 649.06055 L 428.82227 649.06055 L 429.30664 649.06055 L 436.54883 649.06055 L 433.78711 646.82031 L 439.68555 638.64453 L 444.80078 646.82031 L 442.03711 649.06055 L 451.78125 649.06055 L 449.01953 646.82031 L 442.41016 636.25586 L 447.45117 629.3125 C 448.9445 627.22184 450.62491 625.46682 452.26758 624.16016 L 444.80078 624.16016 L 447.5625 626.40039 L 441.47656 634.79883 L 436.25 626.40039 L 438.97656 624.16016 L 429.30664 624.16016 L 432.07031 626.40039 L 438.78906 637.18945 L 433.82422 644.02148 C 432.04515 646.4766 431.2124 647.321 429.10547 648.84766 C 427.03325 646.82987 426.15067 645.27175 425.57422 642.67773 C 424.49155 644.6564 423.74388 645.62705 422.81055 646.26172 C 421.65322 647.04572 419.56255 647.45508 416.94922 647.45508 C 416.31455 647.45508 415.79171 647.41842 414.37305 647.34375 L 414.37305 636.48047 L 419.63672 636.48047 L 422.13867 639.4668 L 422.13867 631.88672 L 419.63672 634.875 L 414.37305 634.875 L 414.37305 625.87695 C 415.79171 625.80229 416.76342 625.76562 418.10742 625.76562 C 422.02741 625.76562 423.1089 626.39961 424.49023 629.46094 C 424.60223 629.68494 424.7144 629.8717 424.78906 630.0957 C 425.75973 627.40771 426.35772 626.40015 428.26172 624.16016 L 407.80273 624.16016 z M 473.35938 624.16016 L 476.08594 626.40039 L 476.08594 634.875 C 473.84594 634.875 472.57562 635.84533 472.01562 637.86133 C 473.21029 636.85333 474.40594 636.44314 476.08594 636.48047 L 476.08594 646.82031 L 473.35938 649.06055 L 494.86328 649.06055 C 492.62329 646.93255 491.72819 645.36573 491.13086 642.67773 C 490.04819 644.6564 489.30052 645.62705 488.36719 646.26172 C 487.20986 647.04572 485.11919 647.45508 482.50586 647.45508 C 481.87119 647.45508 481.3503 647.41842 479.93164 647.34375 L 479.93164 636.48047 L 485.19531 636.48047 L 487.69531 639.4668 L 487.69531 631.88672 L 485.19531 634.875 L 479.93164 634.875 L 479.93164 625.87695 C 481.3503 625.80229 482.32006 625.76562 483.66406 625.76562 C 487.58406 625.76562 488.6675 626.39961 490.04883 629.46094 C 490.16083 629.68494 490.27299 629.8717 490.34766 630.0957 C 491.31832 627.40771 491.91436 626.40015 493.81836 624.16016 L 473.35938 624.16016 z M 495.87109 624.16016 L 498.59766 626.40039 L 498.59766 646.82031 L 495.87109 649.06055 L 516.18164 649.06055 C 515.24831 648.31388 513.49282 644.99169 512.41016 641.81836 C 511.70082 645.85035 509.76073 647.45508 505.69141 647.45508 C 504.68341 647.45508 503.89936 647.41842 502.44336 647.34375 L 502.44336 626.40039 L 505.16797 624.16016 L 495.87109 624.16016 z M 516.70312 624.16016 L 519.42969 626.40039 L 519.42969 646.82031 L 516.70312 649.06055 L 537.01367 649.06055 C 536.08034 648.31388 534.32485 644.99169 533.24219 641.81836 C 532.53286 645.85035 530.59276 647.45508 526.52344 647.45508 C 525.51544 647.45508 524.73139 647.41842 523.27539 647.34375 L 523.27539 626.40039 L 526 624.16016 L 516.70312 624.16016 z M 537.53516 624.16016 L 540.26172 626.40039 L 540.26172 634.875 C 538.02172 634.875 536.75141 635.84533 536.19141 637.86133 C 537.38607 636.85333 538.58172 636.44314 540.26172 636.48047 L 540.26172 646.82031 L 537.53516 649.06055 L 559.03906 649.06055 C 556.79907 646.93255 555.90397 645.36573 555.30664 642.67773 C 554.22398 644.6564 553.4763 645.62705 552.54297 646.26172 C 551.38564 647.04572 549.29497 647.45508 546.68164 647.45508 C 546.04698 647.45508 545.52609 647.41842 544.10742 647.34375 L 544.10742 636.48047 L 549.37109 636.48047 L 551.87109 639.4668 L 551.87109 631.88672 L 549.37109 634.875 L 544.10742 634.875 L 544.10742 625.87695 C 545.52609 625.80229 546.49585 625.76562 547.83984 625.76562 C 551.75984 625.76562 552.84328 626.39961 554.22461 629.46094 C 554.33661 629.68494 554.44877 629.8717 554.52344 630.0957 C 555.4941 627.40771 556.09014 626.40015 557.99414 624.16016 L 537.53516 624.16016 z M 560.04688 624.16016 L 562.77344 626.40039 L 562.77344 642.60156 C 562.77344 646.78289 562.06405 648.20188 559.52539 649.06055 L 567.58984 649.06055 C 565.05118 648.20188 564.3418 646.78289 564.3418 642.60156 L 564.3418 628.30273 L 575.05664 649.06055 L 578.19141 649.06055 L 578.19141 630.61914 C 578.19141 626.43782 578.90079 625.01882 581.43945 624.16016 L 573.375 624.16016 C 575.91366 625.01882 576.62305 626.43782 576.62305 630.61914 L 576.62305 644.32031 L 567.36523 626.40039 L 570.08984 624.16016 L 560.04688 624.16016 z M 605.03516 624.16016 L 607.75977 626.40039 L 607.75977 634.875 C 605.51977 634.875 604.24945 635.84533 603.68945 637.86133 C 604.88412 636.85333 606.07977 636.44314 607.75977 636.48047 L 607.75977 646.82031 L 605.03516 649.06055 L 626.53906 649.06055 C 624.29907 646.93255 623.40202 645.36573 622.80469 642.67773 C 621.72202 644.6564 620.9763 645.62705 620.04297 646.26172 C 618.88564 647.04572 616.79497 647.45508 614.18164 647.45508 C 613.54698 647.45508 613.02413 647.41842 611.60547 647.34375 L 611.60547 636.48047 L 616.86914 636.48047 L 619.37109 639.4668 L 619.37109 631.88672 L 616.86914 634.875 L 611.60547 634.875 L 611.60547 625.87695 C 613.02413 625.80229 613.99389 625.76562 615.33789 625.76562 C 619.25788 625.76562 620.34133 626.39961 621.72266 629.46094 C 621.83466 629.68494 621.94682 629.8717 622.02148 630.0957 C 622.99215 627.40771 623.58819 626.40015 625.49219 624.16016 L 605.03516 624.16016 z " /><path
       id="rect8152-5-5-9-7-3-6-1-9-2-5-2"
       style="font-variation-settings:normal;opacity:1;vector-effect:none;fill:url(#linearGradient7145);fill-opacity:1;stroke:#a37b33;stroke-width:6.66965;stroke-linecap:butt;stroke-linejoin:miter;stroke-miterlimit:4;stroke-dasharray:none;stroke-dashoffset:0;stroke-opacity:1;-inkscape-stroke:none;stop-color:#000000;stop-opacity:1"
       d="m 555.20815,552.04882 c 0,0 161.6476,0.71616 243.6817,0.71616 22.4415,0 97.8898,-11.77002 97.8898,-11.77002 0,0 -19.0335,50.45967 -100.7072,61.23102 -121.8428,16.06895 -222.99,-7.7944 -232.9433,-10.46137 -6.6672,-1.78646 -31.405,-8.68662 -31.405,-25.05122 0,-16.36461 23.484,-14.66459 23.484,-14.66459 z"
       class="UnoptimicedTransforms"
       transform="matrix(0.24119402,0.37966381,-0.37966381,0.24119402,802.47961,357.97132)" /><path
       class="UnoptimicedTransforms"
       id="path9001-6-1-0-6-2-8-2"
       d="m 555.20815,552.04882 c 0,0 161.6476,0.71616 243.6817,0.71616 22.4415,0 97.8898,-11.77002 97.8898,-11.77002 0,0 -19.0335,50.45967 -100.7072,61.23102 -121.8428,16.06895 -222.99,-7.7944 -232.9433,-10.46137 -6.6672,-1.78646 -31.405,-8.68662 -31.405,-25.05122 0,-16.36461 23.484,-14.66459 23.484,-14.66459 z"
       style="font-variation-settings:normal;opacity:1;vector-effect:none;fill:url(#linearGradient7147);fill-opacity:1;stroke:#a37b33;stroke-width:4.74302;stroke-linecap:butt;stroke-linejoin:miter;stroke-miterlimit:4;stroke-dasharray:none;stroke-dashoffset:0;stroke-opacity:1;-inkscape-stroke:none;stop-color:#000000;stop-opacity:1"
       transform="matrix(-0.61846175,0.13255699,0.13255699,0.61846175,565.01545,249.48703)" /><path
       class="UnoptimicedTransforms"
       id="path9001-6-1-0-6-2-8-2-3-9-8"
       d="m 555.20815,552.04882 c 0,0 161.6476,0.71616 243.6817,0.71616 22.4415,0 97.8898,-11.77002 97.8898,-11.77002 0,0 -19.0335,50.45967 -100.7072,61.23102 -121.8428,16.06895 -222.99,-7.7944 -232.9433,-10.46137 -6.6672,-1.78646 -31.405,-8.68662 -31.405,-25.05122 0,-16.36461 23.484,-14.66459 23.484,-14.66459 z"
       style="font-variation-settings:normal;opacity:1;vector-effect:none;fill:url(#linearGradient32202);fill-opacity:1;stroke:#a37b33;stroke-width:6.66965;stroke-linecap:butt;stroke-linejoin:miter;stroke-miterlimit:4;stroke-dasharray:none;stroke-dashoffset:0;stroke-opacity:1;-inkscape-stroke:none;stop-color:#000000;stop-opacity:1"
       transform="matrix(-0.24119402,0.37966381,0.37966381,0.24119402,221.52039,357.97132)" /><path
       style="opacity:1;fill:#ffffff;fill-opacity:0.33;stroke:#ffffff;stroke-width:1;stroke-dasharray:none;stroke-opacity:0.33;stop-color:#000000"
       d="M 465.27626,773.45139 C 391.08843,767.46133 317.68944,747.07311 260.9224,716.68747 161.76265,663.61035 115.38887,584.57964 115.38887,501.2168 c 0,-72.9077 33.22926,-142.94039 111.62355,-195.12958 7.82038,-5.20624 16.11406,-12.5162 16.34128,-12.22178 0.22722,0.29442 2.4918,7.96309 3.83393,13.0189 1.34214,5.05582 9.87528,31.30356 10.94377,32.86979 l 8.30624,23.00432 -14.99202,19.05163 c -34.51073,43.85571 -42.23531,122.86212 -31.73599,162.0461 25.85487,96.49165 77.27636,133.72173 179.44765,159.55332 38.18243,9.65353 69.11989,13.31498 112.79099,13.34884 33.53637,0.026 49.7398,-1.42248 78.15965,-6.37856 115.11503,-20.07459 185.71645,-61.65725 212.30415,-160.88408 15.01821,-56.04882 -2.33405,-139.72222 -27.22158,-167.04157 l -17.77686,-19.51388 11.19239,-29.92856 c 0,0 11.09479,-35.04046 11.44705,-36.03648 0.65327,-1.8471 21.97879,11.71662 40.90234,26.07099 13.63265,10.34097 47.62934,45.12998 56.76149,58.08436 28.02753,39.75838 42.8334,77.69583 42.8334,120.08624 0,36.54495 -12.3393,72.15971 -32.87124,105.21558 -10.42839,16.78942 -18.70335,27.21238 -34.86587,43.91628 -67.27104,69.52433 -173.32539,113.53969 -296.87908,123.21264 -20.8784,1.63456 -69.78666,1.57526 -90.65785,-0.10989 z"
       id="path5452" /><g
       id="g9"
       transform="matrix(1.8988661,0,0,2.3902564,108.27841,582.16052)"
       style="fill:#000000">&#10;		<path
   id="path11"
   fill-rule="evenodd"
   d="m 217.74,92.907 c -17.6,0.396 -37.33,-0.216 -59.87,-1.836 -22.71,-1.691 -47.12,-4.392 -74.77,-8.1 V 69.651 C 67.116,67.311 53.112,65.079 40.512,62.559 27.912,60.038 17.292,57.483 8.076,54.746 18.228,52.226 27.372,49.742 36.336,47.69 45.156,45.602 53.292,43.55 60.888,41.93 50.268,36.278 40.872,30.698 32.124,25.19 23.341,19.539 15.781,14.247 8.869,8.739 c 15.552,3.349 29.7,6.265 42.876,8.604 13.068,2.34 20.988,3.527 35.568,5.508 14.617,1.908 31.497,3.78 51.477,5.76 v 14.112 c 10.98,1.116 22.83,1.979 36.07,2.592 13.22,0.54 27.15,0.937 42.63,1.044 h 0.5 c 15.45,-0.107 29.38,-0.504 42.63,-1.044 13.17,-0.612 25.05,-1.476 36.07,-2.592 V 28.611 c 19.94,-1.979 36.83,-3.852 51.48,-5.76 14.58,-1.98 22.35,-3.168 35.57,-5.508 13.17,-2.34 27.18,-5.256 42.84,-8.604 -6.95,5.508 -14.51,10.8 -23.26,16.452 -8.78,5.508 -18.22,11.088 -28.73,16.74 7.56,1.62 15.7,3.672 24.55,5.76 8.79,2.052 18.15,4.536 28.23,7.056 -9.22,2.736 -19.84,5.292 -32.4,7.813 -12.67,2.52 -26.61,4.752 -42.63,7.092 v 13.32 c -27.57,3.708 -52.16,6.408 -74.73,8.1 -22.57,1.619 -42.3,2.232 -59.87,1.835 z"
   style="fill:#000000" /><path
   id="path11-6"
   fill-rule="evenodd"
   d="m 217.74015,95.820308 c -17.6,0.396002 -37.33,-0.216 -59.87,-1.836004 -22.71,-1.691004 -47.12,-4.392012 -74.769999,-8.10002 V 72.56424 c -15.983999,-2.340006 -29.987999,-4.572012 -42.588,-7.092018 -12.6,-2.521008 -23.22,-5.076014 -32.4359996,-7.81302 10.1519996,-2.520008 19.2959996,-5.004014 28.2599996,-7.056018 8.82,-2.088006 16.956001,-4.140012 24.552001,-5.760016 -10.62,-5.652014 -20.016001,-11.232028 -28.764001,-16.740042 -8.783,-5.651024 -16.343,-10.943038 -23.2549996,-16.451042 15.5519996,3.348998 29.6999996,6.265006 42.8760006,8.604012 13.068,2.340006 20.987999,3.527008 35.567999,5.508024 14.616999,1.908004 31.496999,3.78001 51.476999,5.760014 V 45.63617 c 10.98,1.116004 22.83,1.979006 36.07,2.592008 13.22,0.54 27.15,0.937002 42.63,1.044002 h 0.5 c 15.45,-0.107 29.38001,-0.504002 42.63001,-1.044002 13.17,-0.612002 25.05,-1.476004 36.07,-2.592008 V 31.524134 c 19.94,-1.979004 36.83,-3.85201 51.48,-5.760014 14.58,-1.980016 22.35,-3.168018 35.57,-5.508024 13.17,-2.340006 27.18,-5.256014 42.84,-8.604012 -6.95,5.508004 -14.51,10.800018 -23.26,16.452042 -8.78,5.508014 -18.22,11.088028 -28.73,16.740042 7.56,1.620004 15.7,3.67201 24.55,5.760016 8.79,2.052004 18.15,4.53601 28.23,7.056018 -9.22,2.736006 -19.84,5.292012 -32.4,7.81302 -12.67,2.520006 -26.61,4.752012 -42.63,7.092018 v 13.320044 c -27.57,3.708008 -52.16,6.408016 -74.73,8.10002 -22.57,1.619004 -42.30001,2.232006 -59.87001,1.835004 z"
   style="fill:#000000" />&#10;		&#10;	</g><path
       id="path15"
       d="m 137.01395,609.50506 c 13.3984,4.7327 29.94132,9.3698 50.17563,14.29373 20.30268,4.90002 42.24598,9.70444 70.61504,14.79569 28.23234,4.80441 60.29849,9.46541 97.74413,14.26983 -11.33623,0.9561 -24.1156,3.01172 -39.36349,6.21466 -15.32385,3.25075 -31.994,7.12297 -51.13457,12.54885 v 71.25354 c -14.62886,-2.66752 -32.33389,-6.79789 -53.86703,-11.44454 -21.73822,-4.73032 -46.00573,-10.92826 -74.64823,-17.64488 21.80658,-7.74443 40.537,-13.67226 57.01156,-18.76351 16.54292,-4.97173 29.59952,-8.60492 40.74207,-10.82786 -13.26168,-8.27029 -27.54875,-18.42888 -43.88659,-30.81041 -16.26949,-12.47714 -33.97642,-27.1055 -53.38852,-43.8851 z"
       fill-rule="evenodd"
       stroke="#000000"
       stroke-miterlimit="10"
       stroke-width="0.0766959"
       fill="#437abe"
       style="fill:#721119;fill-opacity:1" /><path
       id="path17"
       d="m 278.65417,672.22538 90.03473,-19.36107 v 30.11723 c -15.03902,-1.29074 -29.60332,-2.65319 -44.77526,-4.46978 -15.11497,-1.8883 -30.01728,-3.87222 -45.25947,-6.28638 z"
       fill-rule="evenodd"
       stroke="#000000"
       stroke-miterlimit="10"
       stroke-width="0.0766959"
       fill="#437abe"
       style="fill:#721119;fill-opacity:1" /><path
       id="path19"
       d="m 906.46677,609.50506 c -13.53891,4.7327 -29.94512,9.3698 -50.244,14.29373 -20.50775,4.90002 -42.38269,9.70444 -70.61883,14.79569 -28.2931,4.80441 -60.36495,9.46541 -97.75362,14.26983 11.2223,0.9561 24.05863,3.01172 39.38248,6.21466 15.22891,3.25075 31.91994,7.12297 51.13646,12.54885 v 71.25354 c 14.54532,-2.66752 32.26174,-6.79789 53.85185,-11.44454 21.60909,-4.73032 46.08548,-10.92826 74.72038,-17.64488 -21.93191,-7.74443 -40.59776,-13.67226 -57.00396,-18.76351 -16.61508,-4.97173 -29.67928,-8.60492 -40.74967,-10.82786 13.12117,-8.27029 27.49558,-18.42888 43.8828,-30.81041 16.19732,-12.47714 33.91374,-27.1055 53.39611,-43.8851 z"
       fill-rule="evenodd"
       stroke="#000000"
       stroke-miterlimit="10"
       stroke-width="0.0766959"
       fill="#437abe"
       style="fill:#721119;fill-opacity:1" /><path
       id="path21"
       d="m 764.83035,672.22538 -90.1012,-19.36107 v 30.11723 c 14.9061,-1.29074 29.66029,-2.65319 44.83223,-4.46978 15.03902,-1.8883 29.94512,-3.87222 45.26897,-6.28638 z"
       fill-rule="evenodd"
       stroke="#000000"
       stroke-miterlimit="10"
       stroke-width="0.0766959"
       fill="#437abe"
       style="fill:#721119;fill-opacity:1" /><path
       id="path23"
       d="m 518.05371,799.84356 c -21.13438,0.34659 -45.26897,-0.43024 -74.24566,-2.32333 -29.18558,-2.32333 -68.77693,-5.85134 -98.17138,-9.63751 -29.31849,-3.87222 -54.54113,-7.74443 -76.48443,-12.56319 V 675.06979 c 21.53314,3.87221 43.27326,7.40979 66.04066,10.2542 22.74842,2.58148 38.54699,4.73271 69.23266,6.78833 30.57175,1.8883 67.61862,3.60928 112.73568,5.16295 h 9.15254 c 45.11706,-1.55367 81.97405,-3.27465 112.65972,-5.16295 30.34388,-2.05562 46.40829,-4.20685 69.25165,-6.78833 22.69145,-2.84441 44.35751,-6.38199 66.09953,-10.2542 v 100.24974 c -22.08381,4.81876 -47.24379,8.69097 -76.48633,12.56319 -29.54635,3.78617 -69.3276,7.31657 -98.24733,9.63751 -29.05265,1.89309 -53.2442,2.66753 -74.16971,2.32333 z"
       fill-rule="evenodd"
       stroke="#000000"
       stroke-miterlimit="10"
       stroke-width="0.0766959"
       fill="#437abe"
       style="fill:#721119;fill-opacity:1" /><path
       style="font-size:97.5817px;font-family:'Algerian Basic D';-inkscape-font-specification:'Algerian Basic D';text-align:center;letter-spacing:6px;text-anchor:middle;stroke:#000000;stroke-width:2"
       d="m 387.65799,636.39285 -23.17941,-2.57532 4.68765,6.41174 -11.33628,22.50058 c -0.34484,-0.43104 -0.95909,-1.08838 -2.27378,-2.51082 -1.48711,-1.63795 -1.92894,-2.07977 -2.73715,-3.6423 -0.30173,0.9483 -3.25435,5.43118 -5.15092,7.47865 3.44835,0.77586 5.03244,1.54095 7.44631,3.6746 -7.15521,16.68145 -13.96564,24.95754 -23.33005,27.94259 l 25.21609,2.80159 -0.76511,-1.06682 c -3.68546,-4.82767 -4.37514,-6.57339 -3.96568,-10.25882 0.34481,-3.10352 0.34481,-3.10352 6.55174,-16.55213 3.11432,3.78239 6.164,9.03032 9.74172,16.59512 1.28234,-1.82117 4.61213,-5.28032 7.42467,-7.61876 l 3.77161,-3.01733 4.94637,19.10598 -7.53245,5.05404 25.41005,2.82315 -6.9183,-6.65957 -6.58439,-26.45527 c 2.26298,-0.92676 3.95482,-1.13152 6.6704,-0.82981 0.87286,0.097 1.45477,0.16163 2.89877,0.42025 -1.05607,-1.9828 -2.64019,-7.16609 -3.0066,-10.05408 -2.10133,2.12291 -4.6337,3.70701 -7.9635,5.39888 l -6.00246,-23.73969 z m -15.89468,8.73953 6.72447,26.0781 c -1.92891,1.45479 -3.77161,3.01734 -4.97852,4.15961 -2.32762,2.39231 -3.65307,3.71778 -4.08411,4.06262 l -0.39872,-0.82976 c -2.93114,-5.43113 -4.77388,-8.28678 -7.9313,-12.56487 z m 47.78398,46.76686 c -3.79541,-0.27945 -6.92992,2.42513 -7.20221,6.12322 -0.26513,3.60078 2.43946,6.73529 6.04023,7.00042 3.6981,0.27229 6.83261,-2.4323 7.09773,-6.03307 0.27229,-3.6981 -2.43229,-6.83261 -5.93575,-7.09057 z m 75.56512,-48.81012 c -3.00892,1.9276 -4.2964,2.36315 -6.53889,2.27123 -1.8525,-0.0759 -3.49401,-0.53387 -6.27755,-1.72227 -5.95307,-2.49027 -7.98058,-3.06169 -12.46558,-3.24553 -16.47747,-0.67539 -28.96791,13.36452 -29.79517,33.54698 -0.41163,10.04249 2.2352,19.33136 7.34991,25.59615 4.46019,5.55432 11.74629,8.88054 19.93628,9.21624 9.84748,0.40364 17.04331,-3.59861 20.28002,-11.0837 1.1924,-2.88104 2.13225,-6.74906 2.23616,-9.28406 0.0839,-2.04749 -0.55062,-3.24547 -1.81812,-3.29742 -1.0725,-0.044 -1.58797,0.61856 -1.84292,2.07306 -1.44657,11.46502 -7.66182,17.75372 -16.9243,17.37407 -12.38248,-0.50755 -18.93889,-12.10527 -18.11962,-32.09274 0.39564,-9.65248 2.14189,-16.51502 5.56719,-21.45313 2.70685,-4.08859 7.59624,-6.62276 12.17873,-6.43493 4.67999,0.19183 9.63409,3.22714 12.00123,7.42604 1.72461,3.19592 2.66523,6.45738 3.14391,11.45785 3.5492,-7.96061 5.55356,-11.58967 11.08872,-20.34784 z m 15.85201,52.5518 c -3.80552,-0.0348 -6.75965,2.86568 -6.7936,6.57363 -0.0331,3.61037 2.86747,6.5645 6.47784,6.59756 3.70795,0.034 6.66208,-2.86658 6.69514,-6.47695 0.0339,-3.70795 -2.86658,-6.66208 -6.37938,-6.69424 z m 17.99918,-52.29275 7.25251,5.69428 0.49493,22.14551 c -5.85344,0.13082 -9.11371,2.74144 -10.45933,8.04224 3.06297,-2.70381 6.16082,-3.84672 10.55308,-3.84727 l 0.60394,27.02338 -6.99087,6.01261 56.19303,-1.25586 c -5.97771,-5.42995 -8.41066,-9.47503 -10.12856,-16.46427 -2.71361,5.23376 -4.60807,7.81386 -7.00994,9.52684 -2.97849,2.1163 -8.41772,3.31153 -15.24673,3.46415 -1.65847,0.0371 -3.02646,-0.03 -6.738,-0.14224 l -0.63446,-28.38918 13.75558,-0.30742 6.71077,7.6585 -0.4426,-19.80414 -6.36192,7.95067 -13.75559,0.30742 -0.52545,-23.51132 c 3.70282,-0.27796 6.23713,-0.43221 9.74919,-0.5107 10.24353,-0.22893 13.10975,1.36632 16.89816,9.28535 0.30575,0.5788 0.60933,1.06005 0.81752,1.64103 2.37951,-7.08082 3.88156,-9.74975 8.72617,-15.71439 z m 74.26817,50.21925 c -3.80018,0.20447 -6.56612,3.28498 -6.36689,6.98773 0.19398,3.60531 3.27449,6.37124 6.8798,6.17726 3.70275,-0.19923 6.46869,-3.27974 6.2747,-6.88505 -0.19923,-3.70275 -3.27974,-6.46868 -6.78761,-6.27994 z m 62.32679,-56.79056 c -2.92383,1.32447 -4.34946,1.83674 -6.00245,1.97651 -1.16682,0.0987 -2.65,-0.0697 -5.34934,-0.72281 -6.08754,-1.34591 -9.74278,-1.72233 -14.31281,-1.33589 -12.0571,1.01955 -19.76973,9.40819 -18.8324,20.49295 0.38644,4.57003 2.18207,8.43332 5.16775,11.31461 3.08291,2.87306 7.22576,4.38342 14.44722,5.24172 9.19083,0.98556 12.18187,1.61401 15.64407,3.18191 4.38664,2.07732 7.2683,6.04463 7.63007,10.32296 0.60022,7.09813 -4.74196,12.2505 -13.59032,12.99872 -8.07048,0.68244 -15.24547,-1.94253 -19.00367,-7.01088 -1.43672,-1.93504 -2.16812,-3.63594 -3.74605,-8.399 -0.69958,4.466 -4.86779,15.3949 -7.76266,20.53619 3.31134,-2.5324 5.38472,-3.49116 7.32942,-3.65561 1.36128,-0.11511 3.23341,0.0204 5.52736,0.51191 10.17283,2.17561 13.43913,2.58492 18.20363,2.18204 12.93221,-1.09355 22.11015,-10.68333 21.13994,-22.15703 -0.37822,-4.47279 -2.17385,-8.33608 -5.28143,-11.50085 -3.31028,-3.24557 -7.67226,-5.03118 -14.61846,-6.10861 -12.20653,-1.90572 -12.20653,-1.90572 -15.34414,-3.10935 -4.34554,-1.59114 -6.74781,-4.52176 -7.10958,-8.80009 -0.53445,-6.32025 4.23255,-11.32606 11.42792,-11.9345 5.73685,-0.48511 11.55055,2.25497 14.39253,6.91115 1.12857,1.76524 1.8682,3.56337 2.92563,6.80357 1.89642,-6.52581 5.45942,-15.347 7.11777,-17.73962 z m 25.45231,49.34087 c -3.77989,0.44233 -6.34725,3.69019 -5.91626,7.37316 0.41964,3.58605 3.6675,6.15341 7.25355,5.73377 3.68298,-0.43099 6.25034,-3.67885 5.83069,-7.2649 -0.43098,-3.68297 -3.67884,-6.25033 -7.16798,-5.84203 z"
       id="text233-8"
       transform="translate(0.88064111,79.240692)"
       aria-label="A.C.E.S." /><path
       style="font-size:97.5817px;font-family:'Algerian Basic D';-inkscape-font-specification:'Algerian Basic D';text-align:center;letter-spacing:6px;text-anchor:middle;fill:#f2ce6a;stroke:#000000;stroke-width:2"
       d="m 387.65799,636.39285 -23.17941,-2.57532 4.68765,6.41174 -11.33628,22.50058 c -0.34484,-0.43104 -0.95909,-1.08838 -2.27378,-2.51082 -1.48711,-1.63795 -1.92894,-2.07977 -2.73715,-3.6423 -0.30173,0.9483 -3.25435,5.43118 -5.15092,7.47865 3.44835,0.77586 5.03244,1.54095 7.44631,3.6746 -7.15521,16.68145 -13.96564,24.95754 -23.33005,27.94259 l 25.21609,2.80159 -0.76511,-1.06682 c -3.68546,-4.82767 -4.37514,-6.57339 -3.96568,-10.25882 0.34481,-3.10352 0.34481,-3.10352 6.55174,-16.55213 3.11432,3.78239 6.164,9.03032 9.74172,16.59512 1.28234,-1.82117 4.61213,-5.28032 7.42467,-7.61876 l 3.77161,-3.01733 4.94637,19.10598 -7.53245,5.05404 25.41005,2.82315 -6.9183,-6.65957 -6.58439,-26.45527 c 2.26298,-0.92676 3.95482,-1.13152 6.6704,-0.82981 0.87286,0.097 1.45477,0.16163 2.89877,0.42025 -1.05607,-1.9828 -2.64019,-7.16609 -3.0066,-10.05408 -2.10133,2.12291 -4.6337,3.70701 -7.9635,5.39888 l -6.00246,-23.73969 z m -15.89468,8.73953 6.72447,26.0781 c -1.92891,1.45479 -3.77161,3.01734 -4.97852,4.15961 -2.32762,2.39231 -3.65307,3.71778 -4.08411,4.06262 l -0.39872,-0.82976 c -2.93114,-5.43113 -4.77388,-8.28678 -7.9313,-12.56487 z m 47.78398,46.76686 c -3.79541,-0.27945 -6.92992,2.42513 -7.20221,6.12322 -0.26513,3.60078 2.43946,6.73529 6.04023,7.00042 3.6981,0.27229 6.83261,-2.4323 7.09773,-6.03307 0.27229,-3.6981 -2.43229,-6.83261 -5.93575,-7.09057 z m 75.56512,-48.81012 c -3.00892,1.9276 -4.2964,2.36315 -6.53889,2.27123 -1.8525,-0.0759 -3.49401,-0.53387 -6.27755,-1.72227 -5.95307,-2.49027 -7.98058,-3.06169 -12.46558,-3.24553 -16.47747,-0.67539 -28.96791,13.36452 -29.79517,33.54698 -0.41163,10.04249 2.2352,19.33136 7.34991,25.59615 4.46019,5.55432 11.74629,8.88054 19.93628,9.21624 9.84748,0.40364 17.04331,-3.59861 20.28002,-11.0837 1.1924,-2.88104 2.13225,-6.74906 2.23616,-9.28406 0.0839,-2.04749 -0.55062,-3.24547 -1.81812,-3.29742 -1.0725,-0.044 -1.58797,0.61856 -1.84292,2.07306 -1.44657,11.46502 -7.66182,17.75372 -16.9243,17.37407 -12.38248,-0.50755 -18.93889,-12.10527 -18.11962,-32.09274 0.39564,-9.65248 2.14189,-16.51502 5.56719,-21.45313 2.70685,-4.08859 7.59624,-6.62276 12.17873,-6.43493 4.67999,0.19183 9.63409,3.22714 12.00123,7.42604 1.72461,3.19592 2.66523,6.45738 3.14391,11.45785 3.5492,-7.96061 5.55356,-11.58967 11.08872,-20.34784 z m 15.85201,52.5518 c -3.80552,-0.0348 -6.75965,2.86568 -6.7936,6.57363 -0.0331,3.61037 2.86747,6.5645 6.47784,6.59756 3.70795,0.034 6.66208,-2.86658 6.69514,-6.47695 0.0339,-3.70795 -2.86658,-6.66208 -6.37938,-6.69424 z m 17.99918,-52.29275 7.25251,5.69428 0.49493,22.14551 c -5.85344,0.13082 -9.11371,2.74144 -10.45933,8.04224 3.06297,-2.70381 6.16082,-3.84672 10.55308,-3.84727 l 0.60394,27.02338 -6.99087,6.01261 56.19303,-1.25586 c -5.97771,-5.42995 -8.41066,-9.47503 -10.12856,-16.46427 -2.71361,5.23376 -4.60807,7.81386 -7.00994,9.52684 -2.97849,2.1163 -8.41772,3.31153 -15.24673,3.46415 -1.65847,0.0371 -3.02646,-0.03 -6.738,-0.14224 l -0.63446,-28.38918 13.75558,-0.30742 6.71077,7.6585 -0.4426,-19.80414 -6.36192,7.95067 -13.75559,0.30742 -0.52545,-23.51132 c 3.70282,-0.27796 6.23713,-0.43221 9.74919,-0.5107 10.24353,-0.22893 13.10975,1.36632 16.89816,9.28535 0.30575,0.5788 0.60933,1.06005 0.81752,1.64103 2.37951,-7.08082 3.88156,-9.74975 8.72617,-15.71439 z m 74.26817,50.21925 c -3.80018,0.20447 -6.56612,3.28498 -6.36689,6.98773 0.19398,3.60531 3.27449,6.37124 6.8798,6.17726 3.70275,-0.19923 6.46869,-3.27974 6.2747,-6.88505 -0.19923,-3.70275 -3.27974,-6.46868 -6.78761,-6.27994 z m 62.32679,-56.79056 c -2.92383,1.32447 -4.34946,1.83674 -6.00245,1.97651 -1.16682,0.0987 -2.65,-0.0697 -5.34934,-0.72281 -6.08754,-1.34591 -9.74278,-1.72233 -14.31281,-1.33589 -12.0571,1.01955 -19.76973,9.40819 -18.8324,20.49295 0.38644,4.57003 2.18207,8.43332 5.16775,11.31461 3.08291,2.87306 7.22576,4.38342 14.44722,5.24172 9.19083,0.98556 12.18187,1.61401 15.64407,3.18191 4.38664,2.07732 7.2683,6.04463 7.63007,10.32296 0.60022,7.09813 -4.74196,12.2505 -13.59032,12.99872 -8.07048,0.68244 -15.24547,-1.94253 -19.00367,-7.01088 -1.43672,-1.93504 -2.16812,-3.63594 -3.74605,-8.399 -0.69958,4.466 -4.86779,15.3949 -7.76266,20.53619 3.31134,-2.5324 5.38472,-3.49116 7.32942,-3.65561 1.36128,-0.11511 3.23341,0.0204 5.52736,0.51191 10.17283,2.17561 13.43913,2.58492 18.20363,2.18204 12.93221,-1.09355 22.11015,-10.68333 21.13994,-22.15703 -0.37822,-4.47279 -2.17385,-8.33608 -5.28143,-11.50085 -3.31028,-3.24557 -7.67226,-5.03118 -14.61846,-6.10861 -12.20653,-1.90572 -12.20653,-1.90572 -15.34414,-3.10935 -4.34554,-1.59114 -6.74781,-4.52176 -7.10958,-8.80009 -0.53445,-6.32025 4.23255,-11.32606 11.42792,-11.9345 5.73685,-0.48511 11.55055,2.25497 14.39253,6.91115 1.12857,1.76524 1.8682,3.56337 2.92563,6.80357 1.89642,-6.52581 5.45942,-15.347 7.11777,-17.73962 z m 25.45231,49.34087 c -3.77989,0.44233 -6.34725,3.69019 -5.91626,7.37316 0.41964,3.58605 3.6675,6.15341 7.25355,5.73377 3.68298,-0.43099 6.25034,-3.67885 5.83069,-7.2649 -0.43098,-3.68297 -3.67884,-6.25033 -7.16798,-5.84203 z"
       id="text233"
       transform="translate(0,74)"
       aria-label="A.C.E.S." /><path
       style="opacity:0.572308;fill:none;stroke:none;stroke-width:2;stroke-dasharray:none;stroke-opacity:1"
       d="m 269.95663,685.0478 c 271.99881,51.53624 503.79243,0.90802 503.79243,0.90802"
       id="path4757" /></g></svg>
