<svg width="346" height="201" viewBox="0 0 346 201" fill="none" xmlns="http://www.w3.org/2000/svg">
<path opacity="0.5" d="M100.528 109.265H57.084V188.931H100.528H112.404H163.478V50.0105H100.528V109.265Z" fill="#F1EBE1"/>
<path opacity="0.5" d="M235.091 114.09V0H172.141V188.931H232.612H235.091H281.307V114.09H235.091Z" fill="#F1EBE1"/>
<path d="M0.664062 186.408H346V188.09H0.664062V186.408Z" fill="#7D111C"/>
<path d="M76.3281 69.5164H228.087V195.567H76.3281V69.5164Z" fill="#7D111C"/>
<path d="M76.3281 83.7949H228.087V195.567H76.3281V83.7949Z" fill="white"/>
<path d="M79.5508 76.3819C79.5508 75.0893 80.5422 74.0415 81.7652 74.0415C82.9882 74.0415 83.9797 75.0893 83.9797 76.3819C83.9797 77.6744 82.9882 78.7222 81.7652 78.7222C80.5422 78.7222 79.5508 77.6744 79.5508 76.3819Z" fill="white"/>
<path d="M93.3937 76.3819C93.3937 77.6744 92.4023 78.7222 91.1793 78.7222C89.9563 78.7222 88.9648 77.6744 88.9648 76.3819C88.9648 75.0893 89.9563 74.0415 91.1793 74.0415C92.4023 74.0415 93.3937 75.0893 93.3937 76.3819Z" fill="white"/>
<path d="M102.808 76.3819C102.808 77.6744 101.816 78.7222 100.593 78.7222C99.3704 78.7222 98.3789 77.6744 98.3789 76.3819C98.3789 75.0893 99.3704 74.0415 100.593 74.0415C101.816 74.0415 102.808 75.0893 102.808 76.3819Z" fill="white"/>
<path d="M175.877 80.5908H113.417C111.329 80.5908 109.637 78.8021 109.637 76.5954C109.637 74.3888 111.329 72.6001 113.417 72.6001H175.877C177.965 72.6001 179.658 74.3888 179.658 76.5954C179.659 78.8021 177.966 80.5908 175.877 80.5908Z" fill="white"/>
<path d="M218.842 80.5908H189.271C187.183 80.5908 185.49 78.8021 185.49 76.5954C185.49 74.3888 187.183 72.6001 189.271 72.6001H218.842C220.93 72.6001 222.623 74.3888 222.623 76.5954C222.623 78.8021 220.93 80.5908 218.842 80.5908Z" fill="white"/>
<path d="M88.4414 133.595H142.426V165.799H88.4414V133.595Z" fill="#7D111C"/>
<path d="M88.4414 94.0706H142.426V126.275H88.4414V94.0706Z" fill="#7D111C"/>
<path d="M88.9121 173.935H141.958V176.458H88.9121V173.935Z" fill="#7D111C"/>
<path d="M88.9121 182.344H141.958V184.867H88.9121V182.344Z" fill="#7D111C"/>
<path d="M161.092 173.935H214.138V176.458H161.092V173.935Z" fill="#7D111C"/>
<path d="M161.092 182.344H214.138V184.867H161.092V182.344Z" fill="#7D111C"/>
<path d="M228.883 196.409H75.5332V68.6753H228.883V196.409ZM77.1246 194.727H227.292V70.3572H77.1246V194.727Z" fill="#7D111C"/>
<path d="M265.241 177.439H249.672V38.9629H265.241V177.439ZM251.263 175.757H263.649V40.6448H251.263V175.757Z" fill="#7D111C"/>
<path d="M247.541 169.428H267.372V184.447H247.541V169.428Z" fill="#7D111C"/>
<path d="M264.529 161.46H250.737C250.422 161.46 250.135 161.262 250.008 160.955C249.881 160.649 249.939 160.293 250.153 160.047L263.415 144.911L264.583 146.053L252.558 159.777H264.529V161.46H264.529Z" fill="#7D111C"/>
<path d="M264.529 146.294H250.737C250.422 146.294 250.135 146.097 250.008 145.79C249.881 145.484 249.939 145.127 250.153 144.881L263.415 129.744L264.583 130.886L252.558 144.612H264.529V146.294H264.529Z" fill="#7D111C"/>
<path d="M264.529 131.129H250.737C250.422 131.129 250.135 130.931 250.008 130.624C249.881 130.318 249.939 129.961 250.153 129.716L263.415 114.579L264.583 115.721L252.558 129.446H264.529V131.129H264.529Z" fill="#7D111C"/>
<path d="M264.529 115.963H250.737C250.422 115.963 250.135 115.765 250.008 115.458C249.881 115.152 249.939 114.796 250.153 114.55L263.415 99.4131L264.583 100.555L252.558 114.28H264.529V115.963H264.529Z" fill="#7D111C"/>
<path d="M264.529 100.797H250.737C250.422 100.797 250.135 100.6 250.008 100.293C249.881 99.9866 249.939 99.63 250.153 99.3844L263.415 84.2473L264.583 85.3893L252.558 99.1145H264.529V100.797H264.529Z" fill="#7D111C"/>
<path d="M264.529 85.6315H250.737C250.422 85.6315 250.135 85.4338 250.008 85.1269C249.881 84.8208 249.939 84.4642 250.153 84.2187L263.415 69.0815L264.583 70.2236L252.558 83.9487H264.529V85.6315H264.529Z" fill="#7D111C"/>
<path d="M264.529 70.4657H250.737C250.422 70.4657 250.135 70.2681 250.008 69.9611C249.881 69.655 249.939 69.2984 250.153 69.0529L263.415 53.9158L264.583 55.0578L252.558 68.7829H264.529V70.4657H264.529Z" fill="#7D111C"/>
<path d="M264.53 55.3002H250.738C250.422 55.3002 250.135 55.1025 250.008 54.7956C249.881 54.4886 249.939 54.1329 250.154 53.8874L263.415 38.7502L264.583 39.8923L252.558 53.6174H264.529V55.3002H264.53Z" fill="#7D111C"/>
<path d="M239.975 33.115H265.214V55.602H239.975V33.115Z" fill="#ED7445"/>
<path d="M277.904 33.115H303.143V46.0312H277.904V33.115Z" fill="#ED7445"/>
<path d="M302.724 34.7573H178.063C177.624 34.7573 177.268 34.3806 177.268 33.9164C177.268 33.4522 177.624 33.0754 178.063 33.0754H302.724C303.163 33.0754 303.519 33.4522 303.519 33.9164C303.519 34.3806 303.163 34.7573 302.724 34.7573Z" fill="#7D111C"/>
<path d="M183.854 37.8411H184.649V92.5029H183.854V37.8411Z" fill="#7D111C"/>
<path d="M240.775 181.762H274.134V188.371H240.775V181.762Z" fill="#7D111C"/>
<path d="M252.687 34.537C252.585 34.537 252.483 34.4958 252.406 34.4142L245.759 27.3889H184.819L178.57 33.9938C178.414 34.1577 178.162 34.1577 178.007 33.9938C177.852 33.8298 177.852 33.5632 178.007 33.3992L184.489 26.5488H246.087L252.967 33.8197C253.122 33.9837 253.122 34.2503 252.967 34.4142C252.891 34.4958 252.789 34.537 252.687 34.537Z" fill="#7D111C"/>
<path d="M303.255 34.5371C303.112 34.5371 302.974 34.4547 302.903 34.3117L296.251 20.8817H280.119L273.864 33.887C273.764 34.0939 273.524 34.1746 273.329 34.0712C273.133 33.9661 273.055 33.713 273.155 33.5061L279.631 20.0408H296.733L303.608 33.9215C303.71 34.1275 303.635 34.3815 303.44 34.4891C303.38 34.5219 303.317 34.5371 303.255 34.5371Z" fill="#7D111C"/>
<path d="M187.17 37.8404C187.17 39.5433 185.863 40.9241 184.252 40.9241C182.641 40.9241 181.334 39.5433 181.334 37.8404C181.334 36.1374 182.641 34.7566 184.252 34.7566C185.863 34.7574 187.17 36.1374 187.17 37.8404Z" fill="#7D111C"/>
<path d="M148.756 97.9136L215.383 91.408L218.555 127.696L151.928 134.201L148.756 97.9136Z" fill="#7D111C"/>
<path d="M201.501 27.3829C201.331 27.3829 201.173 27.266 201.121 27.0852C201.057 26.8632 201.175 26.6277 201.385 26.5604L260.294 7.57682C260.383 7.54823 260.479 7.55328 260.564 7.59196L288.484 20.0456C288.687 20.1356 288.782 20.382 288.696 20.5964C288.611 20.8109 288.377 20.9109 288.175 20.8201L260.388 8.42534L201.618 27.3644C201.579 27.377 201.54 27.3829 201.501 27.3829Z" fill="#7D111C"/>
<path d="M251.143 34.5933C251.049 34.5933 250.954 34.5757 250.86 34.5378C250.45 34.373 250.244 33.8878 250.4 33.453L259.675 7.65768C259.801 7.30868 260.127 7.08752 260.484 7.11863C260.838 7.14975 261.13 7.42306 261.199 7.79055L265.994 32.9484C266.081 33.4034 265.801 33.8466 265.371 33.9391C264.941 34.0274 264.521 33.7356 264.434 33.2806L260.183 10.9786L251.886 34.0509C251.766 34.3865 251.464 34.5933 251.143 34.5933Z" fill="#7D111C"/>
<path d="M262.021 7.95623C262.021 8.89221 261.303 9.65075 260.418 9.65075C259.532 9.65075 258.814 8.89221 258.814 7.95623C258.814 7.02026 259.532 6.26172 260.418 6.26172C261.303 6.26172 262.021 7.02026 262.021 7.95623Z" fill="#7D111C"/>
<path d="M193.114 34.6169C193.027 34.6169 192.939 34.5866 192.865 34.5235L185.052 27.8489V34.0896C185.052 34.3217 184.873 34.5101 184.654 34.5101C184.434 34.5101 184.256 34.3217 184.256 34.0896V26.9684C184.256 26.8061 184.344 26.6589 184.483 26.5891C184.62 26.5193 184.785 26.5387 184.904 26.6421L193.366 33.8701C193.537 34.0156 193.563 34.2805 193.425 34.4613C193.346 34.5639 193.231 34.6169 193.114 34.6169Z" fill="#7D111C"/>
<path d="M200.67 34.6169C200.582 34.6169 200.494 34.5866 200.42 34.5235L192.606 27.8489V34.0896C192.606 34.3217 192.428 34.5101 192.208 34.5101C191.989 34.5101 191.811 34.3217 191.811 34.0896V26.9684C191.811 26.8061 191.899 26.6589 192.037 26.5891C192.174 26.5193 192.339 26.5387 192.459 26.6421L200.921 33.8701C201.092 34.0156 201.118 34.2805 200.979 34.4613C200.901 34.5639 200.786 34.6169 200.67 34.6169Z" fill="#7D111C"/>
<path d="M208.227 34.6169C208.139 34.6169 208.051 34.5866 207.977 34.5235L200.163 27.8489V34.0896C200.163 34.3217 199.985 34.5101 199.765 34.5101C199.545 34.5101 199.367 34.3217 199.367 34.0896V26.9684C199.367 26.8061 199.456 26.6589 199.594 26.5891C199.731 26.5193 199.896 26.5387 200.016 26.6421L208.477 33.8701C208.648 34.0156 208.675 34.2805 208.536 34.4613C208.458 34.5639 208.343 34.6169 208.227 34.6169Z" fill="#7D111C"/>
<path d="M215.782 34.6169C215.695 34.6169 215.607 34.5866 215.533 34.5235L207.72 27.8489V34.0896C207.72 34.3217 207.541 34.5101 207.322 34.5101C207.102 34.5101 206.924 34.3217 206.924 34.0896V26.9684C206.924 26.8061 207.012 26.6589 207.151 26.5891C207.288 26.5193 207.452 26.5387 207.572 26.6421L216.034 33.8701C216.205 34.0156 216.231 34.2805 216.093 34.4613C216.013 34.5639 215.899 34.6169 215.782 34.6169Z" fill="#7D111C"/>
<path d="M223.338 34.6169C223.25 34.6169 223.162 34.5866 223.088 34.5235L215.274 27.8489V34.0896C215.274 34.3217 215.096 34.5101 214.876 34.5101C214.657 34.5101 214.479 34.3217 214.479 34.0896V26.9684C214.479 26.8061 214.567 26.6589 214.705 26.5891C214.843 26.5193 215.007 26.5387 215.127 26.6421L223.589 33.8701C223.76 34.0156 223.786 34.2805 223.647 34.4613C223.569 34.5639 223.454 34.6169 223.338 34.6169Z" fill="#7D111C"/>
<path d="M230.893 34.6169C230.805 34.6169 230.717 34.5866 230.643 34.5235L222.829 27.8489V34.0896C222.829 34.3217 222.651 34.5101 222.431 34.5101C222.211 34.5101 222.033 34.3217 222.033 34.0896V26.9684C222.033 26.8061 222.122 26.6589 222.26 26.5891C222.397 26.5193 222.562 26.5387 222.682 26.6421L231.143 33.8701C231.314 34.0156 231.341 34.2805 231.202 34.4613C231.123 34.5639 231.009 34.6169 230.893 34.6169Z" fill="#7D111C"/>
<path d="M238.449 34.6169C238.362 34.6169 238.273 34.5866 238.199 34.5235L230.386 27.8489V34.0896C230.386 34.3217 230.207 34.5101 229.988 34.5101C229.768 34.5101 229.59 34.3217 229.59 34.0896V26.9684C229.59 26.8061 229.678 26.6589 229.817 26.5891C229.953 26.5193 230.118 26.5387 230.238 26.6421L238.7 33.8701C238.871 34.0156 238.897 34.2805 238.759 34.4613C238.68 34.5639 238.565 34.6169 238.449 34.6169Z" fill="#7D111C"/>
<path d="M246.004 34.6169C245.916 34.6169 245.828 34.5866 245.754 34.5235L237.94 27.8489V34.0896C237.94 34.3217 237.762 34.5101 237.542 34.5101C237.323 34.5101 237.145 34.3217 237.145 34.0896V26.9684C237.145 26.8061 237.233 26.6589 237.371 26.5891C237.509 26.5193 237.674 26.5387 237.793 26.6421L246.255 33.8701C246.426 34.0156 246.452 34.2805 246.313 34.4613C246.235 34.5639 246.12 34.6169 246.004 34.6169Z" fill="#7D111C"/>
<path d="M290.671 34.6169C290.558 34.6169 290.446 34.5665 290.367 34.4681L280.22 21.811V34.0897C280.22 34.3218 280.041 34.5102 279.822 34.5102C279.602 34.5102 279.424 34.3218 279.424 34.0897V20.6647C279.424 20.4881 279.528 20.3309 279.685 20.2703C279.842 20.2089 280.017 20.2577 280.126 20.3931L290.975 33.9248C291.117 34.1014 291.096 34.3672 290.929 34.5169C290.853 34.5842 290.762 34.6169 290.671 34.6169Z" fill="#7D111C"/>
<path d="M298.475 34.6169C298.346 34.6169 298.22 34.5504 298.143 34.4285L290.411 22.0632V34.0896C290.411 34.3217 290.233 34.5101 290.013 34.5101C289.793 34.5101 289.615 34.3217 289.615 34.0896V20.6647C289.615 20.4788 289.731 20.3157 289.898 20.2618C290.069 20.2097 290.249 20.2787 290.345 20.4326L298.806 33.9643C298.927 34.1577 298.877 34.4193 298.694 34.5471C298.627 34.5942 298.551 34.6169 298.475 34.6169Z" fill="#7D111C"/>
<path d="M186.758 93.6239C186.758 95.0863 185.636 96.2712 184.253 96.2712C182.869 96.2712 181.748 95.0855 181.748 93.6239C181.748 92.1615 182.87 90.9766 184.253 90.9766C185.636 90.9757 186.758 92.1615 186.758 93.6239Z" fill="#ED7445"/>
<path d="M48.4961 146.464H50.0875V186.829H48.4961V146.464Z" fill="#7D111C"/>
<path d="M18.2598 146.464H19.8512V186.829H18.2598V146.464Z" fill="#7D111C"/>
<path d="M14.2832 150.248H54.2426V165.805H14.2832V150.248Z" fill="#ECECEC"/>
<path d="M54.2413 165.806V151.089L46.8945 165.806H54.2413Z" fill="#ED7445"/>
<path d="M28.9902 165.805H37.5369L45.3045 150.248H36.7571L28.9902 165.805Z" fill="#ED7445"/>
<path d="M18.8553 150.248L14.2832 159.406V165.805H19.6351L27.402 150.248H18.8553Z" fill="#ED7445"/>
<path d="M12.293 175.057H56.0566V176.739H12.293V175.057Z" fill="#7D111C"/>
<path d="M325.4 146.464H326.992V186.829H325.4V146.464Z" fill="#7D111C"/>
<path d="M295.164 146.464H296.755V186.829H295.164V146.464Z" fill="#7D111C"/>
<path d="M291.188 150.248H331.147V165.805H291.188V150.248Z" fill="#ECECEC"/>
<path d="M331.146 165.806V151.089L323.799 165.806H331.146Z" fill="#ED7445"/>
<path d="M305.895 165.805H314.441L322.208 150.248H313.661L305.895 165.805Z" fill="#ED7445"/>
<path d="M295.76 150.248L291.188 159.406V165.805H296.539L304.306 150.248H295.76Z" fill="#ED7445"/>
<path d="M289.197 175.057H332.961V176.739H289.197V175.057Z" fill="#7D111C"/>
<path d="M73.4672 198.458H55.3403C54.7435 198.458 54.2598 198.969 54.2598 199.601C54.2598 200.232 54.7435 200.743 55.3403 200.743H73.4672C74.064 200.743 74.5478 200.231 74.5478 199.601C74.5478 198.97 74.064 198.458 73.4672 198.458Z" fill="#ED7445"/>
<path d="M65.8743 182.171C65.7892 181.925 65.568 181.761 65.3197 181.761H63.2421C62.9915 181.761 62.7679 181.928 62.6851 182.179L56.8359 199.864H71.9686L65.8743 182.171Z" fill="#ED7445"/>
<path d="M61.6035 185.452L60.6797 188.245H67.9675L67.0047 185.452H61.6035Z" fill="#ECEFF1"/>
<path d="M59.25 192.57L58.3262 195.364H70.4209L69.4581 192.57H59.25Z" fill="#ECEFF1"/>
<path opacity="0.5" d="M70.7603 49.5689C69.4331 49.5689 68.2061 50.0146 67.1979 50.7665V48.9122C67.1979 43.5713 63.1009 39.2412 58.0474 39.2412C52.9938 39.2412 48.8968 43.5713 48.8968 48.9122V52.5669C48.0684 51.7361 46.9513 51.2231 45.7187 51.2231C43.1661 51.2231 41.0957 53.4104 41.0957 56.109H76.9477C76.9485 52.4971 74.1779 49.5689 70.7603 49.5689Z" fill="#F1EBE1"/>
<path opacity="0.5" d="M144.649 23.2145C143.682 23.2145 142.789 23.5391 142.056 24.0866V22.736C142.056 18.8474 139.073 15.6956 135.394 15.6956C131.715 15.6956 128.732 18.8483 128.732 22.736V25.3968C128.129 24.7921 127.316 24.4187 126.419 24.4187C124.56 24.4187 123.053 26.0115 123.053 27.976H149.154C149.154 25.3463 147.137 23.2145 144.649 23.2145Z" fill="#F1EBE1"/>
</svg>
