<svg width="27" height="27" viewBox="0 0 27 27" fill="none" xmlns="http://www.w3.org/2000/svg">
<g clip-path="url(#clip0_30_74)">
<path fill-rule="evenodd" clip-rule="evenodd" d="M13.504 0C20.9568 0 27.0081 6.0432 27.0081 13.504C27.0081 20.9568 20.9649 27.0081 13.504 27.0081C6.0513 27.0081 0 20.9649 0 13.504C0 6.0513 6.0432 0 13.504 0ZM10.3447 6.09181H16.6634C19.0369 6.09181 20.973 8.0117 20.973 10.3447V16.6472C20.973 18.9883 19.0369 20.9001 16.6634 20.9001H10.3447C7.9712 20.9001 6.0351 18.9883 6.0351 16.6472V10.3447C6.0351 8.0036 7.9793 6.09181 10.3447 6.09181ZM13.4635 9.50225C15.7723 9.50225 17.6436 11.3735 17.6436 13.6823C17.6436 15.991 15.7723 17.8623 13.4635 17.8623C11.1548 17.8623 9.28353 15.991 9.28353 13.6823C9.28353 11.3735 11.1548 9.50225 13.4635 9.50225ZM13.4635 10.9118C14.9865 10.9118 16.2259 12.1512 16.2259 13.6742C16.2259 15.1971 14.9865 16.4365 13.4635 16.4365C11.9325 16.4365 10.7012 15.1971 10.7012 13.6742C10.7012 12.1512 11.9406 10.9118 13.4635 10.9118ZM17.5058 8.91899C17.8785 8.91899 18.1863 9.21872 18.1863 9.59946C18.1863 9.9721 17.8866 10.2799 17.5058 10.2799C17.1332 10.2799 16.8254 9.9802 16.8254 9.59946C16.8254 9.22682 17.1251 8.91899 17.5058 8.91899ZM10.8632 7.29883H16.1449C18.1296 7.29883 19.7498 8.91089 19.7498 10.8875V16.2016C19.7498 18.1782 18.1296 19.7903 16.1449 19.7903H10.8632C8.87849 19.7903 7.25833 18.1782 7.25833 16.2016V10.8875C7.25833 8.91089 8.87849 7.29883 10.8632 7.29883Z" fill="white"/>
</g>
<defs>
<clipPath id="clip0_30_74">
<rect width="27" height="27" fill="white"/>
</clipPath>
</defs>
</svg>
