<svg width="27" height="27" viewBox="0 0 27 27" fill="none" xmlns="http://www.w3.org/2000/svg">
<g clip-path="url(#clip0_30_76)">
<path fill-rule="evenodd" clip-rule="evenodd" d="M13.504 0C20.9568 0 27.0081 6.0432 27.0081 13.504C27.0081 20.9568 20.9649 27.0081 13.504 27.0081C6.0513 27.0081 0 20.9649 0 13.504C0 6.0513 6.0432 0 13.504 0ZM11.7624 10.8227H14.5329V12.2403H14.5734C14.9622 11.5437 15.9019 10.8227 17.3114 10.8227C20.2358 10.8227 20.7786 12.6454 20.7786 15.0108V19.8389H17.8866V15.5617C17.8866 14.541 17.8623 13.2286 16.3798 13.2286C14.8731 13.2286 14.6463 14.3384 14.6463 15.4887V19.8389H11.7543V10.8227H11.7624ZM9.76148 8.31953C9.76148 9.14581 9.08911 9.82628 8.25472 9.82628C7.42844 9.82628 6.74797 9.15391 6.74797 8.31953C6.74797 7.49325 7.42034 6.81278 8.25472 6.81278C9.08101 6.81278 9.76148 7.48515 9.76148 8.31953ZM6.75608 10.8227H9.76148V19.8389H6.75608V10.8227Z" fill="white"/>
</g>
<defs>
<clipPath id="clip0_30_76">
<rect width="27" height="27" fill="white"/>
</clipPath>
</defs>
</svg>
